SplineFontDB: 3.2
FontName: FixedsysEvolution
FullName: FixedsysEvolution
FamilyName: FixedsysEvolution
Weight: Regular
Copyright: Copyright (c) 2023, ssrlive
UComments: "2023-2-26: Created with FontForge (http://fontforge.org)"
Version: 001.000
ItalicAngle: 0
UnderlinePosition: -100
UnderlineWidth: 50
Ascent: 800
Descent: 200
InvalidEm: 0
LayerCount: 2
Layer: 0 0 "Back" 1
Layer: 1 0 "Fore" 0
XUID: [1021 872 -1323775843 1822]
StyleMap: 0x0000
FSType: 0
OS2Version: 0
OS2_WeightWidthSlopeOnly: 0
OS2_UseTypoMetrics: 1
CreationTime: 1677404500
ModificationTime: 1680011416
PfmFamily: 17
TTFWeight: 400
TTFWidth: 5
LineGap: 90
VLineGap: 0
OS2TypoAscent: 0
OS2TypoAOffset: 1
OS2TypoDescent: 0
OS2TypoDOffset: 1
OS2TypoLinegap: 90
OS2WinAscent: 0
OS2WinAOffset: 1
OS2WinDescent: 0
OS2WinDOffset: 1
HheadAscent: 0
HheadAOffset: 1
HheadDescent: 0
HheadDOffset: 1
OS2Vendor: 'PfEd'
MarkAttachClasses: 1
DEI: 91125
LangName: 1033
Encoding: UnicodeFull
UnicodeInterp: tradchinese
NameList: AGL For New Fonts
DisplaySize: -48
AntiAlias: 1
FitToEm: 0
WinInfo: 0 29 12
BeginPrivate: 0
EndPrivate
TeXData: 1 0 0 346030 173015 115343 539268 1048576 115343 783286 444596 497025 792723 393216 433062 380633 303038 157286 324010 404750 52429 2506097 1059062 262144
BeginChars: 1114112 256

StartChar: dollar
Encoding: 36 36 0
Width: 500
Flags: HW
LayerCount: 2
Fore
SplineSet
250 738 m 1
 306 738 l 0
 312 732 l 1
 312 675 l 1
 312 618 l 1
 318 612 l 0
 344 612 l 1
 369 612 l 0
 375 606 l 1
 375 581 l 1
 375 556 l 1
 381 550 l 0
 406 550 l 1
 432 550 l 0
 438 544 l 1
 438 519 l 1
 438 494 l 1
 432 488 l 0
 375 488 l 1
 318 488 l 0
 312 494 l 1
 312 519 l 1
 312 544 l 1
 306 550 l 0
 250 550 l 1
 194 550 l 0
 188 544 l 1
 188 488 l 1
 188 431 l 1
 194 425 l 0
 219 425 l 1
 244 425 l 0
 250 419 l 1
 250 394 l 1
 250 368 l 1
 256 362 l 0
 281 362 l 1
 306 362 l 0
 312 356 l 1
 312 331 l 1
 312 306 l 1
 318 300 l 0
 344 300 l 1
 369 300 l 0
 375 294 l 1
 375 269 l 1
 375 244 l 1
 381 238 l 0
 406 238 l 1
 432 238 l 0
 438 232 l 1
 438 175 l 1
 438 118 l 1
 432 112 l 0
 406 112 l 1
 381 112 l 0
 375 106 l 1
 375 81 l 1
 375 56 l 1
 369 50 l 0
 344 50 l 1
 318 50 l 0
 312 44 l 1
 312 -12 l 1
 312 -69 l 1
 306 -75 l 0
 250 -75 l 1
 194 -75 l 0
 188 -69 l 1
 188 -12 l 1
 188 44 l 1
 182 50 l 0
 156 50 l 1
 131 50 l 0
 125 56 l 1
 125 81 l 1
 125 106 l 1
 119 112 l 0
 94 112 l 1
 68 112 l 0
 62 118 l 1
 62 144 l 1
 62 169 l 1
 68 175 l 0
 125 175 l 1
 182 175 l 0
 188 169 l 1
 188 144 l 1
 188 118 l 1
 194 112 l 0
 250 112 l 1
 306 112 l 0
 312 118 l 1
 312 175 l 1
 312 232 l 1
 306 238 l 0
 281 238 l 1
 256 238 l 0
 250 244 l 1
 250 269 l 1
 250 294 l 1
 244 300 l 0
 219 300 l 1
 194 300 l 0
 188 306 l 1
 188 331 l 1
 188 356 l 1
 182 362 l 0
 156 362 l 1
 131 362 l 0
 125 368 l 1
 125 394 l 1
 125 419 l 1
 119 425 l 0
 94 425 l 1
 68 425 l 0
 62 431 l 1
 62 488 l 1
 62 544 l 1
 68 550 l 0
 94 550 l 1
 119 550 l 0
 125 556 l 1
 125 581 l 1
 125 606 l 1
 131 612 l 0
 156 612 l 1
 182 612 l 0
 188 618 l 1
 188 675 l 1
 188 732 l 1
 194 738 l 0
 250 738 l 1
EndSplineSet
EndChar

StartChar: percent
Encoding: 37 37 1
Width: 500
Flags: HW
LayerCount: 2
Fore
SplineSet
62 175 m 25
 62 118 l 1
 68 112 l 0
 119 112 l 0
 125 118 l 9
 125 144 l 25
 438 501 l 25
 438 544 l 17
 432 550 l 0
 381 550 l 0
 375 544 l 9
 375 519 l 1
 62 175 l 25
375 519 m 1025
256 238 m 1
 336 238 l 1
 416 238 l 1
 422 232 l 0
 422 206 l 1
 422 181 l 1
 428 175 l 0
 449 175 l 1
 470 175 l 0
 476 169 l 1
 476 112 l 1
 476 56 l 1
 470 50 l 0
 449 50 l 1
 428 50 l 0
 422 44 l 1
 422 19 l 1
 422 -6 l 1
 416 -12 l 0
 336 -12 l 1
 256 -12 l 0
 250 -6 l 1
 250 19 l 1
 250 44 l 1
 244 50 l 0
 219 50 l 1
 194 50 l 0
 188 56 l 1
 188 112 l 1
 188 169 l 1
 194 175 l 0
 219 175 l 1
 244 175 l 0
 250 181 l 1
 250 206 l 1
 250 232 l 0
 256 238 l 1
79 431 m 1
 79 456 l 1
 79 482 l 1
 73 488 l 0
 52 488 l 1
 31 488 l 0
 25 494 l 1
 25 550 l 1
 25 606 l 0
 31 612 l 1
 52 612 l 1
 73 612 l 0
 79 618 l 1
 79 644 l 1
 79 669 l 0
 85 675 l 1
 165 675 l 1
 244 675 l 0
 250 669 l 1
 250 644 l 1
 250 618 l 1
 256 612 l 0
 281 612 l 1
 306 612 l 1
 312 606 l 0
 312 550 l 9
 312 494 l 25
 306 488 l 17
 256 488 l 0
 250 482 l 9
 250 431 l 25
 244 425 l 25
 85 425 l 25
 79 431 l 1
165 612 m 1
 140 612 l 1
 134 606 l 0
 134 550 l 1
 134 494 l 1
 140 488 l 0
 165 488 l 1
 191 488 l 1
 197 494 l 0
 197 550 l 1
 197 606 l 1
 191 612 l 0
 165 612 l 1
336 175 m 1
 310 175 l 0
 304 169 l 1
 304 112 l 1
 304 56 l 1
 310 50 l 0
 336 50 l 1
 361 50 l 1
 367 56 l 0
 367 112 l 1
 367 169 l 1
 361 175 l 0
 336 175 l 1
EndSplineSet
EndChar

StartChar: asciicircum
Encoding: 94 94 2
Width: 500
Flags: HW
LayerCount: 2
Fore
SplineSet
250 738 m 1
 306 738 l 0
 312 732 l 1
 312 706 l 1
 312 681 l 1
 318 675 l 0
 344 675 l 1
 369 675 l 0
 375 669 l 1
 375 644 l 1
 375 618 l 1
 381 612 l 0
 406 612 l 1
 432 612 l 0
 438 606 l 1
 438 581 l 1
 438 556 l 1
 432 550 l 0
 375 550 l 1
 318 550 l 0
 312 556 l 1
 312 581 l 1
 312 606 l 1
 306 612 l 0
 250 612 l 1
 194 612 l 0
 188 606 l 1
 188 581 l 1
 188 556 l 1
 182 550 l 0
 125 550 l 1
 68 550 l 0
 62 556 l 1
 62 581 l 1
 62 606 l 1
 68 612 l 0
 94 612 l 1
 119 612 l 0
 125 618 l 1
 125 644 l 1
 125 669 l 1
 131 675 l 0
 156 675 l 1
 182 675 l 0
 188 681 l 1
 188 706 l 1
 188 732 l 1
 194 738 l 0
 250 738 l 1
EndSplineSet
EndChar

StartChar: ampersand
Encoding: 38 38 3
Width: 500
Flags: HW
LayerCount: 2
Fore
SplineSet
209 612 m 1
 296 612 l 0
 302 606 l 1
 302 581 l 1
 302 556 l 1
 308 550 l 0
 334 550 l 1
 359 550 l 0
 365 544 l 1
 365 488 l 1
 365 431 l 1
 359 425 l 0
 334 425 l 1
 308 425 l 0
 302 419 l 1
 302 394 l 1
 302 368 l 1
 296 362 l 0
 240 362 l 1
 184 362 l 0
 178 356 l 1
 178 238 l 1
 178 118 l 1
 184 112 l 0
 240 112 l 1
 290 112 l 1
 302 124 l 0
 302 175 l 1
 302 232 l 1
 296 238 l 0
 271 238 l 1
 246 238 l 0
 240 244 l 1
 240 269 l 1
 240 294 l 1
 246 300 l 0
 352 300 l 1
 450 300 l 0
 456 294 l 1
 456 269 l 1
 456 244 l 1
 450 238 l 0
 425 238 l 1
 405 238 l 0
 399 232 l 1
 399 175 l 1
 399 118 l 1
 405 112 l 0
 425 112 l 1
 450 112 l 0
 456 106 l 1
 456 81 l 1
 456 56 l 1
 450 50 l 0
 399 50 l 1
 358 50 l 0
 352 56 l 1
 352 81 l 1
 352 106 l 1
 346 112 l 0
 321 112 l 1
 314 112 l 1
 302 100 l 0
 302 81 l 1
 302 56 l 1
 296 50 l 0
 209 50 l 1
 131 50 l 0
 125 56 l 1
 125 81 l 1
 125 106 l 1
 119 112 l 0
 94 112 l 1
 68 112 l 0
 62 118 l 1
 62 238 l 1
 62 356 l 1
 68 362 l 0
 94 362 l 1
 119 362 l 0
 125 368 l 1
 125 394 l 1
 125 419 l 1
 119 425 l 0
 94 425 l 1
 68 425 l 0
 62 431 l 1
 62 488 l 1
 62 544 l 0
 68 550 l 1
 94 550 l 1
 119 550 l 0
 125 556 l 1
 125 581 l 1
 125 606 l 1
 131 612 l 0
 209 612 l 1
209 550 m 1
 184 550 l 0
 178 544 l 1
 178 488 l 1
 178 431 l 1
 185 425 l 0
 209 425 l 1
 234 425 l 0
 240 431 l 1
 240 488 l 1
 240 544 l 1
 234 550 l 0
 209 550 l 1
EndSplineSet
EndChar

StartChar: asterisk
Encoding: 42 42 4
Width: 500
Flags: HW
LayerCount: 2
Fore
SplineSet
158 488 m 1
 214 488 l 0
 220 482 l 1
 220 456 l 1
 220 431 l 1
 226 425 l 0
 251 425 l 1
 276 425 l 0
 282 431 l 1
 282 456 l 1
 282 482 l 1
 288 488 l 0
 345 488 l 1
 402 488 l 0
 408 482 l 1
 408 456 l 1
 408 431 l 1
 402 425 l 0
 376 425 l 1
 351 425 l 0
 345 419 l 1
 345 394 l 1
 345 368 l 1
 351 362 l 0
 408 362 l 1
 464 362 l 0
 470 356 l 1
 470 331 l 1
 470 306 l 1
 464 300 l 0
 408 300 l 1
 351 300 l 0
 345 294 l 1
 345 269 l 1
 345 244 l 1
 351 238 l 0
 376 238 l 1
 402 238 l 0
 408 232 l 1
 408 206 l 1
 408 181 l 1
 402 175 l 0
 345 175 l 1
 288 175 l 0
 282 181 l 1
 282 206 l 1
 282 232 l 1
 276 238 l 0
 251 238 l 1
 226 238 l 0
 220 232 l 1
 220 206 l 1
 220 181 l 1
 214 175 l 0
 158 175 l 1
 101 175 l 0
 95 181 l 1
 95 206 l 1
 95 232 l 1
 101 238 l 0
 126 238 l 1
 152 238 l 0
 158 244 l 1
 158 269 l 1
 158 294 l 1
 152 300 l 0
 95 300 l 1
 38 300 l 0
 32 306 l 1
 32 331 l 1
 32 356 l 1
 38 362 l 0
 95 362 l 1
 152 362 l 0
 158 368 l 1
 158 394 l 1
 158 419 l 1
 152 425 l 0
 126 425 l 1
 101 425 l 0
 95 431 l 1
 95 456 l 1
 95 482 l 1
 101 488 l 0
 158 488 l 1
EndSplineSet
EndChar

StartChar: parenleft
Encoding: 40 40 5
Width: 500
Flags: HW
LayerCount: 2
Fore
SplineSet
312 612 m 1
 369 612 l 1
 375 606 l 0
 375 581 l 1
 375 556 l 1
 369 550 l 0
 344 550 l 1
 318 550 l 1
 312 544 l 0
 312 488 l 1
 312 431 l 1
 306 425 l 0
 281 425 l 1
 256 425 l 0
 250 419 l 1
 250 269 l 1
 250 118 l 1
 256 112 l 0
 281 112 l 1
 306 112 l 0
 312 106 l 1
 312 50 l 1
 312 -6 l 1
 318 -12 l 0
 344 -12 l 1
 369 -12 l 1
 375 -18 l 0
 375 -44 l 1
 375 -69 l 1
 369 -75 l 0
 312 -75 l 1
 256 -75 l 1
 250 -69 l 0
 250 -44 l 1
 250 -18 l 1
 244 -12 l 0
 219 -12 l 1
 194 -12 l 1
 188 -6 l 0
 188 50 l 1
 188 106 l 1
 182 112 l 0
 156 112 l 1
 131 112 l 1
 125 118 l 0
 125 269 l 1
 125 419 l 0
 131 425 l 1
 156 425 l 1
 182 425 l 0
 188 431 l 1
 188 488 l 1
 188 544 l 1
 194 550 l 0
 219 550 l 1
 244 550 l 0
 250 556 l 1
 250 581 l 1
 250 606 l 0
 256 612 l 1
 312 612 l 1
EndSplineSet
EndChar

StartChar: parenright
Encoding: 41 41 6
Width: 500
Flags: HW
LayerCount: 2
Fore
SplineSet
188 612 m 1
 131 612 l 1
 125 606 l 0
 125 581 l 1
 125 556 l 1
 131 550 l 0
 156 550 l 1
 182 550 l 1
 188 544 l 0
 188 488 l 1
 188 431 l 1
 194 425 l 0
 219 425 l 1
 244 425 l 0
 250 419 l 1
 250 269 l 1
 250 118 l 1
 244 112 l 0
 219 112 l 1
 194 112 l 0
 188 106 l 1
 188 50 l 1
 188 -6 l 1
 182 -12 l 0
 156 -12 l 1
 131 -12 l 1
 125 -18 l 0
 125 -44 l 1
 125 -69 l 1
 131 -75 l 0
 188 -75 l 1
 244 -75 l 1
 250 -69 l 0
 250 -44 l 1
 250 -18 l 1
 256 -12 l 0
 281 -12 l 1
 306 -12 l 1
 312 -6 l 0
 312 50 l 1
 312 106 l 1
 318 112 l 0
 344 112 l 1
 369 112 l 1
 375 118 l 0
 375 269 l 1
 375 419 l 0
 369 425 l 1
 344 425 l 1
 318 425 l 0
 312 431 l 1
 312 488 l 1
 312 544 l 1
 306 550 l 0
 281 550 l 1
 256 550 l 0
 250 556 l 1
 250 581 l 1
 250 606 l 0
 244 612 l 1
 188 612 l 1
EndSplineSet
EndChar

StartChar: underscore
Encoding: 95 95 7
Width: 500
Flags: HW
LayerCount: 2
Fore
SplineSet
250 -75 m 1
 494 -75 l 0
 500 -81 l 1
 500 -106 l 1
 500 -132 l 1
 494 -138 l 0
 250 -138 l 1
 6 -138 l 0
 0 -132 l 1
 0 -106 l 1
 0 -81 l 1
 6 -75 l 0
 250 -75 l 1
EndSplineSet
EndChar

StartChar: plus
Encoding: 43 43 8
Width: 500
Flags: HW
LayerCount: 2
Fore
SplineSet
250 488 m 1
 306 488 l 0
 312 482 l 1
 312 425 l 1
 312 368 l 1
 318 362 l 0
 375 362 l 1
 432 362 l 0
 438 356 l 1
 438 331 l 1
 438 306 l 1
 432 300 l 0
 375 300 l 1
 318 300 l 0
 312 294 l 1
 312 238 l 1
 312 181 l 1
 306 175 l 0
 250 175 l 1
 194 175 l 0
 188 181 l 1
 188 238 l 1
 188 294 l 1
 182 300 l 0
 125 300 l 1
 68 300 l 0
 62 306 l 1
 62 331 l 1
 62 356 l 1
 68 362 l 0
 125 362 l 1
 182 362 l 0
 188 368 l 1
 188 425 l 1
 188 482 l 1
 194 488 l 0
 250 488 l 1
EndSplineSet
EndChar

StartChar: braceleft
Encoding: 123 123 9
Width: 500
Flags: HW
LayerCount: 2
Fore
SplineSet
312 612 m 1
 369 612 l 0
 375 606 l 1
 375 581 l 1
 375 556 l 1
 369 550 l 0
 344 550 l 1
 318 550 l 1
 312 544 l 0
 312 456 l 1
 312 368 l 1
 306 362 l 0
 281 362 l 1
 256 362 l 1
 250 356 l 0
 250 331 l 1
 250 306 l 1
 244 300 l 0
 219 300 l 1
 194 300 l 1
 188 294 l 0
 188 269 l 1
 188 244 l 1
 194 238 l 0
 219 238 l 1
 244 238 l 0
 250 232 l 1
 250 206 l 1
 250 181 l 1
 256 175 l 0
 281 175 l 1
 306 175 l 0
 312 169 l 1
 312 81 l 1
 312 -6 l 1
 318 -12 l 0
 344 -12 l 1
 369 -12 l 0
 375 -18 l 1
 375 -44 l 1
 375 -69 l 1
 369 -75 l 0
 312 -75 l 1
 256 -75 l 1
 250 -69 l 0
 250 -44 l 1
 250 -18 l 1
 244 -12 l 0
 219 -12 l 1
 194 -12 l 1
 188 -6 l 0
 188 81 l 1
 188 169 l 1
 182 175 l 0
 156 175 l 1
 131 175 l 1
 125 181 l 0
 125 206 l 1
 125 232 l 1
 119 238 l 0
 94 238 l 1
 68 238 l 1
 62 244 l 0
 62 269 l 1
 62 294 l 0
 68 300 l 1
 94 300 l 1
 119 300 l 0
 125 306 l 1
 125 331 l 1
 125 356 l 0
 131 362 l 1
 156 362 l 1
 182 362 l 0
 188 368 l 1
 188 456 l 1
 188 544 l 1
 194 550 l 0
 219 550 l 1
 244 550 l 0
 250 556 l 1
 250 581 l 1
 250 606 l 0
 256 612 l 1
 312 612 l 1
EndSplineSet
EndChar

StartChar: braceright
Encoding: 125 125 10
Width: 500
Flags: HW
LayerCount: 2
Fore
SplineSet
188 612 m 1
 131 612 l 0
 125 606 l 1
 125 581 l 1
 125 556 l 1
 131 550 l 0
 156 550 l 1
 182 550 l 1
 188 544 l 0
 188 456 l 1
 188 368 l 1
 194 362 l 0
 219 362 l 1
 244 362 l 1
 250 356 l 0
 250 331 l 1
 250 306 l 1
 256 300 l 0
 281 300 l 1
 306 300 l 1
 312 294 l 0
 312 269 l 1
 312 244 l 1
 306 238 l 0
 281 238 l 1
 256 238 l 0
 250 232 l 1
 250 206 l 1
 250 181 l 1
 244 175 l 0
 219 175 l 1
 194 175 l 0
 188 169 l 1
 188 81 l 1
 188 -6 l 1
 182 -12 l 0
 156 -12 l 1
 131 -12 l 0
 125 -18 l 1
 125 -44 l 1
 125 -69 l 1
 131 -75 l 0
 188 -75 l 1
 244 -75 l 1
 250 -69 l 0
 250 -44 l 1
 250 -18 l 1
 256 -12 l 0
 281 -12 l 1
 306 -12 l 1
 312 -6 l 0
 312 81 l 1
 312 169 l 1
 318 175 l 0
 344 175 l 1
 369 175 l 1
 375 181 l 0
 375 206 l 1
 375 232 l 1
 381 238 l 0
 406 238 l 1
 432 238 l 1
 438 244 l 0
 438 269 l 1
 438 294 l 0
 432 300 l 1
 406 300 l 1
 381 300 l 0
 375 306 l 1
 375 331 l 1
 375 356 l 0
 369 362 l 1
 344 362 l 1
 318 362 l 0
 312 368 l 1
 312 456 l 1
 312 544 l 1
 306 550 l 0
 281 550 l 1
 256 550 l 0
 250 556 l 1
 250 581 l 1
 250 606 l 0
 244 612 l 1
 188 612 l 1
EndSplineSet
EndChar

StartChar: bar
Encoding: 124 124 11
Width: 500
Flags: HW
LayerCount: 2
Fore
SplineSet
250 612 m 1
 306 612 l 0
 312 606 l 1
 312 238 l 1
 312 -132 l 0
 306 -138 l 1
 250 -138 l 1
 194 -138 l 0
 188 -132 l 1
 188 238 l 1
 188 606 l 0
 194 612 l 1
 250 612 l 1
EndSplineSet
EndChar

StartChar: equal
Encoding: 61 61 12
Width: 500
Flags: HW
LayerCount: 2
Fore
SplineSet
250 300 m 1
 432 300 l 0
 438 294 l 1
 438 269 l 1
 438 244 l 1
 432 238 l 0
 250 238 l 1
 68 238 l 0
 62 244 l 1
 62 269 l 1
 62 294 l 1
 68 300 l 0
 250 300 l 1
250 425 m 1
 432 425 l 0
 438 419 l 1
 438 394 l 1
 438 368 l 1
 432 362 l 0
 250 362 l 1
 68 362 l 0
 62 368 l 1
 62 394 l 1
 62 419 l 0
 68 425 l 1
 250 425 l 1
EndSplineSet
EndChar

StartChar: colon
Encoding: 58 58 13
Width: 500
Flags: HW
LayerCount: 2
Fore
SplineSet
281 175 m 1
 369 175 l 0
 375 169 l 1
 375 112 l 1
 375 56 l 1
 369 50 l 0
 281 50 l 1
 194 50 l 0
 188 56 l 1
 188 112 l 1
 188 169 l 1
 194 175 l 0
 281 175 l 1
281 488 m 1
 369 488 l 0
 375 482 l 1
 375 425 l 1
 375 368 l 1
 369 362 l 0
 281 362 l 1
 194 362 l 0
 188 368 l 1
 188 425 l 1
 188 482 l 0
 194 488 l 1
 281 488 l 1
EndSplineSet
EndChar

StartChar: quotedbl
Encoding: 34 34 14
Width: 500
Flags: HW
LayerCount: 2
Fore
SplineSet
375 612 m 1
 432 612 l 0
 438 606 l 1
 438 519 l 1
 438 431 l 1
 432 425 l 0
 375 425 l 1
 318 425 l 0
 312 431 l 1
 312 519 l 1
 312 606 l 1
 318 612 l 0
 375 612 l 1
125 612 m 1
 182 612 l 0
 188 606 l 1
 188 519 l 1
 188 431 l 1
 182 425 l 0
 125 425 l 1
 68 425 l 0
 62 431 l 1
 62 519 l 1
 62 606 l 1
 68 612 l 0
 125 612 l 1
EndSplineSet
EndChar

StartChar: less
Encoding: 60 60 15
Width: 500
Flags: HW
LayerCount: 2
Fore
SplineSet
375 612 m 1
 432 612 l 0
 438 606 l 1
 438 581 l 1
 438 556 l 1
 432 550 l 0
 406 550 l 1
 381 550 l 0
 375 544 l 1
 375 519 l 1
 375 494 l 1
 369 488 l 0
 344 488 l 1
 318 488 l 1
 312 482 l 0
 312 456 l 1
 312 431 l 1
 306 425 l 0
 281 425 l 1
 256 425 l 0
 250 419 l 1
 250 394 l 1
 250 368 l 1
 244 362 l 0
 219 362 l 1
 194 362 l 0
 188 356 l 1
 188 331 l 1
 188 306 l 1
 194 300 l 0
 219 300 l 1
 244 300 l 0
 250 294 l 1
 250 269 l 1
 250 244 l 1
 256 238 l 0
 281 238 l 1
 306 238 l 0
 312 232 l 1
 312 206 l 1
 312 181 l 1
 318 175 l 0
 344 175 l 1
 369 175 l 0
 375 169 l 1
 375 144 l 1
 375 118 l 1
 381 112 l 0
 406 112 l 1
 432 112 l 0
 438 106 l 1
 438 81 l 1
 438 56 l 1
 432 50 l 0
 375 50 l 1
 318 50 l 0
 312 56 l 1
 312 81 l 1
 312 106 l 1
 306 112 l 0
 281 112 l 1
 256 112 l 0
 250 118 l 1
 250 144 l 1
 250 169 l 1
 244 175 l 0
 219 175 l 1
 194 175 l 0
 188 181 l 1
 188 206 l 1
 188 232 l 1
 182 238 l 0
 156 238 l 1
 131 238 l 0
 125 244 l 1
 125 269 l 1
 125 294 l 1
 119 300 l 0
 94 300 l 1
 68 300 l 0
 62 306 l 1
 62 331 l 1
 62 356 l 0
 68 362 l 1
 94 362 l 1
 119 362 l 0
 125 368 l 1
 125 394 l 1
 125 419 l 1
 131 425 l 0
 156 425 l 1
 182 425 l 0
 188 431 l 1
 188 456 l 1
 188 482 l 1
 194 488 l 0
 219 488 l 1
 244 488 l 0
 250 494 l 1
 250 519 l 1
 250 544 l 1
 256 550 l 0
 281 550 l 1
 306 550 l 0
 312 556 l 1
 312 581 l 1
 312 606 l 1
 318 612 l 0
 375 612 l 1
EndSplineSet
EndChar

StartChar: greater
Encoding: 62 62 16
Width: 500
Flags: HW
LayerCount: 2
Fore
SplineSet
125 612 m 1
 182 612 l 0
 188 606 l 1
 188 581 l 1
 188 556 l 1
 194 550 l 0
 219 550 l 1
 244 550 l 0
 250 544 l 1
 250 519 l 1
 250 494 l 1
 256 488 l 0
 281 488 l 1
 306 488 l 0
 312 482 l 1
 312 456 l 1
 312 431 l 1
 318 425 l 0
 344 425 l 1
 369 425 l 0
 375 419 l 1
 375 394 l 1
 375 368 l 1
 381 362 l 0
 406 362 l 1
 432 362 l 1
 438 356 l 0
 438 331 l 1
 438 306 l 1
 432 300 l 0
 406 300 l 1
 381 300 l 0
 375 294 l 1
 375 269 l 1
 375 244 l 1
 369 238 l 0
 344 238 l 1
 318 238 l 0
 312 232 l 1
 312 206 l 1
 312 181 l 1
 306 175 l 0
 281 175 l 1
 256 175 l 0
 250 169 l 1
 250 144 l 1
 250 118 l 1
 244 112 l 0
 219 112 l 1
 194 112 l 0
 188 106 l 1
 188 81 l 1
 188 56 l 1
 182 50 l 0
 125 50 l 1
 68 50 l 0
 62 56 l 1
 62 81 l 1
 62 106 l 1
 68 112 l 0
 94 112 l 1
 119 112 l 0
 125 118 l 1
 125 144 l 1
 125 169 l 1
 131 175 l 0
 156 175 l 1
 182 175 l 0
 188 181 l 1
 188 206 l 1
 188 232 l 1
 194 238 l 0
 219 238 l 1
 244 238 l 0
 250 244 l 1
 250 269 l 1
 250 294 l 1
 256 300 l 0
 281 300 l 1
 306 300 l 0
 312 306 l 1
 312 331 l 1
 312 356 l 1
 306 362 l 0
 281 362 l 1
 256 362 l 0
 250 368 l 1
 250 394 l 1
 250 419 l 1
 244 425 l 0
 219 425 l 1
 194 425 l 0
 188 431 l 1
 188 456 l 1
 188 482 l 0
 182 488 l 1
 156 488 l 1
 131 488 l 0
 125 494 l 1
 125 519 l 1
 125 544 l 1
 119 550 l 0
 94 550 l 1
 68 550 l 0
 62 556 l 1
 62 581 l 1
 62 606 l 1
 68 612 l 0
 125 612 l 1
EndSplineSet
EndChar

StartChar: question
Encoding: 63 63 17
Width: 500
Flags: HW
LayerCount: 2
Fore
SplineSet
250 175 m 1
 306 175 l 0
 312 169 l 1
 312 112 l 1
 312 56 l 1
 306 50 l 0
 250 50 l 1
 194 50 l 0
 188 56 l 1
 188 112 l 1
 188 169 l 1
 194 175 l 0
 250 175 l 1
250 612 m 1
 369 612 l 0
 375 606 l 1
 375 581 l 1
 375 556 l 1
 381 550 l 0
 406 550 l 1
 432 550 l 0
 438 544 l 1
 438 488 l 1
 438 431 l 1
 432 425 l 0
 406 425 l 1
 381 425 l 0
 375 419 l 1
 375 394 l 1
 375 368 l 1
 369 362 l 0
 344 362 l 1
 318 362 l 0
 312 356 l 1
 312 300 l 1
 312 244 l 1
 306 238 l 0
 250 238 l 1
 194 238 l 0
 188 244 l 1
 188 300 l 1
 188 356 l 1
 194 362 l 0
 219 362 l 1
 244 362 l 0
 250 368 l 1
 250 394 l 1
 250 419 l 1
 256 425 l 0
 281 425 l 1
 306 425 l 0
 312 431 l 1
 312 488 l 1
 312 544 l 1
 306 550 l 0
 250 550 l 1
 194 550 l 0
 188 544 l 1
 188 488 l 1
 188 431 l 1
 182 425 l 0
 125 425 l 1
 68 425 l 0
 62 431 l 1
 62 488 l 1
 62 544 l 1
 68 550 l 0
 94 550 l 1
 119 550 l 0
 125 556 l 1
 125 581 l 1
 125 606 l 0
 131 612 l 1
 250 612 l 1
EndSplineSet
EndChar

StartChar: numbersign
Encoding: 35 35 18
Width: 500
Flags: HW
LayerCount: 2
Fore
SplineSet
163 612 m 1
 217 612 l 0
 223 606 l 1
 223 550 l 1
 223 494 l 1
 229 488 l 0
 254 488 l 1
 279 488 l 0
 285 494 l 1
 285 550 l 1
 285 606 l 1
 291 612 l 0
 348 612 l 1
 403 612 l 0
 409 606 l 1
 409 550 l 1
 409 494 l 1
 415 488 l 0
 440 488 l 1
 465 488 l 0
 471 482 l 1
 471 456 l 1
 471 431 l 1
 465 425 l 0
 440 425 l 1
 415 425 l 0
 409 419 l 1
 409 331 l 1
 409 244 l 1
 415 238 l 0
 440 238 l 1
 465 238 l 0
 471 232 l 1
 471 206 l 1
 471 181 l 1
 465 175 l 0
 440 175 l 1
 415 175 l 0
 409 169 l 1
 409 112 l 1
 409 56 l 1
 403 50 l 0
 348 50 l 1
 291 50 l 0
 285 56 l 1
 285 112 l 1
 285 169 l 1
 279 175 l 0
 254 175 l 1
 229 175 l 0
 223 169 l 1
 223 112 l 1
 223 56 l 1
 217 50 l 0
 163 50 l 1
 106 50 l 0
 100 56 l 1
 100 112 l 1
 100 169 l 1
 95 175 l 0
 69 175 l 1
 43 175 l 0
 37 181 l 1
 37 206 l 1
 37 232 l 1
 43 238 l 0
 69 238 l 1
 94 238 l 0
 100 244 l 1
 100 331 l 1
 100 419 l 1
 94 425 l 0
 69 425 l 1
 43 425 l 0
 37 431 l 1
 37 456 l 1
 37 482 l 1
 43 488 l 0
 69 488 l 1
 94 488 l 0
 100 494 l 1
 100 550 l 1
 100 606 l 1
 106 612 l 0
 163 612 l 1
254 425 m 1
 229 425 l 0
 223 419 l 1
 223 331 l 1
 223 244 l 1
 229 238 l 0
 254 238 l 1
 279 238 l 0
 285 244 l 1
 285 331 l 1
 285 419 l 1
 279 425 l 0
 254 425 l 1
EndSplineSet
EndChar

StartChar: slash
Encoding: 47 47 19
Width: 500
Flags: HW
LayerCount: 2
Fore
SplineSet
312 550 m 1049
62 51 m 25
 62 -6 l 1
 68 -12 l 0
 182 -12 l 0
 188 -6 l 9
 188 50 l 25
 438 550 l 25
 438 606 l 17
 432 612 l 0
 318 612 l 0
 312 606 l 9
 312 550 l 1
 62 51 l 25
EndSplineSet
EndChar

StartChar: n
Encoding: 110 110 20
Width: 500
Flags: HW
LayerCount: 2
Fore
SplineSet
219 488 m 1
 369 488 l 0
 375 482 l 1
 375 456 l 1
 375 431 l 1
 381 425 l 0
 406 425 l 1
 432 425 l 0
 438 419 l 1
 438 238 l 1
 438 56 l 1
 432 50 l 0
 375 50 l 1
 318 50 l 0
 312 56 l 1
 312 238 l 1
 312 419 l 1
 305 425 l 0
 250 425 l 1
 194 425 l 0
 188 419 l 1
 188 238 l 1
 188 56 l 1
 182 50 l 0
 125 50 l 1
 68 50 l 0
 62 56 l 1
 62 269 l 1
 62 482 l 1
 68 488 l 0
 219 488 l 1
EndSplineSet
EndChar

StartChar: u
Encoding: 117 117 21
Width: 500
Flags: HW
LayerCount: 2
Fore
SplineSet
125 488 m 1
 182 488 l 0
 188 482 l 1
 188 300 l 1
 188 118 l 1
 194 112 l 0
 250 112 l 1
 306 112 l 0
 312 118 l 1
 312 300 l 1
 312 482 l 1
 318 488 l 0
 375 488 l 1
 432 488 l 0
 438 482 l 1
 438 269 l 1
 438 56 l 1
 432 50 l 0
 281 50 l 1
 131 50 l 0
 125 56 l 1
 125 81 l 1
 125 106 l 1
 119 112 l 0
 94 112 l 1
 68 112 l 0
 62 118 l 1
 62 300 l 1
 62 482 l 1
 68 488 l 0
 125 488 l 1
EndSplineSet
EndChar

StartChar: m
Encoding: 109 109 22
Width: 500
Flags: HW
LayerCount: 2
Fore
SplineSet
219 488 m 1
 402 488 l 1
 407 483 l 0
 407 456 l 1
 407 430 l 1
 412 425 l 0
 438 425 l 1
 464 425 l 0
 469 420 l 1
 469 238 l 1
 469 55 l 0
 464 50 l 1
 407 50 l 1
 349 50 l 0
 344 55 l 1
 344 238 l 1
 344 419 l 1
 338 425 l 0
 313 425 l 1
 287 425 l 0
 281 419 l 1
 281 269 l 1
 281 118 l 0
 275 112 l 1
 250 112 l 1
 225 112 l 0
 219 118 l 1
 219 269 l 1
 219 419 l 1
 213 425 l 0
 188 425 l 1
 163 425 l 0
 157 419 l 1
 157 238 l 1
 157 55 l 0
 152 50 l 1
 94 50 l 1
 36 50 l 0
 31 55 l 1
 31 269 l 1
 31 483 l 0
 36 488 l 1
 219 488 l 1
EndSplineSet
EndChar

StartChar: b
Encoding: 98 98 23
Width: 500
Flags: HW
LayerCount: 2
Fore
SplineSet
125 612 m 1
 182 612 l 0
 188 606 l 1
 188 550 l 1
 188 494 l 0
 194 488 l 1
 281 488 l 1
 369 488 l 0
 375 482 l 1
 375 456 l 1
 375 431 l 1
 381 425 l 0
 406 425 l 1
 432 425 l 0
 438 419 l 1
 438 269 l 1
 438 118 l 0
 432 112 l 1
 406 112 l 1
 381 112 l 0
 375 106 l 1
 375 81 l 1
 375 56 l 1
 369 50 l 0
 219 50 l 1
 68 50 l 0
 62 56 l 1
 62 331 l 1
 62 606 l 1
 68 612 l 0
 125 612 l 1
250 425 m 1
 194 425 l 1
 188 419 l 0
 188 269 l 1
 188 118 l 1
 194 112 l 0
 250 112 l 1
 306 112 l 0
 312 118 l 1
 312 269 l 1
 312 419 l 1
 306 425 l 0
 250 425 l 1
EndSplineSet
EndChar

StartChar: e
Encoding: 101 101 24
Width: 500
Flags: HW
LayerCount: 2
Fore
SplineSet
250 488 m 1
 369 488 l 0
 375 482 l 1
 375 456 l 1
 375 431 l 1
 381 425 l 0
 406 425 l 1
 432 425 l 0
 438 419 l 1
 438 331 l 1
 438 244 l 1
 432 238 l 0
 312 238 l 1
 194 238 l 0
 188 232 l 1
 188 175 l 1
 188 118 l 1
 194 112 l 0
 281 112 l 1
 369 112 l 0
 375 106 l 1
 375 81 l 1
 375 56 l 1
 369 50 l 0
 250 50 l 1
 131 50 l 0
 125 56 l 1
 125 81 l 1
 125 106 l 1
 119 112 l 0
 94 112 l 1
 68 112 l 0
 62 118 l 1
 62 269 l 1
 62 419 l 0
 68 425 l 1
 94 425 l 1
 119 425 l 0
 125 431 l 1
 125 456 l 1
 125 482 l 0
 131 488 l 1
 250 488 l 1
250 425 m 1
 194 425 l 0
 188 419 l 1
 188 362 l 1
 188 306 l 1
 194 300 l 0
 250 300 l 1
 306 300 l 0
 312 306 l 1
 312 362 l 1
 312 419 l 1
 306 425 l 0
 250 425 l 1
EndSplineSet
EndChar

StartChar: r
Encoding: 114 114 25
Width: 500
Flags: HW
LayerCount: 2
Fore
SplineSet
125 488 m 1
 182 488 l 0
 188 482 l 1
 188 425 l 1
 188 368 l 1
 194 362 l 0
 219 362 l 1
 244 362 l 0
 250 368 l 1
 250 394 l 1
 250 419 l 1
 256 425 l 0
 281 425 l 1
 306 425 l 0
 312 431 l 1
 312 456 l 1
 312 482 l 1
 318 488 l 0
 375 488 l 1
 432 488 l 0
 438 482 l 1
 438 425 l 1
 438 368 l 0
 432 362 l 1
 344 362 l 1
 256 362 l 0
 250 356 l 1
 250 325 l 1
 250 306 l 1
 244 300 l 0
 219 300 l 1
 194 300 l 1
 188 294 l 0
 188 175 l 1
 188 56 l 1
 182 50 l 0
 125 50 l 1
 68 50 l 0
 62 56 l 1
 62 269 l 1
 62 482 l 0
 68 488 l 1
 125 488 l 1
EndSplineSet
EndChar

StartChar: s
Encoding: 115 115 26
Width: 500
Flags: HW
LayerCount: 2
Fore
SplineSet
281 488 m 1
 432 488 l 0
 438 482 l 1
 438 456 l 1
 438 431 l 1
 432 425 l 0
 312 425 l 1
 194 425 l 0
 188 419 l 1
 188 362 l 1
 188 306 l 1
 194 300 l 0
 281 300 l 1
 369 300 l 0
 375 294 l 1
 375 269 l 1
 375 244 l 1
 381 238 l 0
 406 238 l 1
 432 238 l 0
 438 232 l 1
 438 175 l 1
 438 118 l 1
 432 112 l 0
 406 112 l 1
 381 112 l 1
 375 105 l 0
 375 81 l 1
 375 56 l 1
 369 50 l 0
 219 50 l 1
 68 50 l 0
 62 56 l 1
 62 81 l 1
 62 106 l 1
 68 112 l 0
 188 112 l 1
 306 112 l 0
 312 118 l 1
 312 175 l 1
 312 232 l 1
 306 238 l 0
 219 238 l 1
 131 238 l 0
 125 244 l 1
 125 269 l 1
 125 294 l 1
 119 300 l 0
 94 300 l 1
 68 300 l 0
 62 306 l 1
 62 362 l 1
 62 419 l 1
 68 425 l 0
 94 425 l 1
 119 425 l 0
 125 431 l 1
 125 456 l 1
 125 482 l 1
 131 488 l 0
 281 488 l 1
EndSplineSet
EndChar

StartChar: i
Encoding: 105 105 27
Width: 500
Flags: HW
LayerCount: 2
Fore
SplineSet
188 488 m 1
 306 488 l 0
 312 482 l 1
 312 300 l 1
 312 112 l 1
 375 112 l 1
 432 112 l 0
 438 106 l 1
 438 81 l 1
 438 56 l 1
 432 50 l 0
 250 50 l 1
 68 50 l 0
 62 56 l 1
 62 81 l 1
 62 106 l 1
 68 112 l 0
 125 112 l 1
 188 112 l 1
 188 269 l 1
 188 425 l 1
 125 425 l 1
 68 425 l 0
 62 431 l 1
 62 456 l 1
 62 482 l 1
 68 488 l 0
 188 488 l 1
250 675 m 1
 306 675 l 0
 312 669 l 1
 312 612 l 1
 312 556 l 1
 306 550 l 0
 250 550 l 1
 194 550 l 0
 188 556 l 1
 188 612 l 1
 188 669 l 1
 194 675 l 0
 250 675 l 1
EndSplineSet
EndChar

StartChar: g
Encoding: 103 103 28
Width: 500
Flags: HW
LayerCount: 2
Fore
SplineSet
281 488 m 1
 432 488 l 0
 438 482 l 1
 438 206 l 1
 438 -69 l 1
 432 -75 l 0
 406 -75 l 1
 381 -75 l 0
 375 -81 l 1
 375 -106 l 1
 375 -132 l 1
 369 -138 l 0
 219 -138 l 1
 68 -138 l 0
 62 -132 l 1
 62 -106 l 1
 62 -81 l 1
 69 -75 l 0
 188 -75 l 1
 306 -75 l 0
 312 -69 l 1
 312 -12 l 1
 312 44 l 1
 306 50 l 0
 219 50 l 1
 131 50 l 0
 125 56 l 1
 125 81 l 1
 125 105 l 1
 119 112 l 0
 94 112 l 1
 68 112 l 0
 62 118 l 1
 62 269 l 1
 62 419 l 1
 68 425 l 0
 94 425 l 1
 119 425 l 0
 125 431 l 1
 125 456 l 1
 125 482 l 1
 131 488 l 0
 281 488 l 1
250 425 m 1
 194 425 l 0
 188 419 l 1
 188 269 l 1
 188 118 l 1
 194 112 l 0
 250 112 l 1
 306 112 l 0
 312 118 l 1
 312 269 l 1
 312 419 l 1
 306 425 l 0
 250 425 l 1
EndSplineSet
EndChar

StartChar: at
Encoding: 64 64 29
Width: 500
Flags: HW
LayerCount: 2
Fore
SplineSet
239 612 m 1
 408 612 l 0
 414 606 l 1
 414 581 l 1
 414 556 l 1
 420 550 l 1
 445 550 l 0
 451 544 l 1
 451 345 l 1
 451 181 l 1
 445 175 l 0
 357 175 l 1
 245 175 l 0
 239 181 l 1
 239 206 l 1
 239 232 l 1
 233 238 l 0
 208 238 l 1
 183 238 l 0
 177 244 l 1
 177 347 l 1
 177 403 l 1
 183 409 l 0
 208 409 l 1
 233 409 l 0
 239 415 l 1
 239 441 l 1
 239 466 l 1
 245 472 l 0
 294 472 l 1
 351 472 l 0
 357 478 l 1
 357 524 l 1
 357 544 l 1
 351 550 l 0
 239 550 l 1
 144 550 l 0
 138 544 l 1
 138 331 l 1
 138 118 l 1
 144 112 l 0
 294 112 l 1
 445 112 l 0
 451 106 l 1
 451 81 l 1
 451 56 l 1
 445 50 l 0
 270 50 l 1
 87 50 l 0
 81 56 l 1
 81 81 l 1
 81 106 l 1
 75 112 l 1
 49 112 l 0
 43 118 l 1
 43 331 l 1
 43 544 l 0
 49 550 l 1
 75 550 l 1
 81 556 l 1
 81 581 l 1
 81 606 l 1
 87 612 l 0
 239 612 l 1
326 409 m 1
 300 409 l 0
 294 403 l 1
 294 347 l 1
 294 244 l 1
 300 238 l 0
 326 238 l 1
 351 238 l 0
 357 244 l 1
 357 347 l 1
 357 403 l 1
 351 409 l 0
 326 409 l 1
EndSplineSet
EndChar

StartChar: exclam
Encoding: 33 33 30
Width: 500
Flags: HW
LayerCount: 2
Fore
SplineSet
250 175 m 1
 307 175 l 1
 312 170 l 0
 312 112 l 1
 312 55 l 1
 307 50 l 0
 250 50 l 1
 193 50 l 1
 188 55 l 0
 188 112 l 1
 188 170 l 0
 193 175 l 1
 250 175 l 1
250 612 m 1
 307 612 l 1
 312 607 l 0
 312 581 l 1
 312 555 l 1
 317 550 l 0
 344 550 l 1
 370 550 l 0
 375 545 l 1
 375 456 l 1
 375 367 l 1
 370 362 l 0
 344 362 l 1
 317 362 l 0
 312 357 l 1
 312 300 l 1
 312 243 l 0
 307 238 l 1
 250 238 l 1
 193 238 l 1
 188 243 l 0
 188 300 l 1
 188 357 l 1
 183 362 l 0
 156 362 l 1
 130 362 l 1
 125 367 l 0
 125 456 l 1
 125 544 l 0
 131 550 l 1
 156 550 l 1
 183 550 l 0
 188 555 l 1
 188 581 l 1
 188 607 l 0
 193 612 l 1
 250 612 l 1
EndSplineSet
EndChar

StartChar: asciitilde
Encoding: 126 126 31
Width: 500
Flags: HW
LayerCount: 2
Fore
SplineSet
156 612 m 1
 244 612 l 0
 250 606 l 1
 250 581 l 1
 250 556 l 1
 256 550 l 0
 281 550 l 1
 305 550 l 0
 312 544 l 1
 312 519 l 1
 312 494 l 1
 318 488 l 0
 344 488 l 1
 369 488 l 0
 375 494 l 1
 375 519 l 1
 375 544 l 1
 381 550 l 0
 406 550 l 1
 432 550 l 0
 438 556 l 1
 438 581 l 1
 438 606 l 1
 444 612 l 0
 469 612 l 1
 494 612 l 0
 500 606 l 1
 500 550 l 1
 500 494 l 1
 494 488 l 0
 469 488 l 1
 444 488 l 0
 438 481 l 1
 438 456 l 1
 438 431 l 1
 432 425 l 0
 344 425 l 1
 256 425 l 0
 250 431 l 1
 250 456 l 1
 250 482 l 1
 244 488 l 0
 219 488 l 1
 194 488 l 0
 188 494 l 1
 188 519 l 1
 188 544 l 1
 182 550 l 0
 156 550 l 1
 131 550 l 0
 125 544 l 1
 125 519 l 1
 125 494 l 1
 119 488 l 0
 94 488 l 1
 68 488 l 0
 62 482 l 1
 62 456 l 1
 62 431 l 1
 56 425 l 0
 31 425 l 1
 6 425 l 0
 0 431 l 1
 0 488 l 1
 0 544 l 1
 6 550 l 0
 31 550 l 1
 56 550 l 0
 62 556 l 1
 62 581 l 1
 62 606 l 1
 68 612 l 0
 156 612 l 1
EndSplineSet
EndChar

StartChar: period
Encoding: 46 46 32
Width: 500
Flags: HW
LayerCount: 2
Fore
SplineSet
253 175 m 1
 341 175 l 0
 347 169 l 1
 347 112 l 1
 347 56 l 1
 341 50 l 0
 253 50 l 1
 166 50 l 1
 160 56 l 0
 160 112 l 1
 160 169 l 0
 166 175 l 1
 253 175 l 1
EndSplineSet
EndChar

StartChar: comma
Encoding: 44 44 33
Width: 500
Flags: HW
LayerCount: 2
Fore
SplineSet
281 175 m 1
 369 175 l 0
 375 169 l 1
 375 81 l 1
 375 -6 l 1
 369 -12 l 0
 344 -12 l 1
 318 -12 l 0
 312 -18 l 1
 312 -44 l 1
 312 -69 l 1
 306 -75 l 0
 250 -75 l 1
 194 -75 l 0
 188 -69 l 1
 188 -44 l 1
 188 -18 l 1
 194 -12 l 0
 219 -12 l 1
 244 -12 l 0
 250 -6 l 1
 250 19 l 1
 250 44 l 1
 244 50 l 0
 219 50 l 1
 194 50 l 0
 188 56 l 1
 188 112 l 1
 188 169 l 1
 194 175 l 0
 281 175 l 1
EndSplineSet
EndChar

StartChar: quotesingle
Encoding: 39 39 34
Width: 500
Flags: HW
LayerCount: 2
Fore
SplineSet
250 612 m 1
 306 612 l 0
 312 606 l 1
 312 519 l 1
 312 431 l 1
 306 425 l 0
 250 425 l 1
 194 425 l 0
 188 431 l 1
 188 519 l 1
 188 606 l 1
 194 612 l 0
 250 612 l 1
EndSplineSet
EndChar

StartChar: d
Encoding: 100 100 35
Width: 500
Flags: HW
LayerCount: 2
Fore
SplineSet
375 612 m 1
 432 612 l 0
 438 606 l 1
 438 331 l 1
 438 56 l 1
 432 50 l 0
 281 50 l 1
 131 50 l 0
 125 56 l 1
 125 81 l 1
 125 106 l 1
 119 112 l 0
 94 112 l 1
 68 112 l 0
 62 118 l 1
 62 269 l 1
 62 419 l 1
 68 425 l 0
 94 425 l 1
 119 425 l 0
 125 431 l 1
 125 456 l 1
 125 482 l 1
 131 488 l 0
 219 488 l 1
 306 488 l 0
 312 494 l 1
 312 550 l 1
 312 606 l 1
 318 612 l 0
 375 612 l 1
250 425 m 1
 194 425 l 0
 188 419 l 1
 188 269 l 1
 188 118 l 1
 194 112 l 0
 250 112 l 1
 306 112 l 0
 312 118 l 1
 312 269 l 1
 312 419 l 1
 306 425 l 0
 250 425 l 1
EndSplineSet
EndChar

StartChar: a
Encoding: 97 97 36
Width: 500
Flags: HW
LayerCount: 2
Fore
SplineSet
250 488 m 1
 369 488 l 0
 375 482 l 1
 375 456 l 1
 375 431 l 1
 381 425 l 0
 406 425 l 1
 432 425 l 0
 438 419 l 1
 438 238 l 1
 438 56 l 0
 432 50 l 1
 281 50 l 1
 131 50 l 1
 125 56 l 0
 125 81 l 1
 125 106 l 1
 119 112 l 0
 94 112 l 1
 68 112 l 0
 62 118 l 1
 62 175 l 1
 62 232 l 1
 68 238 l 0
 94 238 l 1
 119 238 l 0
 125 244 l 1
 125 269 l 1
 125 294 l 1
 131 300 l 0
 219 300 l 1
 306 300 l 1
 312 307 l 0
 312 362 l 1
 312 419 l 1
 306 425 l 0
 219 425 l 1
 131 425 l 1
 125 431 l 0
 125 456 l 1
 125 482 l 1
 131 488 l 0
 250 488 l 1
250 238 m 1
 194 238 l 1
 188 232 l 0
 188 175 l 1
 188 118 l 1
 194 112 l 0
 250 112 l 1
 306 112 l 1
 312 118 l 0
 312 175 l 1
 312 232 l 1
 306 238 l 0
 250 238 l 1
EndSplineSet
EndChar

StartChar: f
Encoding: 102 102 37
Width: 500
Flags: HW
LayerCount: 2
Fore
SplineSet
312 612 m 1
 432 612 l 0
 438 606 l 1
 438 581 l 1
 438 556 l 1
 432 550 l 0
 344 550 l 1
 256 550 l 0
 250 544 l 1
 250 456 l 1
 250 368 l 1
 256 362 l 0
 344 362 l 1
 432 362 l 0
 438 356 l 1
 438 331 l 1
 438 306 l 1
 432 300 l 0
 344 300 l 1
 256 300 l 0
 250 294 l 1
 250 175 l 1
 250 56 l 1
 244 50 l 0
 188 50 l 1
 131 50 l 0
 125 56 l 1
 125 175 l 1
 125 294 l 1
 118 300 l 0
 94 300 l 1
 68 300 l 0
 62 306 l 1
 62 331 l 1
 62 356 l 1
 68 362 l 0
 94 362 l 1
 119 362 l 0
 125 368 l 1
 125 456 l 1
 125 544 l 1
 131 550 l 0
 156 550 l 1
 182 550 l 0
 188 556 l 1
 188 581 l 1
 188 606 l 1
 194 612 l 0
 312 612 l 1
EndSplineSet
EndChar

StartChar: semicolon
Encoding: 59 59 38
Width: 497
Flags: HW
LayerCount: 2
Fore
SplineSet
281 175 m 1
 369 175 l 0
 375 169 l 1
 375 81 l 1
 375 -6 l 1
 369 -12 l 0
 344 -12 l 1
 318 -12 l 0
 312 -18 l 1
 312 -44 l 1
 312 -69 l 1
 306 -75 l 0
 250 -75 l 1
 194 -75 l 0
 188 -69 l 1
 188 -44 l 1
 188 -18 l 1
 194 -12 l 0
 219 -12 l 1
 244 -12 l 0
 250 -6 l 1
 250 19 l 1
 250 44 l 1
 244 50 l 0
 219 50 l 1
 194 50 l 0
 188 56 l 1
 188 112 l 1
 188 169 l 1
 194 175 l 0
 281 175 l 1
281 488 m 1
 369 488 l 0
 375 482 l 1
 375 425 l 1
 375 368 l 1
 369 362 l 0
 281 362 l 1
 194 362 l 0
 188 368 l 1
 188 425 l 1
 188 482 l 1
 194 488 l 0
 281 488 l 1
EndSplineSet
EndChar

StartChar: backslash
Encoding: 92 92 39
Width: 500
Flags: HW
LayerCount: 2
Fore
SplineSet
62 606 m 25
 68 612 l 25
 182 612 l 25
 188 606 l 25
 188 550 l 25
 438 50 l 25
 438 -6 l 25
 432 -12 l 25
 318 -12 l 25
 312 -6 l 25
 312 50 l 25
 62 550 l 25
 62 606 l 25
EndSplineSet
EndChar

StartChar: c
Encoding: 99 99 40
Width: 500
Flags: HW
LayerCount: 2
Fore
SplineSet
250 488 m 1
 369 488 l 0
 375 482 l 1
 375 456 l 1
 375 431 l 1
 382 425 l 0
 406 425 l 1
 432 425 l 0
 438 419 l 1
 438 394 l 1
 438 368 l 1
 432 362 l 0
 375 362 l 1
 318 362 l 0
 312 368 l 1
 312 394 l 1
 312 419 l 1
 305 425 l 0
 250 425 l 1
 194 425 l 0
 188 419 l 1
 188 269 l 1
 188 118 l 1
 194 112 l 0
 250 112 l 1
 305 112 l 0
 312 118 l 1
 312 144 l 1
 312 169 l 1
 318 175 l 0
 375 175 l 1
 432 175 l 0
 438 169 l 1
 438 144 l 1
 438 118 l 1
 432 112 l 0
 406 112 l 1
 381 112 l 0
 375 106 l 1
 375 81 l 1
 375 56 l 1
 369 50 l 0
 250 50 l 1
 131 50 l 0
 125 56 l 1
 125 81 l 1
 125 106 l 1
 119 112 l 0
 94 112 l 1
 68 112 l 0
 62 118 l 1
 62 269 l 1
 62 419 l 1
 68 425 l 0
 94 425 l 1
 119 425 l 0
 125 431 l 1
 125 456 l 1
 125 482 l 1
 131 488 l 0
 250 488 l 1
EndSplineSet
EndChar

StartChar: k
Encoding: 107 107 41
Width: 500
Flags: HW
LayerCount: 2
Fore
SplineSet
125 612 m 1
 182 612 l 0
 188 606 l 1
 188 456 l 1
 188 306 l 1
 194 300 l 0
 219 300 l 1
 244 300 l 0
 250 306 l 1
 250 331 l 1
 250 356 l 1
 256 362 l 0
 281 362 l 1
 306 362 l 0
 312 368 l 1
 312 425 l 1
 312 482 l 1
 318 488 l 0
 375 488 l 1
 432 488 l 0
 438 482 l 1
 438 425 l 1
 438 368 l 1
 432 362 l 0
 406 362 l 1
 381 362 l 1
 375 356 l 0
 375 331 l 1
 375 306 l 1
 369 300 l 0
 344 300 l 1
 318 300 l 0
 312 294 l 1
 312 269 l 1
 312 244 l 1
 318 238 l 0
 344 238 l 1
 369 238 l 0
 375 232 l 1
 375 206 l 1
 375 181 l 1
 381 175 l 0
 406 175 l 1
 432 175 l 0
 438 169 l 1
 438 112 l 1
 438 56 l 1
 432 50 l 0
 375 50 l 1
 318 50 l 0
 312 56 l 1
 312 112 l 1
 312 169 l 1
 306 175 l 0
 281 175 l 1
 256 175 l 0
 250 181 l 1
 250 206 l 1
 250 232 l 1
 244 238 l 0
 219 238 l 1
 194 238 l 0
 188 232 l 1
 188 144 l 1
 188 56 l 1
 182 50 l 0
 125 50 l 1
 68 50 l 0
 62 56 l 1
 62 331 l 1
 62 606 l 1
 68 612 l 0
 125 612 l 1
EndSplineSet
EndChar

StartChar: l
Encoding: 108 108 42
Width: 500
Flags: HW
LayerCount: 2
Fore
SplineSet
188 612 m 1
 306 612 l 0
 312 606 l 1
 312 362 l 1
 312 118 l 1
 318 112 l 0
 375 112 l 1
 432 112 l 0
 438 106 l 1
 438 81 l 1
 438 56 l 1
 432 50 l 0
 250 50 l 1
 68 50 l 0
 62 56 l 1
 62 81 l 1
 62 106 l 0
 68 112 l 1
 125 112 l 1
 182 112 l 0
 188 118 l 1
 188 331 l 1
 188 544 l 1
 182 550 l 0
 125 550 l 1
 68 550 l 1
 62 556 l 0
 62 581 l 1
 62 606 l 0
 68 612 l 1
 188 612 l 1
EndSplineSet
EndChar

StartChar: bracketright
Encoding: 93 93 43
Width: 500
Flags: HW
LayerCount: 2
Fore
SplineSet
250 612 m 1
 131 612 l 0
 125 606 l 1
 125 581 l 1
 125 556 l 0
 131 550 l 1
 188 550 l 1
 244 550 l 0
 250 544 l 1
 250 238 l 1
 250 -69 l 1
 244 -75 l 0
 188 -75 l 1
 131 -75 l 1
 125 -81 l 0
 125 -106 l 1
 125 -132 l 1
 131 -138 l 0
 250 -138 l 1
 369 -138 l 1
 375 -132 l 0
 375 238 l 1
 375 606 l 0
 369 612 l 1
 250 612 l 1
EndSplineSet
EndChar

StartChar: bracketleft
Encoding: 91 91 44
Width: 500
Flags: HW
LayerCount: 2
Fore
SplineSet
250 612 m 1
 369 612 l 0
 375 606 l 1
 375 581 l 1
 375 556 l 0
 369 550 l 1
 312 550 l 1
 256 550 l 0
 250 544 l 1
 250 238 l 1
 250 -69 l 1
 256 -75 l 0
 312 -75 l 1
 369 -75 l 1
 375 -81 l 0
 375 -106 l 1
 375 -132 l 1
 369 -138 l 0
 250 -138 l 1
 131 -138 l 1
 125 -132 l 0
 125 238 l 1
 125 606 l 0
 131 612 l 1
 250 612 l 1
EndSplineSet
EndChar

StartChar: grave
Encoding: 96 96 45
Width: 500
Flags: HW
LayerCount: 2
Fore
SplineSet
219 738 m 1
 306 738 l 0
 312 732 l 1
 312 675 l 1
 312 618 l 1
 318 612 l 0
 344 612 l 1
 369 612 l 0
 375 606 l 1
 375 581 l 1
 375 556 l 1
 369 550 l 0
 312 550 l 1
 256 550 l 0
 250 556 l 1
 250 581 l 1
 250 606 l 1
 244 612 l 0
 219 612 l 1
 194 612 l 0
 188 618 l 1
 188 644 l 1
 188 669 l 1
 182 675 l 0
 156 675 l 1
 131 675 l 0
 125 681 l 1
 125 706 l 1
 125 732 l 1
 131 738 l 0
 219 738 l 1
EndSplineSet
EndChar

StartChar: hyphen
Encoding: 45 45 46
Width: 500
Flags: HW
LayerCount: 2
Fore
SplineSet
250 362 m 1
 432 362 l 1
 438 356 l 0
 438 331 l 1
 438 306 l 1
 432 300 l 0
 250 300 l 1
 68 300 l 1
 62 306 l 0
 62 331 l 1
 62 356 l 0
 68 362 l 1
 250 362 l 1
EndSplineSet
EndChar

StartChar: one
Encoding: 49 49 47
Width: 500
Flags: HW
LayerCount: 2
Fore
SplineSet
312 612 m 1
 369 612 l 0
 375 606 l 1
 375 331 l 1
 375 56 l 0
 369 50 l 1
 312 50 l 1
 256 50 l 1
 250 56 l 0
 250 238 l 1
 250 419 l 1
 244 425 l 0
 156 425 l 1
 68 425 l 0
 62 431 l 1
 62 456 l 1
 62 482 l 1
 68 488 l 0
 125 488 l 1
 182 488 l 0
 188 494 l 1
 188 519 l 1
 188 544 l 1
 194 550 l 0
 219 550 l 1
 244 550 l 0
 250 556 l 1
 250 581 l 1
 250 606 l 0
 256 612 l 1
 312 612 l 1
EndSplineSet
EndChar

StartChar: two
Encoding: 50 50 48
Width: 500
Flags: HW
LayerCount: 2
Fore
SplineSet
250 612 m 1
 369 612 l 0
 375 606 l 1
 375 581 l 1
 375 556 l 1
 381 550 l 0
 406 550 l 1
 432 550 l 0
 438 544 l 1
 438 456 l 1
 438 368 l 1
 432 362 l 0
 406 362 l 1
 381 362 l 0
 375 356 l 1
 375 331 l 1
 375 306 l 1
 369 300 l 0
 344 300 l 1
 318 300 l 1
 312 294 l 0
 312 269 l 1
 312 244 l 1
 306 238 l 0
 281 238 l 1
 256 238 l 1
 250 232 l 0
 250 206 l 1
 250 181 l 1
 244 175 l 0
 219 175 l 1
 194 175 l 0
 188 169 l 1
 188 144 l 1
 188 118 l 1
 194 112 l 0
 312 112 l 1
 432 112 l 0
 438 106 l 1
 438 81 l 1
 438 56 l 0
 432 50 l 1
 250 50 l 1
 68 50 l 1
 62 56 l 0
 62 112 l 1
 62 169 l 1
 68 175 l 0
 94 175 l 1
 119 175 l 0
 125 181 l 1
 125 206 l 1
 125 232 l 0
 131 238 l 1
 156 238 l 1
 182 238 l 0
 188 244 l 1
 188 269 l 1
 188 294 l 1
 194 300 l 0
 219 300 l 1
 244 300 l 0
 250 306 l 1
 250 331 l 1
 250 356 l 0
 256 362 l 1
 281 362 l 1
 306 362 l 0
 312 368 l 1
 312 456 l 1
 312 544 l 1
 306 550 l 0
 250 550 l 1
 194 550 l 0
 188 544 l 1
 188 488 l 1
 188 431 l 1
 182 425 l 0
 125 425 l 1
 68 425 l 1
 62 431 l 0
 62 488 l 1
 62 544 l 1
 68 550 l 0
 94 550 l 1
 119 550 l 0
 125 556 l 1
 125 581 l 1
 125 606 l 0
 131 612 l 1
 250 612 l 1
EndSplineSet
EndChar

StartChar: three
Encoding: 51 51 49
Width: 500
Flags: HW
LayerCount: 2
Fore
SplineSet
250 612 m 1
 369 612 l 0
 375 606 l 1
 375 581 l 1
 375 556 l 1
 381 550 l 0
 406 550 l 1
 432 550 l 0
 438 544 l 1
 438 456 l 1
 438 368 l 1
 432 362 l 0
 406 362 l 1
 381 362 l 1
 375 356 l 0
 375 331 l 1
 375 306 l 1
 381 300 l 0
 406 300 l 1
 432 300 l 0
 438 294 l 1
 438 206 l 1
 438 118 l 1
 432 112 l 0
 406 112 l 1
 381 112 l 0
 375 106 l 1
 375 81 l 1
 375 56 l 1
 369 50 l 0
 250 50 l 1
 131 50 l 1
 125 56 l 0
 125 81 l 1
 125 106 l 1
 119 112 l 0
 94 112 l 1
 68 112 l 1
 62 118 l 0
 62 175 l 1
 62 232 l 0
 68 238 l 1
 125 238 l 1
 182 238 l 0
 188 232 l 1
 188 175 l 1
 188 118 l 1
 194 112 l 0
 250 112 l 1
 306 112 l 0
 312 118 l 1
 312 206 l 1
 312 294 l 1
 306 300 l 0
 250 300 l 1
 194 300 l 0
 188 306 l 1
 188 331 l 1
 188 356 l 0
 194 362 l 1
 250 362 l 1
 306 362 l 0
 312 368 l 1
 312 456 l 1
 312 544 l 1
 306 550 l 0
 250 550 l 1
 194 550 l 0
 188 544 l 1
 188 488 l 1
 188 431 l 1
 182 425 l 0
 125 425 l 1
 68 425 l 0
 62 431 l 1
 62 488 l 1
 62 544 l 0
 68 550 l 1
 94 550 l 1
 119 550 l 0
 125 556 l 1
 125 581 l 1
 125 606 l 0
 131 612 l 1
 250 612 l 1
EndSplineSet
EndChar

StartChar: four
Encoding: 52 52 50
Width: 500
Flags: HW
LayerCount: 2
Fore
SplineSet
165 612 m 1
 221 612 l 0
 227 606 l 1
 227 456 l 1
 227 306 l 1
 221 300 l 0
 196 300 l 1
 171 300 l 0
 165 294 l 1
 165 269 l 1
 165 244 l 1
 171 238 l 0
 227 238 l 1
 283 238 l 0
 289 244 l 1
 289 362 l 1
 289 482 l 0
 295 488 l 1
 352 488 l 1
 409 488 l 0
 415 482 l 1
 415 362 l 1
 415 238 l 1
 446 238 l 1
 471 238 l 1
 477 232 l 0
 477 206 l 1
 477 181 l 1
 471 175 l 0
 446 175 l 1
 415 175 l 1
 415 112 l 1
 415 56 l 1
 409 50 l 0
 352 50 l 1
 295 50 l 1
 289 56 l 0
 289 112 l 1
 289 169 l 1
 283 175 l 0
 165 175 l 1
 45 175 l 1
 39 181 l 0
 39 238 l 1
 39 294 l 1
 45 300 l 0
 71 300 l 1
 96 300 l 0
 102 306 l 1
 102 456 l 1
 102 606 l 0
 108 612 l 1
 165 612 l 1
EndSplineSet
EndChar

StartChar: five
Encoding: 53 53 51
Width: 500
Flags: HW
LayerCount: 2
Fore
SplineSet
250 612 m 1
 432 612 l 0
 438 606 l 1
 438 581 l 1
 438 556 l 1
 432 550 l 0
 312 550 l 1
 194 550 l 0
 188 544 l 1
 188 466 l 1
 188 431 l 1
 194 425 l 0
 281 425 l 1
 369 425 l 0
 375 419 l 1
 375 394 l 1
 375 369 l 1
 381 363 l 0
 406 363 l 1
 432 363 l 0
 438 357 l 1
 438 253 l 1
 438 181 l 1
 432 175 l 0
 406 175 l 1
 381 175 l 0
 375 169 l 1
 375 144 l 1
 375 118 l 0
 369 112 l 1
 344 112 l 1
 318 112 l 0
 312 106 l 1
 312 81 l 1
 312 56 l 1
 306 50 l 0
 188 50 l 1
 68 50 l 0
 62 56 l 1
 62 81 l 1
 62 106 l 1
 68 112 l 0
 156 112 l 1
 244 112 l 0
 250 118 l 1
 250 144 l 1
 250 169 l 0
 256 175 l 1
 281 175 l 1
 306 175 l 0
 312 181 l 1
 312 253 l 1
 312 357 l 1
 306 363 l 0
 188 363 l 1
 68 363 l 0
 62 369 l 1
 62 466 l 1
 62 606 l 0
 68 612 l 1
 250 612 l 1
EndSplineSet
EndChar

StartChar: six
Encoding: 54 54 52
Width: 500
Flags: HW
LayerCount: 2
Fore
SplineSet
281 612 m 1
 369 612 l 0
 375 606 l 1
 375 581 l 1
 375 556 l 0
 369 550 l 1
 344 550 l 1
 319 550 l 0
 312 544 l 1
 312 519 l 1
 312 494 l 1
 306 488 l 0
 281 488 l 1
 256 488 l 1
 250 482 l 0
 250 456 l 1
 250 431 l 1
 257 425 l 0
 312 425 l 1
 369 425 l 0
 375 419 l 1
 375 394 l 1
 375 368 l 1
 381 362 l 0
 406 362 l 1
 432 362 l 1
 438 355 l 0
 438 238 l 1
 438 118 l 0
 432 112 l 1
 406 112 l 1
 381 112 l 1
 375 106 l 0
 375 81 l 1
 375 56 l 1
 369 50 l 0
 250 50 l 1
 131 50 l 0
 125 56 l 1
 125 81 l 1
 125 106 l 1
 119 112 l 0
 94 112 l 1
 68 112 l 0
 62 118 l 1
 62 269 l 1
 62 419 l 1
 68 425 l 0
 94 425 l 1
 119 425 l 0
 125 431 l 1
 125 456 l 1
 125 482 l 1
 131 488 l 0
 156 488 l 1
 182 488 l 0
 188 494 l 1
 188 550 l 1
 188 606 l 1
 194 612 l 0
 281 612 l 1
250 362 m 1
 194 362 l 0
 188 356 l 1
 188 238 l 1
 188 118 l 1
 194 112 l 0
 250 112 l 1
 306 112 l 0
 312 118 l 1
 312 238 l 1
 312 356 l 1
 306 362 l 0
 250 362 l 1
EndSplineSet
EndChar

StartChar: seven
Encoding: 55 55 53
Width: 500
Flags: HW
LayerCount: 2
Fore
SplineSet
250 612 m 1
 432 612 l 0
 438 606 l 1
 438 550 l 1
 438 494 l 1
 432 488 l 0
 406 488 l 1
 381 488 l 0
 375 482 l 1
 375 425 l 1
 375 368 l 1
 369 362 l 0
 344 362 l 1
 318 362 l 0
 312 356 l 1
 312 300 l 1
 312 244 l 1
 306 238 l 0
 281 238 l 1
 256 238 l 0
 250 232 l 1
 250 144 l 1
 250 56 l 1
 244 50 l 0
 188 50 l 1
 131 50 l 0
 125 56 l 1
 125 144 l 1
 125 232 l 1
 131 238 l 0
 156 238 l 1
 182 238 l 0
 188 244 l 1
 188 300 l 1
 188 356 l 0
 194 362 l 1
 219 362 l 1
 244 362 l 0
 250 368 l 1
 250 425 l 1
 250 482 l 1
 256 488 l 0
 281 488 l 1
 306 488 l 0
 312 494 l 1
 312 519 l 1
 312 544 l 1
 306 550 l 0
 188 550 l 1
 68 550 l 0
 62 556 l 1
 62 581 l 1
 62 606 l 1
 68 612 l 0
 250 612 l 1
EndSplineSet
EndChar

StartChar: eight
Encoding: 56 56 54
Width: 500
Flags: HW
LayerCount: 2
Fore
SplineSet
250 612 m 1
 369 612 l 0
 375 606 l 1
 375 581 l 1
 375 556 l 1
 381 550 l 0
 406 550 l 1
 432 550 l 0
 438 544 l 1
 438 456 l 1
 438 368 l 1
 432 362 l 0
 406 362 l 1
 381 362 l 1
 375 356 l 0
 375 331 l 1
 375 306 l 1
 381 300 l 0
 406 300 l 1
 432 300 l 0
 438 294 l 1
 438 206 l 1
 438 118 l 1
 432 112 l 0
 406 112 l 1
 381 112 l 0
 375 106 l 1
 375 81 l 1
 375 56 l 1
 369 50 l 0
 250 50 l 1
 131 50 l 0
 125 56 l 1
 125 81 l 1
 125 106 l 1
 119 112 l 0
 94 112 l 1
 68 112 l 0
 62 118 l 1
 62 206 l 1
 62 294 l 1
 68 300 l 0
 94 300 l 1
 119 300 l 0
 125 306 l 1
 125 331 l 1
 125 356 l 1
 119 362 l 0
 94 362 l 1
 68 362 l 0
 62 368 l 1
 62 456 l 1
 62 544 l 1
 68 550 l 0
 94 550 l 1
 119 550 l 0
 125 556 l 1
 125 581 l 1
 125 606 l 1
 131 612 l 0
 250 612 l 1
250 550 m 1
 194 550 l 0
 188 544 l 1
 188 488 l 1
 188 431 l 1
 194 425 l 0
 219 425 l 1
 244 425 l 0
 250 419 l 1
 250 394 l 1
 250 368 l 1
 256 362 l 0
 281 362 l 1
 306 362 l 0
 312 368 l 1
 312 456 l 1
 312 544 l 1
 306 550 l 0
 250 550 l 1
219 300 m 1
 194 300 l 0
 188 294 l 1
 188 206 l 1
 188 118 l 1
 194 112 l 0
 250 112 l 1
 306 112 l 0
 312 118 l 1
 312 175 l 1
 312 232 l 1
 306 238 l 0
 281 238 l 1
 256 238 l 0
 250 244 l 1
 250 269 l 1
 250 294 l 1
 244 300 l 0
 219 300 l 1
EndSplineSet
EndChar

StartChar: nine
Encoding: 57 57 55
Width: 500
Flags: HW
LayerCount: 2
Fore
SplineSet
250 612 m 1
 369 612 l 0
 375 606 l 1
 375 581 l 1
 375 556 l 1
 381 550 l 0
 406 550 l 1
 432 550 l 0
 438 544 l 1
 438 394 l 1
 438 244 l 1
 432 238 l 0
 406 238 l 1
 381 238 l 0
 375 232 l 1
 375 206 l 1
 375 181 l 1
 369 175 l 0
 344 175 l 1
 318 175 l 0
 312 169 l 1
 312 112 l 1
 312 56 l 1
 306 50 l 0
 219 50 l 1
 131 50 l 0
 125 56 l 1
 125 81 l 1
 125 106 l 1
 131 112 l 0
 156 112 l 1
 182 112 l 0
 188 118 l 1
 188 144 l 1
 188 169 l 1
 194 175 l 0
 219 175 l 1
 244 175 l 0
 250 181 l 1
 250 206 l 1
 250 232 l 1
 244 238 l 0
 188 238 l 1
 131 238 l 0
 125 244 l 1
 125 269 l 1
 125 294 l 1
 119 300 l 0
 94 300 l 1
 68 300 l 0
 62 306 l 1
 62 425 l 1
 62 544 l 1
 68 550 l 0
 94 550 l 1
 119 550 l 0
 125 556 l 1
 125 581 l 1
 125 606 l 0
 131 612 l 1
 250 612 l 1
250 550 m 1
 194 550 l 1
 188 544 l 0
 188 425 l 1
 188 306 l 1
 194 300 l 0
 250 300 l 1
 305 300 l 0
 312 306 l 1
 312 425 l 1
 312 544 l 1
 306 550 l 0
 250 550 l 1
EndSplineSet
EndChar

StartChar: zero
Encoding: 48 48 56
Width: 500
Flags: HW
LayerCount: 2
Fore
SplineSet
248 612 m 1
 368 612 l 1
 374 606 l 0
 374 581 l 1
 374 556 l 1
 380 550 l 0
 405 550 l 1
 430 550 l 1
 436 544 l 0
 436 331 l 1
 436 118 l 0
 430 112 l 1
 405 112 l 1
 380 112 l 0
 374 106 l 1
 374 81 l 1
 374 56 l 0
 368 50 l 1
 248 50 l 1
 130 50 l 1
 124 56 l 0
 124 81 l 1
 124 106 l 1
 118 112 l 0
 92 112 l 1
 67 112 l 1
 61 118 l 0
 61 331 l 1
 61 544 l 1
 67 550 l 0
 92 550 l 1
 118 550 l 0
 124 556 l 1
 124 581 l 1
 124 606 l 0
 130 612 l 1
 248 612 l 1
248 550 m 1
 192 550 l 0
 186 544 l 1
 186 425 l 1
 186 306 l 1
 192 300 l 0
 217 300 l 1
 242 300 l 0
 248 294 l 1
 248 285 l 0
 248 238 l 1
 248 181 l 0
 242 175 l 1
 217 175 l 1
 192 175 l 1
 186 169 l 0
 186 144 l 1
 186 118 l 1
 192 112 l 0
 248 112 l 1
 305 112 l 0
 311 118 l 1
 311 238 l 1
 311 355 l 1
 303 362 l 0
 280 362 l 1
 255 362 l 0
 247 369 l 1
 248 425 l 1
 248 482 l 0
 254 488 l 1
 280 488 l 1
 305 488 l 0
 311 494 l 1
 311 519 l 1
 311 544 l 0
 305 550 l 1
 248 550 l 1
EndSplineSet
EndChar

StartChar: j
Encoding: 106 106 57
Width: 500
Flags: HW
LayerCount: 2
Fore
SplineSet
250 488 m 1
 370 488 l 0
 375 483 l 1
 375 206 l 1
 375 -70 l 0
 370 -75 l 1
 344 -75 l 1
 317 -75 l 1
 312 -80 l 0
 312 -106 l 1
 312 -133 l 0
 307 -138 l 1
 188 -138 l 1
 67 -138 l 0
 62 -133 l 1
 62 -106 l 1
 62 -80 l 0
 67 -75 l 1
 156 -75 l 1
 245 -75 l 0
 250 -70 l 1
 250 175 l 1
 250 420 l 1
 245 425 l 0
 188 425 l 1
 130 425 l 1
 125 430 l 0
 125 456 l 1
 125 483 l 0
 130 488 l 1
 250 488 l 1
312 675 m 1
 370 675 l 0
 375 670 l 1
 375 612 l 1
 375 555 l 0
 370 550 l 1
 312 550 l 1
 255 550 l 0
 250 555 l 1
 250 612 l 1
 250 670 l 0
 255 675 l 1
 312 675 l 1
EndSplineSet
EndChar

StartChar: o
Encoding: 111 111 58
Width: 500
Flags: HW
LayerCount: 2
Fore
SplineSet
250 488 m 1
 369 488 l 0
 375 482 l 1
 375 456 l 1
 375 431 l 1
 380 425 l 0
 406 425 l 1
 432 425 l 0
 438 419 l 1
 438 269 l 1
 438 118 l 1
 432 112 l 0
 406 112 l 1
 381 112 l 0
 375 106 l 1
 375 81 l 1
 375 56 l 1
 369 50 l 0
 250 50 l 1
 131 50 l 0
 125 56 l 1
 125 81 l 1
 125 106 l 1
 119 112 l 0
 94 112 l 1
 68 112 l 0
 62 118 l 1
 62 269 l 1
 62 419 l 1
 68 425 l 0
 94 425 l 1
 119 425 l 0
 125 431 l 1
 125 456 l 1
 125 482 l 1
 131 488 l 0
 250 488 l 1
250 425 m 1
 194 425 l 0
 188 419 l 1
 188 269 l 1
 188 118 l 1
 194 112 l 0
 250 112 l 1
 306 112 l 0
 312 118 l 1
 312 269 l 1
 312 419 l 1
 306 425 l 0
 250 425 l 1
EndSplineSet
EndChar

StartChar: p
Encoding: 112 112 59
Width: 500
Flags: HW
LayerCount: 2
Fore
SplineSet
219 488 m 1
 369 488 l 0
 375 482 l 1
 375 456 l 1
 375 431 l 1
 381 425 l 0
 406 425 l 1
 432 425 l 0
 438 419 l 1
 438 269 l 1
 438 118 l 1
 432 112 l 0
 406 112 l 1
 381 112 l 0
 375 106 l 1
 375 81 l 1
 375 56 l 1
 369 50 l 0
 281 50 l 1
 194 50 l 0
 188 44 l 1
 188 -44 l 1
 188 -132 l 1
 182 -138 l 0
 125 -138 l 1
 68 -138 l 0
 62 -132 l 1
 62 175 l 1
 62 482 l 1
 68 488 l 0
 219 488 l 1
250 425 m 1
 194 425 l 0
 188 419 l 1
 188 269 l 1
 188 118 l 1
 194 112 l 0
 250 112 l 1
 306 112 l 0
 312 118 l 1
 312 269 l 1
 312 419 l 1
 306 425 l 0
 250 425 l 1
EndSplineSet
EndChar

StartChar: q
Encoding: 113 113 60
Width: 500
Flags: HW
LayerCount: 2
Fore
SplineSet
281 488 m 1
 432 488 l 0
 438 482 l 1
 438 175 l 1
 438 -132 l 1
 432 -138 l 0
 375 -138 l 1
 318 -138 l 0
 312 -132 l 1
 312 -44 l 1
 312 44 l 1
 306 50 l 0
 219 50 l 1
 131 50 l 0
 125 56 l 1
 125 81 l 1
 125 106 l 1
 119 112 l 0
 94 112 l 1
 68 112 l 0
 62 118 l 1
 62 269 l 1
 62 419 l 1
 68 425 l 0
 94 425 l 1
 119 425 l 0
 125 431 l 1
 125 456 l 1
 125 482 l 1
 131 488 l 0
 281 488 l 1
250 425 m 1
 194 425 l 0
 188 419 l 1
 188 269 l 1
 188 118 l 1
 195 112 l 0
 250 112 l 1
 306 112 l 0
 312 118 l 1
 312 269 l 1
 312 419 l 1
 306 425 l 0
 250 425 l 1
EndSplineSet
EndChar

StartChar: t
Encoding: 116 116 61
Width: 500
Flags: HW
LayerCount: 2
Fore
SplineSet
188 612 m 1
 244 612 l 0
 250 606 l 1
 250 550 l 1
 250 494 l 1
 255 488 l 0
 344 488 l 1
 432 488 l 0
 438 482 l 1
 438 456 l 1
 438 431 l 1
 432 425 l 0
 344 425 l 1
 256 425 l 0
 250 419 l 1
 250 269 l 1
 250 118 l 1
 256 112 l 0
 344 112 l 1
 432 112 l 0
 438 106 l 1
 438 81 l 1
 438 56 l 1
 432 50 l 0
 312 50 l 1
 194 50 l 0
 188 56 l 1
 188 81 l 1
 188 106 l 1
 182 112 l 0
 156 112 l 1
 131 112 l 0
 125 118 l 1
 125 269 l 1
 125 419 l 1
 119 425 l 0
 94 425 l 1
 68 425 l 0
 62 431 l 1
 62 456 l 1
 62 482 l 1
 68 488 l 0
 94 488 l 1
 120 488 l 0
 125 494 l 1
 125 550 l 1
 125 606 l 1
 131 612 l 0
 188 612 l 1
EndSplineSet
EndChar

StartChar: v
Encoding: 118 118 62
Width: 500
Flags: HW
LayerCount: 2
Fore
SplineSet
125 488 m 1
 182 488 l 0
 188 482 l 1
 188 331 l 1
 188 181 l 1
 194 175 l 0
 250 175 l 1
 306 175 l 0
 312 181 l 1
 312 331 l 1
 312 482 l 1
 318 488 l 0
 375 488 l 1
 432 488 l 0
 438 482 l 1
 438 331 l 1
 438 181 l 1
 432 175 l 0
 406 175 l 1
 381 175 l 0
 375 169 l 1
 375 144 l 1
 375 118 l 1
 369 112 l 0
 344 112 l 1
 318 112 l 0
 312 106 l 1
 312 81 l 1
 312 56 l 1
 306 50 l 0
 250 50 l 1
 194 50 l 0
 188 56 l 1
 188 81 l 1
 188 106 l 1
 182 112 l 0
 156 112 l 1
 131 112 l 0
 125 118 l 1
 125 144 l 1
 125 169 l 1
 119 175 l 0
 94 175 l 1
 68 175 l 0
 62 181 l 1
 62 331 l 1
 62 482 l 1
 68 488 l 0
 125 488 l 1
EndSplineSet
EndChar

StartChar: w
Encoding: 119 119 63
Width: 500
Flags: HW
LayerCount: 2
Fore
SplineSet
95 488 m 1
 152 488 l 0
 158 482 l 1
 158 331 l 1
 158 181 l 1
 165 175 l 0
 183 175 l 1
 214 175 l 1
 220 181 l 0
 220 300 l 1
 220 419 l 1
 226 425 l 0
 251 425 l 1
 276 425 l 0
 282 419 l 1
 282 300 l 1
 282 181 l 0
 288 175 l 1
 320 175 l 1
 339 175 l 0
 345 181 l 1
 345 331 l 1
 345 482 l 0
 351 488 l 1
 408 488 l 1
 464 488 l 0
 470 482 l 1
 470 331 l 1
 470 181 l 1
 464 175 l 0
 439 175 l 1
 414 175 l 0
 408 169 l 1
 408 112 l 1
 408 56 l 1
 402 50 l 0
 345 50 l 1
 288 50 l 0
 282 56 l 1
 282 112 l 1
 282 169 l 1
 276 175 l 0
 251 175 l 1
 226 175 l 0
 220 169 l 1
 220 106 l 1
 220 56 l 1
 214 50 l 0
 158 50 l 1
 101 50 l 0
 95 56 l 1
 95 112 l 1
 95 169 l 1
 89 175 l 0
 64 175 l 1
 38 175 l 0
 32 181 l 1
 32 331 l 1
 32 482 l 0
 38 488 l 1
 95 488 l 1
EndSplineSet
EndChar

StartChar: x
Encoding: 120 120 64
Width: 500
Flags: HW
LayerCount: 2
Fore
SplineSet
125 488 m 1
 182 488 l 0
 188 482 l 1
 188 425 l 1
 188 368 l 1
 194 362 l 0
 250 362 l 1
 306 362 l 0
 312 368 l 1
 312 425 l 1
 312 482 l 0
 318 488 l 1
 375 488 l 1
 432 488 l 0
 438 482 l 1
 438 425 l 1
 438 368 l 0
 432 362 l 1
 406 362 l 1
 381 362 l 1
 375 356 l 0
 375 331 l 1
 375 306 l 1
 369 300 l 0
 344 300 l 1
 318 300 l 0
 312 294 l 1
 312 269 l 1
 312 244 l 1
 318 238 l 0
 344 238 l 1
 369 238 l 0
 375 232 l 1
 375 206 l 1
 375 181 l 1
 381 175 l 0
 406 175 l 1
 432 175 l 0
 438 169 l 1
 438 112 l 1
 438 56 l 1
 432 50 l 0
 375 50 l 1
 318 50 l 0
 312 56 l 1
 312 112 l 1
 312 169 l 1
 306 175 l 0
 250 175 l 1
 194 175 l 0
 188 169 l 1
 188 112 l 1
 188 56 l 1
 182 50 l 0
 125 50 l 1
 68 50 l 0
 62 56 l 1
 62 112 l 1
 62 169 l 1
 68 175 l 0
 94 175 l 1
 119 175 l 0
 125 181 l 1
 125 206 l 1
 125 232 l 1
 131 238 l 0
 156 238 l 1
 182 238 l 0
 188 244 l 1
 188 269 l 1
 188 294 l 1
 182 300 l 0
 156 300 l 1
 131 300 l 0
 125 306 l 1
 125 331 l 1
 125 356 l 1
 119 362 l 0
 94 362 l 1
 68 362 l 0
 62 368 l 1
 62 425 l 1
 62 482 l 0
 68 488 l 1
 125 488 l 1
EndSplineSet
EndChar

StartChar: y
Encoding: 121 121 65
Width: 500
Flags: HW
LayerCount: 2
Fore
SplineSet
125 488 m 1
 182 488 l 0
 188 482 l 1
 188 300 l 1
 188 118 l 1
 194 112 l 0
 250 112 l 1
 306 112 l 0
 312 118 l 1
 312 300 l 1
 312 482 l 1
 319 488 l 0
 375 488 l 1
 432 488 l 0
 438 482 l 1
 438 300 l 1
 438 118 l 1
 432 112 l 0
 406 112 l 1
 381 112 l 0
 375 106 l 1
 375 50 l 1
 375 -6 l 1
 369 -12 l 0
 344 -12 l 1
 318 -12 l 0
 312 -18 l 1
 312 -44 l 1
 312 -69 l 1
 306 -75 l 0
 281 -75 l 1
 256 -75 l 0
 250 -81 l 1
 250 -106 l 1
 250 -132 l 1
 244 -138 l 0
 125 -138 l 1
 6 -138 l 0
 0 -132 l 1
 0 -106 l 1
 0 -81 l 1
 7 -75 l 0
 94 -75 l 1
 182 -75 l 0
 188 -69 l 1
 188 -44 l 1
 188 -18 l 1
 194 -12 l 0
 219 -12 l 1
 244 -12 l 0
 250 -6 l 1
 250 19 l 1
 250 44 l 1
 244 50 l 0
 188 50 l 1
 131 50 l 0
 125 56 l 1
 125 81 l 1
 125 106 l 1
 119 112 l 0
 94 112 l 1
 68 112 l 0
 62 118 l 1
 62 300 l 1
 62 482 l 1
 68 488 l 0
 125 488 l 1
EndSplineSet
EndChar

StartChar: z
Encoding: 122 122 66
Width: 500
Flags: HW
LayerCount: 2
Fore
SplineSet
250 488 m 1
 432 488 l 0
 438 482 l 1
 438 425 l 1
 438 368 l 1
 432 362 l 0
 406 362 l 1
 381 362 l 0
 375 356 l 1
 375 331 l 1
 375 306 l 1
 369 300 l 0
 344 300 l 1
 318 300 l 0
 312 294 l 1
 312 269 l 1
 312 244 l 1
 306 238 l 0
 281 238 l 1
 256 238 l 0
 250 232 l 1
 250 206 l 1
 250 181 l 1
 244 175 l 0
 219 175 l 1
 194 175 l 0
 188 169 l 1
 188 144 l 1
 188 118 l 1
 194 112 l 0
 312 112 l 1
 432 112 l 0
 438 106 l 1
 438 81 l 1
 438 56 l 1
 432 50 l 0
 250 50 l 1
 68 50 l 0
 62 56 l 1
 62 112 l 1
 62 169 l 1
 68 175 l 0
 94 175 l 1
 119 175 l 0
 125 181 l 1
 125 206 l 1
 125 232 l 1
 131 238 l 0
 156 238 l 1
 182 238 l 0
 188 244 l 1
 188 269 l 1
 188 294 l 1
 194 300 l 0
 219 300 l 1
 244 300 l 0
 250 306 l 1
 250 331 l 1
 250 356 l 1
 256 362 l 0
 281 362 l 1
 306 362 l 0
 312 368 l 1
 312 394 l 1
 312 419 l 1
 306 425 l 0
 188 425 l 1
 68 425 l 0
 62 431 l 1
 62 456 l 1
 62 482 l 1
 68 488 l 0
 250 488 l 1
EndSplineSet
EndChar

StartChar: h
Encoding: 104 104 67
Width: 500
Flags: HW
LayerCount: 2
Fore
SplineSet
125 612 m 1
 182 612 l 0
 188 606 l 1
 188 550 l 1
 188 494 l 1
 194 488 l 0
 281 488 l 1
 369 488 l 1
 375 482 l 0
 375 456 l 1
 375 431 l 1
 381 425 l 0
 406 425 l 1
 432 425 l 0
 438 419 l 1
 438 238 l 1
 438 56 l 1
 432 50 l 0
 375 50 l 1
 318 50 l 0
 312 56 l 1
 312 238 l 1
 312 419 l 1
 306 425 l 0
 250 425 l 1
 194 425 l 0
 188 419 l 1
 188 238 l 1
 188 56 l 1
 182 50 l 0
 125 50 l 1
 68 50 l 1
 62 56 l 0
 62 331 l 1
 62 606 l 0
 68 612 l 1
 125 612 l 1
EndSplineSet
EndChar

StartChar: Q
Encoding: 81 81 68
Width: 500
Flags: HW
LayerCount: 2
Fore
SplineSet
250 612 m 1
 369 612 l 0
 375 606 l 1
 375 581 l 1
 375 556 l 1
 381 550 l 0
 406 550 l 1
 432 550 l 0
 438 544 l 1
 438 331 l 1
 438 118 l 1
 432 112 l 0
 406 112 l 1
 381 112 l 0
 375 106 l 1
 375 50 l 1
 375 -6 l 1
 381 -12 l 0
 406 -12 l 1
 432 -12 l 0
 438 -18 l 1
 438 -44 l 1
 438 -69 l 1
 432 -75 l 0
 375 -75 l 1
 318 -75 l 0
 312 -69 l 1
 312 -44 l 1
 312 -18 l 1
 306 -12 l 0
 281 -12 l 1
 256 -12 l 0
 250 -6 l 1
 250 19 l 1
 250 44 l 1
 244 50 l 0
 188 50 l 1
 131 50 l 0
 125 56 l 1
 125 81 l 1
 125 106 l 1
 119 112 l 0
 94 112 l 1
 68 112 l 0
 62 118 l 1
 62 331 l 1
 62 544 l 1
 68 550 l 0
 94 550 l 1
 119 550 l 0
 125 556 l 1
 125 581 l 1
 125 606 l 1
 131 612 l 0
 250 612 l 1
250 550 m 1
 194 550 l 0
 188 544 l 1
 188 331 l 1
 188 118 l 1
 194 112 l 0
 250 112 l 1
 306 112 l 0
 312 118 l 1
 312 331 l 1
 312 544 l 1
 306 550 l 0
 250 550 l 1
EndSplineSet
EndChar

StartChar: R
Encoding: 82 82 69
Width: 500
Flags: HW
LayerCount: 2
Fore
SplineSet
219 612 m 1
 369 612 l 0
 375 606 l 1
 375 581 l 1
 375 556 l 1
 381 550 l 0
 406 550 l 1
 432 550 l 0
 438 544 l 1
 438 456 l 1
 438 368 l 1
 432 362 l 0
 406 362 l 1
 381 362 l 0
 375 356 l 1
 375 300 l 1
 375 244 l 1
 381 238 l 0
 406 238 l 1
 432 238 l 0
 438 232 l 1
 438 144 l 1
 438 56 l 1
 432 50 l 0
 375 50 l 1
 318 50 l 0
 312 56 l 1
 312 144 l 1
 312 232 l 1
 307 238 l 0
 281 238 l 1
 256 238 l 0
 250 244 l 1
 250 269 l 1
 250 294 l 1
 244 300 l 0
 219 300 l 1
 194 300 l 0
 188 294 l 1
 188 175 l 1
 188 56 l 1
 182 50 l 0
 125 50 l 1
 68 50 l 0
 62 56 l 1
 62 331 l 1
 62 606 l 1
 68 612 l 0
 219 612 l 1
250 550 m 1
 194 550 l 0
 188 544 l 1
 188 456 l 1
 188 368 l 1
 194 362 l 0
 250 362 l 1
 306 362 l 0
 312 368 l 1
 312 456 l 1
 312 544 l 1
 306 550 l 0
 250 550 l 1
EndSplineSet
EndChar

StartChar: S
Encoding: 83 83 70
Width: 500
Flags: HW
LayerCount: 2
Fore
SplineSet
250 612 m 1
 369 612 l 0
 375 606 l 1
 375 581 l 1
 375 556 l 1
 381 550 l 0
 406 550 l 1
 432 550 l 0
 438 544 l 1
 438 519 l 1
 438 494 l 1
 432 488 l 0
 375 488 l 1
 318 488 l 0
 312 494 l 1
 312 519 l 1
 312 544 l 1
 306 550 l 0
 250 550 l 1
 194 550 l 0
 188 544 l 1
 188 488 l 1
 188 431 l 1
 194 425 l 0
 219 425 l 1
 244 425 l 0
 250 419 l 1
 250 394 l 1
 250 368 l 1
 256 362 l 0
 281 362 l 1
 306 362 l 0
 312 356 l 1
 312 331 l 1
 312 306 l 1
 318 300 l 0
 344 300 l 1
 369 300 l 0
 375 294 l 1
 375 269 l 1
 375 244 l 1
 381 238 l 0
 406 238 l 1
 432 238 l 0
 438 232 l 1
 438 175 l 1
 438 118 l 1
 432 112 l 0
 406 112 l 1
 381 112 l 0
 375 106 l 1
 375 81 l 1
 375 56 l 1
 369 50 l 0
 250 50 l 1
 131 50 l 0
 125 56 l 1
 125 81 l 1
 125 106 l 1
 119 112 l 0
 94 112 l 1
 68 112 l 0
 62 118 l 1
 62 144 l 1
 62 169 l 1
 68 175 l 0
 125 175 l 1
 182 175 l 0
 188 169 l 1
 188 144 l 1
 188 118 l 1
 194 112 l 0
 250 112 l 1
 306 112 l 0
 312 118 l 1
 312 175 l 1
 312 232 l 1
 306 238 l 0
 281 238 l 1
 256 238 l 0
 250 244 l 1
 250 269 l 1
 250 294 l 1
 244 300 l 0
 219 300 l 1
 194 300 l 0
 188 306 l 1
 188 331 l 1
 188 356 l 1
 182 362 l 0
 156 362 l 1
 131 362 l 0
 125 368 l 1
 125 394 l 1
 125 419 l 1
 119 425 l 0
 94 425 l 1
 68 425 l 0
 62 431 l 1
 62 488 l 1
 62 544 l 1
 68 550 l 0
 94 550 l 1
 119 550 l 0
 125 556 l 1
 125 581 l 1
 125 606 l 0
 131 612 l 1
 250 612 l 1
EndSplineSet
EndChar

StartChar: T
Encoding: 84 84 71
Width: 500
Flags: HW
LayerCount: 2
Fore
SplineSet
250 612 m 1
 432 612 l 0
 438 606 l 1
 438 581 l 1
 438 556 l 0
 432 550 l 1
 375 550 l 1
 318 550 l 0
 312 544 l 1
 312 300 l 1
 312 56 l 0
 306 50 l 1
 250 50 l 1
 194 50 l 0
 188 56 l 1
 188 300 l 1
 188 544 l 0
 182 550 l 1
 125 550 l 1
 68 550 l 0
 62 556 l 1
 62 581 l 1
 62 606 l 0
 68 612 l 1
 250 612 l 1
EndSplineSet
EndChar

StartChar: U
Encoding: 85 85 72
Width: 500
Flags: HW
LayerCount: 2
Fore
SplineSet
125 612 m 1
 182 612 l 0
 188 606 l 1
 188 362 l 1
 188 118 l 1
 194 112 l 0
 250 112 l 1
 306 112 l 0
 312 118 l 1
 312 362 l 1
 312 606 l 1
 318 612 l 0
 375 612 l 1
 432 612 l 0
 438 606 l 1
 438 362 l 1
 438 118 l 1
 432 112 l 0
 406 112 l 1
 381 112 l 0
 375 106 l 1
 375 81 l 1
 375 56 l 1
 369 50 l 0
 250 50 l 1
 131 50 l 0
 125 56 l 1
 125 81 l 1
 125 106 l 1
 119 112 l 0
 94 112 l 1
 68 112 l 0
 62 118 l 1
 62 362 l 1
 62 606 l 1
 68 612 l 0
 125 612 l 1
EndSplineSet
EndChar

StartChar: V
Encoding: 86 86 73
Width: 500
Flags: HW
LayerCount: 2
Fore
SplineSet
125 612 m 1
 182 612 l 0
 188 606 l 1
 188 394 l 1
 188 181 l 1
 194 175 l 0
 250 175 l 1
 306 175 l 0
 312 181 l 1
 312 394 l 1
 312 606 l 1
 318 612 l 0
 375 612 l 1
 432 612 l 0
 438 606 l 1
 438 394 l 1
 438 181 l 1
 432 175 l 0
 406 175 l 1
 381 175 l 0
 375 169 l 1
 375 144 l 1
 375 118 l 1
 369 112 l 0
 344 112 l 1
 318 112 l 0
 312 106 l 1
 312 81 l 1
 312 56 l 1
 306 50 l 0
 250 50 l 1
 194 50 l 0
 188 56 l 1
 188 81 l 1
 188 106 l 1
 182 112 l 0
 156 112 l 1
 131 112 l 0
 125 118 l 1
 125 144 l 1
 125 169 l 1
 119 175 l 0
 94 175 l 1
 68 175 l 0
 62 181 l 1
 62 394 l 1
 62 606 l 1
 68 612 l 0
 125 612 l 1
EndSplineSet
EndChar

StartChar: W
Encoding: 87 87 74
Width: 500
Flags: HW
LayerCount: 2
Fore
SplineSet
94 612 m 1
 151 612 l 0
 157 606 l 1
 157 425 l 1
 157 244 l 1
 163 238 l 0
 182 238 l 1
 213 238 l 1
 219 244 l 0
 219 331 l 1
 219 419 l 1
 225 425 l 0
 250 425 l 1
 275 425 l 0
 281 419 l 1
 281 331 l 1
 281 244 l 0
 287 238 l 1
 319 238 l 1
 338 238 l 0
 344 244 l 1
 344 425 l 1
 344 606 l 0
 350 612 l 1
 407 612 l 1
 463 612 l 0
 469 606 l 1
 469 425 l 1
 469 244 l 1
 463 238 l 0
 438 238 l 1
 413 238 l 0
 407 232 l 1
 407 144 l 1
 407 56 l 1
 401 50 l 0
 344 50 l 1
 287 50 l 0
 281 56 l 1
 281 144 l 1
 281 232 l 1
 275 238 l 0
 250 238 l 1
 225 238 l 0
 219 232 l 1
 219 144 l 1
 219 56 l 1
 213 50 l 0
 157 50 l 1
 100 50 l 0
 94 56 l 1
 94 144 l 1
 94 232 l 1
 88 238 l 0
 63 238 l 1
 37 238 l 0
 31 244 l 1
 31 425 l 1
 31 606 l 0
 37 612 l 1
 94 612 l 1
EndSplineSet
EndChar

StartChar: X
Encoding: 88 88 75
Width: 500
Flags: HW
LayerCount: 2
Fore
SplineSet
125 612 m 1
 182 612 l 0
 188 606 l 1
 188 550 l 1
 188 494 l 1
 194 488 l 0
 219 488 l 1
 244 488 l 0
 250 482 l 1
 250 456 l 1
 250 431 l 1
 256 425 l 0
 281 425 l 1
 300 425 l 0
 312 437 l 1
 312 519 l 1
 312 606 l 0
 318 612 l 1
 375 612 l 1
 432 612 l 0
 438 606 l 1
 438 550 l 1
 438 494 l 1
 432 488 l 0
 406 488 l 1
 382 488 l 0
 375 482 l 1
 375 456 l 1
 375 431 l 1
 369 425 l 0
 344 425 l 1
 325 425 l 0
 312 412 l 1
 312 355 l 1
 312 306 l 1
 318 300 l 0
 344 300 l 1
 369 300 l 0
 375 293 l 1
 375 269 l 1
 375 244 l 1
 381 238 l 0
 406 238 l 1
 432 238 l 0
 438 232 l 1
 438 144 l 1
 438 56 l 1
 432 50 l 0
 375 50 l 1
 318 50 l 0
 312 56 l 1
 312 144 l 1
 312 232 l 1
 306 238 l 0
 281 238 l 1
 253 238 l 0
 250 238 l 1
 250 269 l 1
 250 293 l 1
 244 300 l 0
 219 300 l 1
 200 300 l 0
 188 288 l 1
 188 169 l 1
 188 56 l 1
 182 50 l 0
 125 50 l 1
 68 50 l 0
 62 56 l 1
 62 144 l 1
 62 232 l 1
 68 238 l 0
 94 238 l 1
 119 238 l 0
 125 244 l 1
 125 269 l 1
 125 294 l 1
 131 300 l 0
 156 300 l 1
 176 300 l 0
 188 312 l 1
 188 362 l 1
 188 419 l 1
 182 425 l 0
 156 425 l 1
 131 425 l 0
 125 431 l 1
 125 456 l 1
 125 482 l 1
 119 488 l 0
 94 488 l 1
 68 488 l 0
 62 494 l 1
 62 550 l 1
 62 606 l 1
 68 612 l 0
 125 612 l 1
EndSplineSet
EndChar

StartChar: Y
Encoding: 89 89 76
Width: 500
Flags: HW
LayerCount: 2
Fore
SplineSet
125 612 m 1
 182 612 l 0
 188 606 l 1
 188 488 l 1
 188 368 l 1
 194 362 l 0
 250 362 l 1
 306 362 l 0
 312 368 l 1
 312 488 l 1
 312 606 l 1
 318 612 l 0
 375 612 l 1
 432 612 l 0
 438 606 l 1
 438 488 l 1
 438 368 l 1
 432 362 l 0
 406 362 l 1
 381 362 l 0
 375 356 l 1
 375 331 l 1
 375 306 l 1
 369 300 l 0
 344 300 l 1
 318 300 l 0
 312 294 l 1
 312 175 l 1
 312 56 l 1
 306 50 l 0
 250 50 l 1
 194 50 l 0
 188 56 l 1
 188 175 l 1
 188 294 l 1
 182 300 l 0
 156 300 l 1
 131 300 l 0
 125 306 l 1
 125 331 l 1
 125 356 l 1
 119 362 l 0
 94 362 l 1
 68 362 l 0
 62 368 l 1
 62 488 l 1
 62 606 l 1
 68 612 l 0
 125 612 l 1
EndSplineSet
EndChar

StartChar: Z
Encoding: 90 90 77
Width: 500
Flags: HW
LayerCount: 2
Fore
SplineSet
250 612 m 1
 432 612 l 0
 438 606 l 1
 438 519 l 1
 438 431 l 1
 432 425 l 0
 406 425 l 1
 381 425 l 0
 375 419 l 1
 375 394 l 1
 375 368 l 1
 369 362 l 0
 344 362 l 1
 318 362 l 0
 312 356 l 1
 312 331 l 1
 312 306 l 1
 306 300 l 0
 281 300 l 1
 256 300 l 0
 250 294 l 1
 250 269 l 1
 250 244 l 1
 244 238 l 0
 219 238 l 1
 194 238 l 0
 188 232 l 1
 188 175 l 1
 188 118 l 1
 194 112 l 0
 312 112 l 1
 432 112 l 0
 438 106 l 1
 438 81 l 1
 438 56 l 1
 432 50 l 0
 250 50 l 1
 68 50 l 0
 62 56 l 1
 62 144 l 1
 62 232 l 1
 68 238 l 0
 94 238 l 1
 119 238 l 0
 125 244 l 1
 125 269 l 1
 125 294 l 1
 131 300 l 0
 156 300 l 1
 182 300 l 0
 188 306 l 1
 188 331 l 1
 188 356 l 1
 194 362 l 0
 219 362 l 1
 244 362 l 0
 250 368 l 1
 250 394 l 1
 250 419 l 1
 256 425 l 0
 281 425 l 1
 306 425 l 0
 312 431 l 1
 312 488 l 1
 312 544 l 1
 306 550 l 0
 188 550 l 1
 68 550 l 0
 62 556 l 1
 62 581 l 1
 62 606 l 1
 68 612 l 0
 250 612 l 1
EndSplineSet
EndChar

StartChar: A
Encoding: 65 65 78
Width: 500
Flags: HW
LayerCount: 2
Fore
SplineSet
250 612 m 1
 306 612 l 1
 312 606 l 0
 312 581 l 1
 312 556 l 1
 318 550 l 0
 344 550 l 1
 369 550 l 1
 375 544 l 0
 375 519 l 1
 375 494 l 1
 382 488 l 0
 406 488 l 1
 432 488 l 1
 438 482 l 0
 438 269 l 1
 438 56 l 1
 432 50 l 0
 375 50 l 1
 318 50 l 1
 312 56 l 0
 312 144 l 1
 312 232 l 1
 306 238 l 0
 250 238 l 1
 194 238 l 1
 188 232 l 0
 188 144 l 1
 188 56 l 0
 182 50 l 1
 125 50 l 1
 68 50 l 1
 62 56 l 0
 62 269 l 1
 62 482 l 0
 68 488 l 1
 94 488 l 1
 119 488 l 0
 125 494 l 1
 125 519 l 1
 125 544 l 1
 131 550 l 0
 156 550 l 1
 182 550 l 0
 188 555 l 1
 188 581 l 1
 188 606 l 0
 194 612 l 1
 250 612 l 1
250 488 m 1
 194 488 l 1
 188 482 l 0
 188 394 l 1
 188 306 l 1
 194 300 l 0
 250 300 l 1
 306 300 l 1
 312 306 l 0
 312 394 l 1
 312 482 l 1
 306 488 l 0
 250 488 l 1
EndSplineSet
EndChar

StartChar: B
Encoding: 66 66 79
Width: 500
Flags: HW
LayerCount: 2
Fore
SplineSet
219 612 m 1
 369 612 l 0
 375 606 l 1
 375 581 l 1
 375 556 l 1
 381 550 l 0
 406 550 l 1
 432 550 l 0
 438 544 l 1
 438 456 l 1
 438 368 l 1
 432 362 l 0
 406 362 l 1
 381 362 l 0
 375 356 l 1
 375 331 l 1
 375 306 l 1
 381 300 l 0
 406 300 l 1
 432 300 l 0
 438 294 l 1
 438 206 l 1
 438 118 l 1
 432 112 l 0
 406 112 l 1
 381 112 l 0
 375 106 l 1
 375 81 l 1
 375 56 l 1
 369 50 l 0
 219 50 l 1
 68 50 l 0
 62 56 l 1
 62 331 l 1
 62 606 l 0
 68 612 l 1
 219 612 l 1
250 550 m 1
 194 550 l 0
 188 544 l 1
 188 456 l 1
 188 368 l 1
 194 362 l 0
 250 362 l 1
 306 362 l 0
 312 368 l 1
 312 456 l 1
 312 544 l 1
 306 550 l 0
 250 550 l 1
250 300 m 1
 194 300 l 0
 188 294 l 1
 188 206 l 1
 188 118 l 1
 194 112 l 0
 250 112 l 1
 306 112 l 0
 312 118 l 1
 312 206 l 1
 312 295 l 1
 306 300 l 0
 250 300 l 1
EndSplineSet
EndChar

StartChar: C
Encoding: 67 67 80
Width: 500
Flags: HW
LayerCount: 2
Fore
SplineSet
250 612 m 1
 369 612 l 0
 375 606 l 1
 375 581 l 1
 375 556 l 1
 381 550 l 0
 406 550 l 1
 432 550 l 0
 438 544 l 1
 438 488 l 1
 438 431 l 1
 432 425 l 0
 375 425 l 1
 318 425 l 1
 312 431 l 0
 312 488 l 1
 312 544 l 1
 306 550 l 0
 250 550 l 1
 194 550 l 0
 188 544 l 1
 188 331 l 1
 188 118 l 1
 194 112 l 0
 250 112 l 1
 306 112 l 0
 312 118 l 1
 312 175 l 1
 312 232 l 0
 318 238 l 1
 375 238 l 1
 432 238 l 0
 438 232 l 1
 438 175 l 1
 438 118 l 1
 432 112 l 0
 406 112 l 1
 381 112 l 0
 375 106 l 1
 375 81 l 1
 375 56 l 0
 369 50 l 1
 250 50 l 1
 131 50 l 1
 125 56 l 0
 125 81 l 1
 125 106 l 1
 119 112 l 0
 94 112 l 1
 68 112 l 0
 62 118 l 1
 62 331 l 1
 62 544 l 0
 68 550 l 1
 94 550 l 1
 119 550 l 0
 125 553 l 1
 125 581 l 1
 125 606 l 0
 131 612 l 1
 250 612 l 1
EndSplineSet
EndChar

StartChar: D
Encoding: 68 68 81
Width: 500
Flags: HW
LayerCount: 2
Fore
SplineSet
188 612 m 1
 306 612 l 0
 312 606 l 1
 312 581 l 1
 312 556 l 1
 318 550 l 0
 344 550 l 1
 369 550 l 0
 375 544 l 1
 375 519 l 1
 375 494 l 1
 381 488 l 0
 406 488 l 1
 432 488 l 0
 438 482 l 1
 438 331 l 1
 438 181 l 1
 432 175 l 0
 406 175 l 1
 381 175 l 0
 375 169 l 1
 375 144 l 1
 375 118 l 1
 369 112 l 0
 344 112 l 1
 318 112 l 0
 312 106 l 1
 312 81 l 1
 312 56 l 1
 306 50 l 0
 188 50 l 1
 68 50 l 0
 62 56 l 1
 62 331 l 1
 62 606 l 1
 68 612 l 0
 188 612 l 1
219 550 m 1
 194 550 l 0
 188 544 l 1
 188 331 l 1
 188 118 l 1
 194 112 l 0
 219 112 l 1
 244 112 l 0
 250 118 l 1
 250 144 l 1
 250 169 l 1
 256 175 l 0
 281 175 l 1
 306 175 l 0
 312 181 l 1
 312 331 l 1
 312 482 l 1
 306 488 l 0
 281 488 l 1
 256 488 l 0
 250 494 l 1
 250 519 l 1
 250 544 l 1
 244 550 l 0
 219 550 l 1
EndSplineSet
EndChar

StartChar: E
Encoding: 69 69 82
Width: 500
Flags: HW
LayerCount: 2
Fore
SplineSet
250 612 m 1
 432 612 l 0
 438 606 l 1
 438 581 l 1
 438 556 l 1
 432 550 l 0
 312 550 l 1
 194 550 l 0
 188 544 l 1
 188 456 l 1
 188 368 l 1
 194 362 l 0
 281 362 l 1
 369 362 l 0
 375 356 l 1
 375 331 l 1
 375 306 l 1
 369 300 l 0
 281 300 l 1
 194 300 l 0
 188 294 l 1
 188 206 l 1
 188 118 l 1
 194 112 l 0
 312 112 l 1
 432 112 l 0
 438 106 l 1
 438 81 l 1
 438 56 l 1
 432 50 l 0
 250 50 l 1
 68 50 l 0
 62 56 l 1
 62 331 l 1
 62 606 l 1
 68 612 l 0
 250 612 l 1
EndSplineSet
EndChar

StartChar: F
Encoding: 70 70 83
Width: 500
Flags: HW
LayerCount: 2
Fore
SplineSet
250 612 m 1
 432 612 l 0
 438 606 l 1
 438 581 l 1
 438 556 l 1
 432 550 l 0
 312 550 l 1
 194 550 l 0
 188 544 l 1
 188 456 l 1
 188 368 l 1
 194 362 l 0
 281 362 l 1
 369 362 l 0
 375 356 l 1
 375 331 l 1
 375 306 l 1
 369 300 l 0
 281 300 l 1
 194 300 l 0
 188 294 l 1
 188 175 l 1
 188 56 l 1
 182 50 l 0
 125 50 l 1
 68 50 l 0
 62 56 l 1
 62 331 l 1
 62 606 l 1
 68 612 l 0
 250 612 l 1
EndSplineSet
EndChar

StartChar: G
Encoding: 71 71 84
Width: 500
Flags: HW
LayerCount: 2
Fore
SplineSet
250 612 m 1
 369 612 l 0
 375 606 l 1
 375 581 l 1
 375 556 l 1
 381 550 l 0
 406 550 l 1
 432 550 l 0
 438 544 l 1
 438 488 l 1
 438 431 l 1
 432 425 l 0
 375 425 l 1
 318 425 l 0
 312 431 l 1
 312 488 l 1
 312 544 l 1
 306 550 l 0
 250 550 l 1
 194 550 l 0
 188 544 l 1
 188 331 l 1
 188 118 l 1
 194 112 l 0
 250 112 l 1
 306 112 l 0
 312 118 l 1
 312 175 l 1
 312 232 l 1
 306 238 l 0
 281 238 l 1
 256 238 l 0
 250 244 l 1
 250 269 l 1
 250 294 l 1
 256 300 l 0
 344 300 l 1
 432 300 l 0
 438 294 l 1
 438 175 l 1
 438 56 l 1
 432 50 l 0
 281 50 l 1
 131 50 l 0
 125 56 l 1
 125 81 l 1
 125 106 l 1
 119 112 l 0
 94 112 l 1
 68 112 l 0
 62 118 l 1
 62 331 l 1
 62 544 l 1
 68 550 l 0
 94 550 l 1
 118 550 l 0
 125 556 l 1
 125 581 l 1
 125 606 l 1
 131 612 l 0
 250 612 l 1
EndSplineSet
EndChar

StartChar: H
Encoding: 72 72 85
Width: 500
Flags: HW
LayerCount: 2
Fore
SplineSet
125 612 m 1
 182 612 l 0
 188 606 l 1
 188 488 l 1
 188 368 l 1
 194 362 l 0
 250 362 l 1
 306 362 l 0
 312 368 l 1
 312 488 l 1
 312 606 l 1
 318 612 l 0
 375 612 l 1
 432 612 l 0
 438 606 l 1
 438 331 l 1
 438 56 l 1
 432 50 l 0
 375 50 l 1
 318 50 l 0
 312 56 l 1
 312 175 l 1
 312 294 l 1
 306 300 l 0
 250 300 l 1
 194 300 l 0
 188 294 l 1
 188 175 l 1
 188 56 l 1
 182 50 l 0
 125 50 l 1
 68 50 l 0
 62 56 l 1
 62 331 l 1
 62 606 l 1
 68 612 l 0
 125 612 l 1
EndSplineSet
EndChar

StartChar: I
Encoding: 73 73 86
Width: 500
Flags: HW
LayerCount: 2
Fore
SplineSet
250 612 m 1
 369 612 l 0
 375 606 l 1
 375 581 l 1
 375 556 l 1
 369 550 l 0
 344 550 l 1
 318 550 l 0
 312 544 l 1
 312 331 l 1
 312 118 l 1
 318 112 l 0
 344 112 l 1
 369 112 l 0
 375 106 l 1
 375 81 l 1
 375 56 l 1
 369 50 l 0
 250 50 l 1
 131 50 l 0
 125 56 l 1
 125 81 l 1
 125 106 l 1
 131 112 l 0
 156 112 l 1
 182 112 l 0
 188 118 l 1
 188 331 l 1
 188 544 l 1
 182 550 l 0
 156 550 l 1
 131 550 l 0
 125 556 l 1
 125 581 l 1
 125 606 l 1
 131 612 l 0
 250 612 l 1
EndSplineSet
EndChar

StartChar: J
Encoding: 74 74 87
Width: 500
Flags: HW
LayerCount: 2
Fore
SplineSet
375 612 m 1
 432 612 l 0
 438 606 l 1
 438 362 l 1
 438 118 l 1
 432 112 l 0
 406 112 l 1
 381 112 l 0
 375 106 l 1
 375 81 l 1
 375 56 l 1
 369 50 l 0
 250 50 l 1
 131 50 l 0
 125 56 l 1
 125 81 l 1
 125 106 l 1
 119 112 l 0
 94 112 l 1
 68 112 l 0
 62 118 l 1
 62 175 l 1
 62 232 l 1
 68 238 l 0
 125 238 l 1
 182 238 l 0
 188 232 l 1
 188 175 l 1
 188 118 l 1
 194 112 l 0
 250 112 l 1
 306 112 l 0
 312 118 l 1
 312 362 l 1
 312 606 l 1
 318 612 l 0
 375 612 l 1
EndSplineSet
EndChar

StartChar: K
Encoding: 75 75 88
Width: 500
Flags: HW
LayerCount: 2
Fore
SplineSet
125 612 m 1
 182 612 l 0
 188 606 l 1
 188 488 l 1
 188 368 l 1
 194 362 l 0
 219 362 l 1
 244 362 l 0
 250 368 l 1
 250 425 l 1
 250 482 l 1
 256 488 l 0
 281 488 l 1
 306 488 l 0
 312 494 l 1
 312 550 l 1
 312 606 l 1
 318 612 l 0
 375 612 l 1
 432 612 l 0
 438 606 l 1
 438 550 l 1
 438 494 l 1
 432 488 l 0
 406 488 l 1
 381 488 l 0
 375 482 l 1
 375 425 l 1
 375 368 l 1
 369 362 l 0
 344 362 l 1
 318 362 l 0
 312 356 l 1
 312 331 l 1
 312 306 l 1
 318 300 l 0
 344 300 l 1
 369 300 l 0
 375 294 l 1
 375 238 l 1
 375 181 l 1
 381 175 l 0
 406 175 l 1
 432 175 l 0
 438 169 l 1
 438 112 l 1
 438 56 l 1
 432 50 l 0
 375 50 l 1
 318 50 l 0
 312 56 l 1
 312 112 l 1
 312 169 l 1
 306 175 l 0
 281 175 l 1
 256 175 l 0
 250 181 l 1
 250 238 l 1
 250 294 l 1
 244 300 l 0
 219 300 l 1
 194 300 l 0
 188 294 l 1
 188 175 l 1
 188 56 l 1
 182 50 l 0
 125 50 l 1
 68 50 l 0
 62 56 l 1
 62 331 l 1
 62 606 l 1
 68 612 l 0
 125 612 l 1
EndSplineSet
EndChar

StartChar: L
Encoding: 76 76 89
Width: 500
Flags: HW
LayerCount: 2
Fore
SplineSet
125 612 m 1
 182 612 l 0
 188 606 l 1
 188 362 l 1
 188 118 l 1
 194 112 l 0
 312 112 l 1
 432 112 l 1
 438 106 l 0
 438 81 l 1
 438 56 l 0
 432 50 l 1
 250 50 l 1
 68 50 l 0
 62 56 l 1
 62 331 l 1
 62 606 l 1
 68 612 l 0
 125 612 l 1
EndSplineSet
EndChar

StartChar: M
Encoding: 77 77 90
Width: 500
Flags: HW
LayerCount: 2
Fore
SplineSet
92 612 m 1
 149 612 l 0
 155 606 l 1
 155 550 l 1
 155 494 l 1
 161 488 l 0
 186 488 l 1
 211 488 l 0
 217 482 l 1
 217 456 l 1
 217 437 l 0
 229 425 l 1
 248 425 l 1
 267 425 l 0
 279 437 l 1
 279 456 l 1
 279 482 l 0
 285 488 l 1
 311 488 l 1
 336 488 l 0
 342 494 l 1
 342 550 l 1
 342 606 l 0
 348 612 l 1
 405 612 l 1
 461 612 l 1
 467 606 l 0
 467 331 l 1
 467 56 l 1
 461 50 l 0
 405 50 l 1
 348 50 l 1
 342 56 l 0
 342 238 l 1
 342 419 l 1
 336 425 l 0
 311 425 l 1
 291 425 l 0
 279 413 l 1
 279 325 l 1
 279 244 l 1
 273 238 l 0
 248 238 l 1
 223 238 l 0
 217 244 l 1
 217 331 l 1
 217 413 l 1
 205 425 l 0
 186 425 l 1
 161 425 l 0
 155 419 l 1
 155 238 l 1
 155 56 l 1
 149 50 l 0
 92 50 l 1
 35 50 l 1
 29 56 l 0
 29 331 l 1
 29 606 l 0
 35 612 l 1
 92 612 l 1
EndSplineSet
EndChar

StartChar: N
Encoding: 78 78 91
Width: 500
Flags: HW
LayerCount: 2
Fore
SplineSet
93 612 m 1
 150 612 l 0
 156 606 l 1
 156 550 l 1
 156 494 l 1
 163 488 l 0
 187 488 l 1
 212 488 l 0
 218 482 l 1
 218 456 l 1
 218 431 l 1
 225 425 l 0
 249 425 l 1
 274 425 l 0
 280 419 l 1
 280 394 l 1
 280 368 l 1
 286 362 l 0
 312 362 l 1
 337 362 l 0
 343 368 l 1
 343 488 l 1
 343 606 l 1
 349 612 l 0
 406 612 l 1
 462 612 l 0
 468 606 l 1
 468 331 l 1
 468 56 l 1
 462 50 l 0
 406 50 l 1
 349 50 l 0
 343 57 l 1
 343 144 l 1
 343 232 l 1
 337 238 l 0
 312 238 l 1
 286 238 l 0
 280 244 l 1
 280 269 l 1
 280 294 l 1
 274 300 l 0
 249 300 l 1
 224 300 l 0
 218 306 l 1
 218 331 l 1
 218 356 l 1
 212 362 l 0
 187 362 l 1
 162 362 l 0
 156 356 l 1
 156 206 l 1
 156 56 l 1
 150 50 l 0
 93 50 l 1
 36 50 l 0
 30 56 l 1
 30 331 l 1
 30 606 l 1
 36 612 l 0
 93 612 l 1
EndSplineSet
EndChar

StartChar: O
Encoding: 79 79 92
Width: 500
Flags: HW
LayerCount: 2
Fore
SplineSet
250 612 m 1
 369 612 l 0
 375 606 l 1
 375 581 l 1
 375 556 l 1
 381 550 l 0
 406 550 l 1
 432 550 l 0
 438 544 l 1
 438 331 l 1
 438 118 l 1
 432 112 l 0
 406 112 l 1
 381 112 l 0
 375 106 l 1
 375 81 l 1
 375 56 l 1
 369 50 l 0
 250 50 l 1
 131 50 l 0
 125 56 l 1
 125 81 l 1
 125 106 l 1
 119 112 l 0
 94 112 l 1
 68 112 l 0
 62 118 l 1
 62 331 l 1
 62 544 l 1
 68 550 l 0
 94 550 l 1
 119 550 l 0
 125 556 l 1
 125 581 l 1
 125 606 l 1
 131 612 l 0
 250 612 l 1
250 550 m 1
 194 550 l 0
 188 544 l 1
 188 331 l 1
 188 118 l 1
 194 112 l 0
 250 112 l 1
 306 112 l 0
 312 118 l 1
 312 331 l 1
 312 544 l 1
 305 550 l 0
 250 550 l 1
EndSplineSet
EndChar

StartChar: P
Encoding: 80 80 93
Width: 500
Flags: HW
LayerCount: 2
Fore
SplineSet
219 612 m 1
 369 612 l 0
 375 606 l 1
 375 581 l 1
 375 556 l 1
 381 550 l 0
 406 550 l 1
 432 550 l 0
 438 544 l 1
 438 456 l 1
 438 368 l 1
 432 362 l 0
 406 362 l 1
 381 362 l 0
 375 356 l 1
 375 331 l 1
 375 306 l 1
 369 300 l 0
 281 300 l 1
 194 300 l 0
 188 294 l 1
 188 175 l 1
 188 56 l 1
 182 50 l 0
 125 50 l 1
 68 50 l 0
 62 56 l 1
 62 331 l 1
 62 606 l 1
 68 612 l 0
 219 612 l 1
250 550 m 1
 194 550 l 0
 188 544 l 1
 188 456 l 1
 188 368 l 1
 194 362 l 0
 250 362 l 1
 306 362 l 0
 312 368 l 1
 312 456 l 1
 312 544 l 1
 306 550 l 0
 250 550 l 1
EndSplineSet
EndChar

StartChar: uni007F
Encoding: 127 127 95
Width: 500
Flags: HW
LayerCount: 2
Fore
SplineSet
166 324 m 1
 91 324 l 1
 91 312 l 1
 91 300 l 1
 141 300 l 1
 191 300 l 1
 191 287 l 1
 191 275 l 1
 178 275 l 1
 166 275 l 1
 166 250 l 1
 166 224 l 1
 154 224 l 1
 141 224 l 1
 141 200 l 1
 141 175 l 1
 128 175 l 1
 116 175 l 1
 116 137 l 1
 116 100 l 1
 141 100 l 1
 166 100 l 1
 166 137 l 1
 166 175 l 1
 178 175 l 1
 191 175 l 1
 191 200 l 1
 191 224 l 1
 204 224 l 1
 216 224 l 1
 216 250 l 1
 216 275 l 1
 228 275 l 1
 241 275 l 1
 241 300 l 1
 241 324 l 1
 166 324 l 1
347 323 m 1
 272 323 l 1
 272 211 l 1
 272 99 l 1
 297 99 l 1
 322 99 l 1
 322 149 l 1
 322 199 l 1
 359 199 l 1
 397 199 l 1
 397 211 l 1
 397 223 l 1
 359 223 l 1
 322 223 l 1
 322 261 l 1
 322 299 l 1
 372 299 l 1
 422 299 l 1
 422 311 l 1
 422 323 l 1
 347 323 l 1
287 569 m 1
 262 569 l 1
 262 545 l 1
 262 520 l 1
 275 520 l 1
 287 520 l 1
 287 507 l 1
 287 495 l 1
 299 495 l 1
 312 495 l 1
 312 469 l 1
 312 445 l 1
 299 445 l 1
 287 445 l 1
 287 432 l 1
 287 420 l 1
 275 420 l 1
 262 420 l 1
 262 382 l 1
 262 345 l 1
 287 345 l 1
 312 345 l 1
 312 395 l 1
 312 445 l 1
 325 445 l 1
 337 445 l 1
 337 432 l 1
 337 420 l 1
 349 420 l 1
 362 420 l 1
 362 382 l 1
 362 345 l 1
 387 345 l 1
 412 345 l 1
 412 382 l 1
 412 420 l 1
 399 420 l 1
 387 420 l 1
 387 432 l 1
 387 445 l 1
 375 445 l 1
 362 445 l 1
 362 469 l 1
 362 495 l 1
 375 495 l 1
 387 495 l 1
 387 507 l 1
 387 520 l 1
 399 520 l 1
 412 520 l 1
 412 545 l 1
 412 569 l 1
 387 569 l 1
 362 569 l 1
 362 532 l 1
 362 495 l 1
 349 495 l 1
 337 495 l 1
 337 507 l 1
 337 520 l 1
 325 520 l 1
 312 520 l 1
 312 545 l 1
 312 569 l 1
 287 569 l 1
165 572 m 1
 116 572 l 1
 116 560 l 1
 116 548 l 1
 103 548 l 1
 91 548 l 1
 91 460 l 1
 91 372 l 1
 103 372 l 1
 116 372 l 1
 116 360 l 1
 116 348 l 1
 165 348 l 1
 216 348 l 1
 216 360 l 1
 216 372 l 1
 228 372 l 1
 241 372 l 1
 241 460 l 1
 241 548 l 1
 228 548 l 1
 216 548 l 1
 216 560 l 1
 216 572 l 1
 165 572 l 1
165 548 m 1
 191 548 l 1
 191 535 l 1
 191 525 l 1
 189 523 l 0
 178 523 l 1
 167 523 l 1
 165 520 l 0
 165 498 l 1
 165 475 l 1
 168 472 l 0
 178 472 l 1
 188 472 l 0
 191 470 l 1
 191 423 l 1
 191 376 l 1
 187 372 l 0
 165 372 l 1
 141 372 l 1
 141 385 l 1
 141 394 l 0
 144 398 l 1
 153 398 l 1
 163 398 l 1
 165 400 l 0
 165 423 l 1
 165 442 l 0
 165 444 l 1
 162 448 l 0
 153 448 l 1
 141 448 l 1
 141 498 l 1
 141 548 l 1
 165 548 l 1
250 612 m 1
 433 612 l 0
 438 607 l 1
 438 331 l 1
 438 55 l 1
 433 50 l 0
 250 50 l 1
 67 50 l 1
 62 55 l 0
 62 331 l 1
 62 607 l 1
 67 612 l 0
 250 612 l 1
EndSplineSet
EndChar

StartChar: exclamdown
Encoding: 161 161 96
Width: 500
Flags: HW
LayerCount: 2
Fore
SplineSet
182 237 m 1
 306 237 l 25
 306 113 l 25
 367 113 l 25
 367 -74 l 25
 305 -74 l 25
 305 -200 l 25
 182 -200 l 25
 182 -74 l 25
 118 -74 l 25
 118 113 l 25
 182 113 l 25
 182 237 l 1
182 425 m 1
 306 425 l 1
 306 299 l 1
 182 299 l 1
 182 425 l 1
EndSplineSet
EndChar

StartChar: cent
Encoding: 162 162 97
Width: 500
Flags: HW
LayerCount: 2
Fore
SplineSet
188 612 m 25
 312 612 l 25
 312 487 l 25
 375 487 l 25
 375 425 l 25
 437 425 l 25
 437 362 l 25
 313 363 l 25
 313 425 l 25
 188 425 l 25
 188 175 l 25
 313 175 l 25
 313 237 l 25
 438 237 l 25
 438 175 l 25
 375 175 l 25
 375 112 l 25
 312 112 l 25
 312 -13 l 25
 187 -13 l 25
 187 113 l 25
 125 113 l 25
 125 175 l 25
 62 175 l 25
 62 425 l 25
 125 425 l 25
 125 487 l 25
 188 487 l 25
 188 612 l 25
EndSplineSet
EndChar

StartChar: sterling
Encoding: 163 163 98
Width: 500
Flags: HW
LayerCount: 2
Fore
SplineSet
125 612 m 25
 375 612 l 25
 375 550 l 25
 437 550 l 25
 437 488 l 25
 313 488 l 25
 313 550 l 25
 187 550 l 25
 187 362 l 25
 375 362 l 25
 375 300 l 25
 187 300 l 25
 187 175 l 25
 125 175 l 25
 125 112 l 25
 437 112 l 25
 437 50 l 25
 0 50 l 25
 0 175 l 25
 62 175 l 25
 62 300 l 25
 0 300 l 25
 0 363 l 25
 63 363 l 25
 63 550 l 25
 125 550 l 25
 125 612 l 25
EndSplineSet
EndChar

StartChar: currency
Encoding: 164 164 99
Width: 500
Flags: HW
LayerCount: 2
Fore
SplineSet
188 425 m 25
 188 300 l 25
 312 300 l 25
 312 425 l 25
 188 425 l 25
63 550 m 25
 187 550 l 1
 187 487 l 25
 313 487 l 25
 313 550 l 25
 437 550 l 25
 437 488 l 25
 375 488 l 25
 375 425 l 25
 437 425 l 25
 437 300 l 25
 375 300 l 25
 375 237 l 25
 437 237 l 25
 437 175 l 25
 313 175 l 25
 313 237 l 25
 187 237 l 25
 187 175 l 25
 62 175 l 25
 62 237 l 25
 125 237 l 25
 125 300 l 25
 63 300 l 25
 63 425 l 25
 125 425 l 25
 125 488 l 25
 63 488 l 1
 63 550 l 25
EndSplineSet
EndChar

StartChar: yen
Encoding: 165 165 100
Width: 500
Flags: HW
LayerCount: 2
Fore
SplineSet
63 612 m 25
 187 612 l 25
 187 425 l 25
 313 425 l 25
 313 612 l 25
 437 612 l 25
 437 425 l 25
 375 425 l 25
 375 362 l 25
 438 362 l 25
 438 300 l 25
 313 300 l 25
 313 238 l 25
 437 238 l 25
 437 175 l 25
 312 175 l 25
 312 50 l 25
 188 50 l 25
 188 175 l 25
 63 175 l 25
 63 237 l 25
 188 237 l 25
 188 300 l 25
 63 300 l 25
 63 362 l 25
 125 362 l 25
 125 425 l 25
 63 425 l 25
 63 612 l 25
EndSplineSet
EndChar

StartChar: copyright
Encoding: 169 169 101
Width: 500
Flags: HW
LayerCount: 2
Fore
SplineSet
187 487 m 25
 187 425 l 1
 125 425 l 25
 125 238 l 25
 187 238 l 25
 187 175 l 25
 312 175 l 25
 312 237 l 25
 375 237 l 25
 375 300 l 25
 312 300 l 25
 312 238 l 25
 188 238 l 25
 188 425 l 25
 312 425 l 25
 312 363 l 25
 375 363 l 25
 375 425 l 25
 313 425 l 25
 313 487 l 1
 187 487 l 25
125 550 m 25
 125 488 l 25
 62 487 l 25
 62 175 l 25
 125 175 l 25
 125 112 l 25
 375 112 l 25
 375 175 l 25
 438 175 l 25
 438 488 l 25
 375 488 l 25
 375 550 l 25
 125 550 l 25
63 612 m 25
 437 612 l 1
 437 550 l 25
 500 550 l 25
 500 113 l 25
 438 113 l 25
 438 50 l 25
 63 50 l 25
 63 112 l 25
 0 112 l 25
 0 550 l 25
 63 550 l 1
 63 612 l 25
EndSplineSet
EndChar

StartChar: brokenbar
Encoding: 166 166 102
Width: 500
Flags: HW
LayerCount: 2
Fore
SplineSet
187 175 m 25
 312 175 l 25
 312 -200 l 25
 187 -200 l 25
 187 175 l 25
187 612 m 25
 312 612 l 25
 312 300 l 25
 187 300 l 25
 187 612 l 25
EndSplineSet
EndChar

StartChar: section
Encoding: 167 167 103
Width: 500
Flags: HW
LayerCount: 2
Fore
SplineSet
187 300 m 25
 187 175 l 25
 313 175 l 25
 313 300 l 25
 187 300 l 25
125 612 m 25
 375 612 l 25
 375 550 l 25
 437 550 l 25
 437 488 l 25
 313 488 l 25
 313 550 l 25
 187 550 l 25
 187 425 l 25
 312 425 l 25
 312 362 l 25
 375 362 l 25
 375 300 l 25
 437 300 l 25
 437 175 l 25
 375 175 l 25
 375 50 l 25
 437 50 l 25
 437 -75 l 25
 375 -75 l 25
 375 -200 l 25
 125 -200 l 25
 125 -75 l 25
 62 -75 l 25
 62 -13 l 25
 187 -13 l 25
 187 -75 l 25
 313 -75 l 25
 313 50 l 25
 188 50 l 25
 188 112 l 25
 125 112 l 25
 125 175 l 25
 62 175 l 25
 62 300 l 25
 125 300 l 25
 125 425 l 25
 63 425 l 25
 63 550 l 25
 125 550 l 25
 125 612 l 25
EndSplineSet
EndChar

StartChar: dieresis
Encoding: 168 168 104
Width: 500
Flags: HW
LayerCount: 2
Fore
SplineSet
313 675 m 25
 437 675 l 25
 437 550 l 25
 313 550 l 25
 313 675 l 25
62 675 m 25
 62 550 l 1
 187 550 l 25
 187 675 l 1
 62 675 l 25
EndSplineSet
EndChar

StartChar: quoteleft
Encoding: 8216 8216 105
Width: 500
Flags: HW
LayerCount: 2
Fore
SplineSet
250 612 m 25
 375 612 l 25
 375 550 l 25
 312 550 l 25
 312 487 l 25
 375 487 l 25
 375 363 l 25
 188 363 l 25
 188 550 l 25
 250 550 l 25
 250 612 l 25
EndSplineSet
EndChar

StartChar: quoteright
Encoding: 8217 8217 106
Width: 500
Flags: HW
LayerCount: 2
Fore
SplineSet
187 612 m 25
 375 612 l 25
 375 425 l 25
 312 425 l 25
 312 363 l 25
 188 363 l 25
 188 425 l 25
 250 425 l 25
 250 487 l 25
 187 487 l 25
 187 612 l 25
EndSplineSet
EndChar

StartChar: ordfeminine
Encoding: 170 170 107
Width: 500
Flags: HW
LayerCount: 2
Fore
SplineSet
63 237 m 1
 437 237 l 1
 437 175 l 1
 63 175 l 1
 63 237 l 1
188 425 m 25
 188 362 l 25
 313 362 l 25
 313 425 l 25
 188 425 l 25
125 612 m 25
 375 612 l 25
 375 550 l 25
 437 550 l 25
 437 300 l 25
 125 300 l 25
 125 362 l 25
 63 362 l 25
 63 425 l 25
 125 425 l 25
 125 487 l 25
 313 487 l 25
 313 550 l 25
 125 550 l 25
 125 612 l 25
EndSplineSet
EndChar

StartChar: guillemotleft
Encoding: 171 171 108
Width: 500
Flags: HW
LayerCount: 2
Fore
SplineSet
375 362 m 25
 500 362 l 25
 500 300 l 25
 437 300 l 25
 437 238 l 25
 375 238 l 25
 375 175 l 25
 437 175 l 25
 437 112 l 25
 500 112 l 25
 500 50 l 25
 375 50 l 25
 375 113 l 25
 313 113 l 25
 313 175 l 25
 250 175 l 25
 250 237 l 25
 313 237 l 25
 313 300 l 25
 375 300 l 25
 375 362 l 25
125 362 m 25
 250 362 l 25
 250 300 l 25
 187 300 l 25
 187 238 l 25
 125 238 l 25
 125 175 l 25
 187 175 l 25
 187 112 l 25
 250 112 l 25
 250 50 l 25
 125 50 l 25
 125 113 l 25
 63 113 l 25
 63 175 l 25
 0 175 l 25
 0 237 l 25
 63 237 l 25
 63 300 l 25
 125 300 l 25
 125 362 l 25
EndSplineSet
EndChar

StartChar: logicalnot
Encoding: 172 172 109
Width: 500
Flags: HW
LayerCount: 2
Fore
SplineSet
62 362 m 25
 437 362 l 25
 437 175 l 25
 313 175 l 25
 313 300 l 25
 62 300 l 25
 62 362 l 25
EndSplineSet
EndChar

StartChar: uni00AD
Encoding: 173 173 110
Width: 500
Flags: HW
LayerCount: 2
Fore
SplineSet
63 362 m 25
 437 362 l 25
 437 300 l 25
 63 300 l 25
 63 362 l 25
EndSplineSet
EndChar

StartChar: registered
Encoding: 174 174 111
Width: 500
Flags: HW
LayerCount: 2
Fore
SplineSet
192 425 m 25
 192 300 l 25
 311 300 l 25
 311 425 l 25
 192 425 l 25
140 487 m 1
 312 487 l 1
 312 425 l 1
 364 425 l 1
 364 300 l 25
 312 300 l 25
 312 238 l 25
 364 238 l 25
 364 176 l 25
 311 176 l 1
 311 238 l 25
 192 238 l 25
 192 175 l 25
 140 175 l 25
 140 487 l 1
125 550 m 25
 125 488 l 25
 70 488 l 25
 70 175 l 25
 125 175 l 25
 125 112 l 25
 375 112 l 25
 375 175 l 25
 430 175 l 25
 430 488 l 25
 375 488 l 25
 375 550 l 25
 125 550 l 25
71 612 m 25
 429 612 l 25
 429 550 l 25
 484 550 l 25
 484 113 l 25
 429 113 l 25
 429 50 l 25
 71 50 l 25
 71 113 l 25
 16 113 l 25
 16 550 l 25
 71 550 l 25
 71 612 l 25
EndSplineSet
EndChar

StartChar: macron
Encoding: 175 175 112
Width: 500
Flags: HW
LayerCount: 2
Fore
SplineSet
0 800 m 25
 500 800 l 25
 500 738 l 25
 0 738 l 25
 0 800 l 25
EndSplineSet
EndChar

StartChar: degree
Encoding: 176 176 113
Width: 500
Flags: HW
LayerCount: 2
Fore
SplineSet
187 613 m 25
 187 487 l 25
 313 487 l 25
 313 613 l 25
 187 613 l 25
125 675 m 25
 375 675 l 25
 375 612 l 25
 437 612 l 25
 437 488 l 25
 375 488 l 25
 375 425 l 25
 125 425 l 25
 125 488 l 25
 63 488 l 25
 63 612 l 25
 125 612 l 25
 125 675 l 25
EndSplineSet
EndChar

StartChar: guillemotright
Encoding: 187 187 114
Width: 500
Flags: HW
LayerCount: 2
Fore
SplineSet
125 50 m 25
 0 50 l 25
 0 112 l 25
 63 112 l 25
 63 174 l 25
 125 174 l 25
 125 237 l 25
 63 237 l 25
 63 300 l 25
 0 300 l 25
 0 362 l 25
 125 362 l 25
 125 299 l 25
 187 299 l 25
 187 237 l 25
 250 237 l 25
 250 175 l 25
 187 175 l 25
 187 112 l 25
 125 112 l 25
 125 50 l 25
375 50 m 25
 250 50 l 25
 250 112 l 25
 313 112 l 25
 313 174 l 25
 375 174 l 25
 375 237 l 25
 313 237 l 25
 313 300 l 25
 250 300 l 25
 250 362 l 25
 375 362 l 25
 375 299 l 25
 437 299 l 25
 437 237 l 25
 500 237 l 25
 500 175 l 25
 437 175 l 25
 437 112 l 25
 375 112 l 25
 375 50 l 25
EndSplineSet
EndChar

StartChar: plusminus
Encoding: 177 177 115
Width: 500
Flags: HW
LayerCount: 2
Fore
SplineSet
63 112 m 25
 437 112 l 25
 437 50 l 25
 63 50 l 25
 63 112 l 25
188 487 m 25
 312 487 l 25
 312 362 l 25
 437 362 l 25
 437 300 l 25
 312 300 l 25
 312 175 l 25
 188 175 l 25
 188 300 l 25
 63 300 l 25
 63 362 l 25
 188 362 l 25
 188 487 l 25
EndSplineSet
EndChar

StartChar: uni00B2
Encoding: 178 178 116
Width: 500
Flags: HW
LayerCount: 2
Fore
SplineSet
125 612 m 25
 312 612 l 25
 312 550 l 25
 375 550 l 25
 375 488 l 25
 312 488 l 25
 312 425 l 25
 250 425 l 25
 250 362 l 25
 375 362 l 25
 375 300 l 25
 125 300 l 25
 125 425 l 25
 188 425 l 25
 188 487 l 25
 250 487 l 25
 250 550 l 25
 125 550 l 25
 125 612 l 25
EndSplineSet
EndChar

StartChar: uni00B9
Encoding: 185 185 117
Width: 500
Flags: HW
LayerCount: 2
Fore
SplineSet
188 612 m 25
 312 612 l 25
 312 300 l 25
 188 300 l 25
 188 488 l 25
 125 488 l 25
 125 550 l 25
 188 550 l 25
 188 612 l 25
EndSplineSet
EndChar

StartChar: uni00B3
Encoding: 179 179 118
Width: 500
Flags: HW
LayerCount: 2
Fore
SplineSet
125 612 m 25
 312 612 l 25
 312 550 l 25
 375 550 l 25
 375 488 l 25
 312 488 l 25
 312 425 l 25
 375 425 l 25
 375 363 l 25
 312 363 l 25
 312 300 l 25
 125 300 l 25
 125 362 l 25
 250 362 l 25
 250 425 l 25
 188 425 l 25
 188 487 l 25
 250 487 l 25
 250 550 l 25
 125 550 l 25
 125 612 l 25
EndSplineSet
EndChar

StartChar: acute
Encoding: 180 180 119
Width: 500
Flags: HW
LayerCount: 2
Fore
SplineSet
188 737 m 25
 375 737 l 25
 375 675 l 25
 312 675 l 25
 312 613 l 25
 250 613 l 25
 250 550 l 25
 125 550 l 25
 125 612 l 25
 188 612 l 25
 188 737 l 25
EndSplineSet
EndChar

StartChar: mu
Encoding: 181 181 120
Width: 500
Flags: HW
LayerCount: 2
Fore
SplineSet
63 487 m 25
 187 487 l 25
 187 113 l 25
 312 113 l 25
 312 487 l 25
 437 487 l 25
 437 112 l 25
 500 112 l 25
 500 50 l 25
 375 50 l 25
 375 112 l 25
 312 112 l 25
 312 50 l 25
 187 50 l 25
 187 -75 l 25
 125 -75 l 25
 125 -200 l 25
 0 -200 l 25
 0 -75 l 25
 63 -75 l 25
 63 487 l 25
EndSplineSet
EndChar

StartChar: paragraph
Encoding: 182 182 121
Width: 500
Flags: HW
LayerCount: 2
Fore
SplineSet
330 -200 m 17
 313 -200 l 9
 313 175 l 25
 188 175 l 25
 188 238 l 25
 125 238 l 25
 125 300 l 25
 63 300 l 25
 63 487 l 25
 125 487 l 25
 125 550 l 25
 188 550 l 25
 188 612 l 25
 500 612 l 25
 500 550 l 25
 437 550 l 25
 437 -200 l 17
 420 -200 l 1
 419.866210938 550 l 0
 330 550 l 9
 330 -200 l 17
EndSplineSet
EndChar

StartChar: periodcentered
Encoding: 183 183 122
Width: 500
Flags: HW
LayerCount: 2
Fore
SplineSet
188 425 m 25
 375 425 l 25
 375 300 l 25
 188 300 l 25
 188 425 l 25
EndSplineSet
EndChar

StartChar: cedilla
Encoding: 184 184 123
Width: 500
Flags: HW
LayerCount: 2
Fore
SplineSet
188 50 m 25
 312 50 l 25
 312 -13 l 25
 375 -13 l 25
 375 -75 l 25
 312 -75 l 25
 312 -200 l 25
 125 -200 l 25
 125 -75 l 25
 250 -75 l 25
 250 -12 l 25
 188 -12 l 25
 188 50 l 25
EndSplineSet
EndChar

StartChar: ordmasculine
Encoding: 186 186 124
Width: 500
Flags: HW
LayerCount: 2
Fore
SplineSet
63 237 m 25
 437 237 l 25
 437 175 l 25
 63 175 l 25
 63 237 l 25
187 550 m 25
 187 362 l 25
 313 362 l 25
 313 550 l 25
 187 550 l 25
125 612 m 25
 375 612 l 25
 375 550 l 25
 437 550 l 25
 437 363 l 25
 375 363 l 25
 375 300 l 25
 125 300 l 25
 125 363 l 25
 63 363 l 25
 63 550 l 25
 125 550 l 25
 125 612 l 25
EndSplineSet
EndChar

StartChar: onequarter
Encoding: 188 188 125
Width: 500
Flags: HW
LayerCount: 2
Fore
SplineSet
312 175 m 25
 312 112 l 25
 375 112 l 25
 375 175 l 25
 312 175 l 25
333 300 m 25
 484 300 l 25
 484 -12 l 25
 375 -12 l 25
 375 50 l 25
 188 50 l 25
 188 155 l 25
 333 300 l 25
399 550 m 25
 484 550 l 25
 484 513 l 25
 101 113 l 25
 16 113 l 25
 16 151 l 25
 399 550 l 25
69 675 m 25
 187 675 l 25
 187 363 l 25
 69 363 l 25
 69 550 l 25
 16 550 l 25
 16 612 l 25
 69 612 l 25
 69 675 l 25
EndSplineSet
EndChar

StartChar: onehalf
Encoding: 189 189 126
Width: 500
Flags: HW
LayerCount: 2
Fore
SplineSet
368 283 m 1
 454 283 l 1
 454 267 l 1
 454 251 l 1
 466 251 l 1
 488 251 l 1
 488 202 l 1
 488 153 l 1
 466 153 l 1
 454 153 l 1
 454 137 l 1
 454 120 l 1
 433 120 l 1
 411 120 l 1
 411 104 l 1
 411 88 l 1
 389 88 l 1
 368 88 l 1
 368 71 l 1
 368 55 l 1
 347 55 l 1
 325 55 l 1
 325 45 l 1
 325 28 l 1
 411 28 l 1
 488 28 l 1
 488 6 l 1
 488 -10 l 1
 368 -10 l 1
 240 -10 l 1
 240 28 l 1
 240 55 l 1
 262 55 l 1
 282 55 l 1
 282 71 l 1
 282 88 l 1
 303 88 l 1
 325 88 l 1
 325 104 l 1
 325 120 l 1
 347 120 l 1
 368 120 l 1
 368 137 l 1
 368 153 l 1
 389 153 l 1
 411 153 l 1
 411 202 l 1
 411 251 l 1
 368 251 l 1
 325 251 l 1
 325 219 l 1
 325 186 l 1
 282 186 l 1
 240 186 l 1
 240 219 l 1
 240 251 l 1
 262 251 l 1
 282 251 l 1
 282 267 l 1
 282 283 l 1
 368 283 l 1
399 565 m 25
 490 565 l 25
 490 528 l 25
 101 128 l 25
 13 128 l 25
 13 166 l 25
 399 565 l 25
79 675 m 25
 187 675 l 25
 187 363 l 25
 79 363 l 25
 79 550 l 25
 13 550 l 25
 13 612 l 25
 79 612 l 25
 79 675 l 25
EndSplineSet
EndChar

StartChar: threequarters
Encoding: 190 190 127
Width: 500
Flags: HW
LayerCount: 2
Fore
SplineSet
312 175 m 25
 312 112 l 25
 375 112 l 25
 375 175 l 25
 312 175 l 25
333 300 m 25
 488 300 l 25
 488 -12 l 25
 375 -12 l 25
 375 50 l 25
 188 50 l 25
 188 155 l 25
 333 300 l 25
399 550 m 25
 488 550 l 25
 488 513 l 25
 101 113 l 25
 12 113 l 25
 12 151 l 25
 399 550 l 25
12 675 m 25
 187 675 l 25
 187 613 l 25
 246 613 l 25
 246 551 l 25
 187 551 l 25
 187 488 l 25
 246 488 l 25
 246 426 l 25
 187 426 l 25
 187 363 l 25
 12 363 l 25
 12 425 l 25
 125 425 l 25
 125 488 l 25
 69 488 l 25
 69 550 l 25
 125 550 l 25
 125 613 l 25
 12 613 l 25
 12 675 l 25
EndSplineSet
EndChar

StartChar: questiondown
Encoding: 191 191 128
Width: 500
Flags: HW
LayerCount: 2
Fore
SplineSet
188 237 m 25
 312 237 l 25
 312 113 l 25
 250 113 l 25
 250 50 l 25
 187 50 l 25
 187 -75 l 25
 313 -75 l 25
 313 50 l 25
 437 50 l 25
 437 -75 l 25
 375 -75 l 25
 375 -182 l 25
 125 -182 l 25
 125 -75 l 25
 63 -75 l 25
 63 50 l 25
 125 50 l 25
 125 112 l 25
 188 112 l 25
 188 237 l 25
188 425 m 25
 312 425 l 25
 312 300 l 25
 188 300 l 25
 188 425 l 25
EndSplineSet
EndChar

StartChar: Agrave
Encoding: 192 192 129
Width: 500
Flags: HW
LayerCount: 2
Fore
SplineSet
187 488 m 25
 187 300 l 25
 313 300 l 25
 313 488 l 25
 187 488 l 25
188 612 m 25
 312 612 l 25
 312 550 l 25
 375 550 l 25
 375 487 l 25
 437 487 l 25
 437 50 l 25
 313 50 l 25
 313 238 l 25
 187 238 l 25
 187 50 l 25
 63 50 l 25
 63 487 l 25
 125 487 l 25
 125 550 l 25
 188 550 l 25
 188 612 l 25
125 800 m 25
 250 800 l 25
 250 737 l 25
 312 737 l 25
 312 675 l 25
 188 675 l 25
 188 738 l 25
 125 738 l 25
 125 800 l 25
EndSplineSet
EndChar

StartChar: Aacute
Encoding: 193 193 130
Width: 500
Flags: HW
LayerCount: 2
Fore
SplineSet
187 488 m 25
 187 300 l 25
 313 300 l 25
 313 488 l 25
 187 488 l 25
188 612 m 25
 312 612 l 25
 312 550 l 25
 375 550 l 25
 375 487 l 25
 437 487 l 25
 437 50 l 25
 313 50 l 25
 313 238 l 25
 187 238 l 25
 187 50 l 25
 63 50 l 25
 63 487 l 25
 125 487 l 25
 125 550 l 25
 188 550 l 25
 188 612 l 25
375 800 m 25
 250 800 l 25
 250 737 l 25
 188 737 l 25
 188 675 l 25
 312 675 l 25
 312 738 l 25
 375 738 l 25
 375 800 l 25
EndSplineSet
EndChar

StartChar: Acircumflex
Encoding: 194 194 131
Width: 500
Flags: HW
LayerCount: 2
Fore
SplineSet
125 800 m 25
 375 800 l 25
 375 737 l 25
 437 737 l 25
 437 675 l 25
 313 675 l 25
 313 738 l 25
 187 738 l 25
 187 675 l 25
 63 675 l 25
 63 737 l 25
 125 737 l 25
 125 800 l 25
187 488 m 25
 187 300 l 25
 313 300 l 25
 313 488 l 25
 187 488 l 25
188 612 m 25
 312 612 l 25
 312 550 l 25
 375 550 l 25
 375 487 l 25
 437 487 l 25
 437 50 l 25
 313 50 l 25
 313 238 l 25
 187 238 l 25
 187 50 l 25
 63 50 l 25
 63 487 l 25
 125 487 l 25
 125 550 l 25
 188 550 l 25
 188 612 l 25
EndSplineSet
EndChar

StartChar: Atilde
Encoding: 195 195 132
Width: 500
Flags: HW
LayerCount: 2
Fore
SplineSet
125 800 m 25
 312 800 l 25
 312 737 l 25
 375 737 l 25
 375 800 l 25
 500 800 l 25
 500 738 l 25
 437 738 l 25
 437 675 l 25
 250 675 l 25
 250 738 l 25
 187 738 l 25
 187 675 l 25
 63 675 l 25
 63 737 l 25
 125 737 l 25
 125 800 l 25
187 488 m 25
 187 300 l 25
 313 300 l 25
 313 488 l 25
 187 488 l 25
188 612 m 25
 312 612 l 25
 312 550 l 25
 375 550 l 25
 375 487 l 25
 437 487 l 25
 437 50 l 25
 313 50 l 25
 313 238 l 25
 187 238 l 25
 187 50 l 25
 63 50 l 25
 63 487 l 25
 125 487 l 25
 125 550 l 25
 188 550 l 25
 188 612 l 25
EndSplineSet
EndChar

StartChar: Adieresis
Encoding: 196 196 133
Width: 500
Flags: HW
LayerCount: 2
Fore
SplineSet
313 800 m 25
 437 800 l 25
 437 675 l 25
 313 675 l 25
 313 800 l 25
63 800 m 25
 187 800 l 25
 187 675 l 25
 63 675 l 25
 63 800 l 25
187 488 m 25
 187 300 l 25
 313 300 l 25
 313 488 l 25
 187 488 l 25
188 612 m 25
 312 612 l 25
 312 550 l 25
 375 550 l 25
 375 487 l 25
 437 487 l 25
 437 50 l 25
 313 50 l 25
 313 238 l 25
 187 238 l 25
 187 50 l 25
 63 50 l 25
 63 487 l 25
 125 487 l 25
 125 550 l 25
 188 550 l 25
 188 612 l 25
EndSplineSet
EndChar

StartChar: Aring
Encoding: 197 197 134
Width: 500
Flags: HW
LayerCount: 2
Fore
SplineSet
187 742 m 25
 187 683 l 25
 313 683 l 25
 313 742 l 25
 187 742 l 25
125 800 m 25
 375 800 l 25
 375 741 l 25
 437 741 l 25
 437 683 l 25
 375 683 l 25
 375 625 l 25
 125 625 l 25
 125 683 l 25
 63 683 l 25
 63 741 l 25
 125 741 l 25
 125 800 l 25
187 488 m 25
 187 300 l 25
 313 300 l 25
 313 488 l 25
 187 488 l 25
188 612 m 25
 312 612 l 25
 312 550 l 25
 375 550 l 25
 375 487 l 25
 437 487 l 25
 437 50 l 25
 313 50 l 25
 313 238 l 25
 187 238 l 25
 187 50 l 25
 63 50 l 25
 63 487 l 25
 125 487 l 25
 125 550 l 25
 188 550 l 25
 188 612 l 25
EndSplineSet
EndChar

StartChar: AE
Encoding: 198 198 135
Width: 500
Flags: HW
LayerCount: 2
Fore
SplineSet
187 425 m 25
 187 300 l 25
 250 300 l 25
 250 425 l 25
 187 425 l 25
250 612 m 25
 468 612 l 25
 468 550 l 25
 359 550 l 25
 359 362 l 25
 468 362 l 25
 468 300 l 25
 359 300 l 25
 359 112 l 25
 468 112 l 25
 468 50 l 25
 250 50 l 25
 250 238 l 25
 187 238 l 25
 187 50 l 25
 63 50 l 25
 63 425 l 25
 125 425 l 25
 125 487 l 25
 188 487 l 25
 188 550 l 25
 250 550 l 25
 250 612 l 25
EndSplineSet
EndChar

StartChar: Ccedilla
Encoding: 199 199 136
Width: 500
Flags: HW
LayerCount: 2
Fore
SplineSet
125 612 m 25
 375 612 l 25
 375 550 l 25
 437 550 l 25
 437 425 l 25
 313 425 l 25
 313 550 l 25
 187 550 l 25
 187 112 l 25
 313 112 l 25
 313 237 l 25
 437 237 l 25
 437 113 l 25
 375 113 l 25
 375 50 l 25
 312 50 l 25
 312 -13 l 25
 375 -13 l 25
 375 -75 l 25
 312 -75 l 25
 312 -200 l 25
 125 -200 l 25
 125 -75 l 25
 250 -75 l 25
 250 -12 l 25
 188 -12 l 25
 188 50 l 25
 125 50 l 25
 125 113 l 25
 63 113 l 25
 63 550 l 25
 125 550 l 25
 125 612 l 25
EndSplineSet
EndChar

StartChar: Egrave
Encoding: 200 200 137
Width: 500
Flags: HW
LayerCount: 2
Fore
SplineSet
63 612 m 25
 437 612 l 25
 437 550 l 25
 187 550 l 25
 187 362 l 25
 375 362 l 25
 375 300 l 25
 187 300 l 25
 187 112 l 25
 437 112 l 25
 437 50 l 25
 63 50 l 25
 63 612 l 25
125 800 m 25
 250 800 l 25
 250 737 l 25
 312 737 l 25
 312 675 l 25
 188 675 l 25
 188 738 l 25
 125 738 l 25
 125 800 l 25
EndSplineSet
EndChar

StartChar: Eacute
Encoding: 201 201 138
Width: 500
Flags: HW
LayerCount: 2
Fore
SplineSet
63 612 m 25
 437 612 l 25
 437 550 l 25
 187 550 l 25
 187 362 l 25
 375 362 l 25
 375 300 l 25
 187 300 l 25
 187 112 l 25
 437 112 l 25
 437 50 l 25
 63 50 l 25
 63 612 l 25
375 800 m 25
 250 800 l 25
 250 737 l 25
 188 737 l 25
 188 675 l 25
 312 675 l 25
 312 738 l 25
 375 738 l 25
 375 800 l 25
EndSplineSet
EndChar

StartChar: Ecircumflex
Encoding: 202 202 139
Width: 500
Flags: HW
LayerCount: 2
Fore
SplineSet
125 800 m 25
 375 800 l 25
 375 737 l 25
 437 737 l 25
 437 675 l 25
 313 675 l 25
 313 738 l 25
 187 738 l 25
 187 675 l 25
 63 675 l 25
 63 737 l 25
 125 737 l 25
 125 800 l 25
63 612 m 25
 437 612 l 25
 437 550 l 25
 187 550 l 25
 187 362 l 25
 375 362 l 25
 375 300 l 25
 187 300 l 25
 187 112 l 25
 437 112 l 25
 437 50 l 25
 63 50 l 25
 63 612 l 25
EndSplineSet
EndChar

StartChar: Edieresis
Encoding: 203 203 140
Width: 500
Flags: HW
LayerCount: 2
Fore
SplineSet
313 800 m 25
 437 800 l 25
 437 675 l 25
 313 675 l 25
 313 800 l 25
63 800 m 25
 187 800 l 25
 187 675 l 25
 63 675 l 25
 63 800 l 25
63 612 m 25
 437 612 l 25
 437 550 l 25
 187 550 l 25
 187 362 l 25
 375 362 l 25
 375 300 l 25
 187 300 l 25
 187 112 l 25
 437 112 l 25
 437 50 l 25
 63 50 l 25
 63 612 l 25
EndSplineSet
EndChar

StartChar: Igrave
Encoding: 204 204 141
Width: 500
Flags: HW
LayerCount: 2
Fore
SplineSet
125 612 m 25
 375 612 l 25
 375 550 l 25
 312 550 l 25
 312 112 l 25
 375 112 l 25
 375 50 l 25
 125 50 l 25
 125 112 l 25
 188 112 l 25
 188 550 l 25
 125 550 l 25
 125 612 l 25
125 800 m 25
 250 800 l 25
 250 737 l 25
 312 737 l 25
 312 675 l 25
 188 675 l 25
 188 738 l 25
 125 738 l 25
 125 800 l 25
EndSplineSet
EndChar

StartChar: Iacute
Encoding: 205 205 142
Width: 500
Flags: HW
LayerCount: 2
Fore
SplineSet
125 612 m 25
 375 612 l 25
 375 550 l 25
 312 550 l 25
 312 112 l 25
 375 112 l 25
 375 50 l 25
 125 50 l 25
 125 112 l 25
 188 112 l 25
 188 550 l 25
 125 550 l 25
 125 612 l 25
375 800 m 25
 250 800 l 25
 250 737 l 25
 188 737 l 25
 188 675 l 25
 312 675 l 25
 312 738 l 25
 375 738 l 25
 375 800 l 25
EndSplineSet
EndChar

StartChar: Icircumflex
Encoding: 206 206 143
Width: 500
Flags: HW
LayerCount: 2
Fore
SplineSet
125 800 m 25
 375 800 l 25
 375 737 l 25
 437 737 l 25
 437 675 l 25
 313 675 l 25
 313 738 l 25
 187 738 l 25
 187 675 l 25
 63 675 l 25
 63 737 l 25
 125 737 l 25
 125 800 l 25
125 612 m 25
 375 612 l 25
 375 550 l 25
 312 550 l 25
 312 112 l 25
 375 112 l 25
 375 50 l 25
 125 50 l 25
 125 112 l 25
 188 112 l 25
 188 550 l 25
 125 550 l 25
 125 612 l 25
EndSplineSet
EndChar

StartChar: Idieresis
Encoding: 207 207 144
Width: 500
Flags: HW
LayerCount: 2
Fore
SplineSet
313 800 m 25
 437 800 l 25
 437 675 l 25
 313 675 l 25
 313 800 l 25
63 800 m 25
 187 800 l 25
 187 675 l 25
 63 675 l 25
 63 800 l 25
125 612 m 25
 375 612 l 25
 375 550 l 25
 312 550 l 25
 312 112 l 25
 375 112 l 25
 375 50 l 25
 125 50 l 25
 125 112 l 25
 188 112 l 25
 188 550 l 25
 125 550 l 25
 125 612 l 25
EndSplineSet
EndChar

StartChar: Eth
Encoding: 208 208 145
Width: 500
Flags: HW
LayerCount: 2
Fore
SplineSet
63 612 m 1
 312 612 l 1
 312 550 l 1
 375 550 l 1
 375 487 l 1
 437 487 l 1
 437 175 l 1
 375 175 l 1
 375 113 l 1
 312 113 l 1
 312 110 312 50 312 50 c 1
 63 50 l 1
 63 300 l 1
 0 300 l 1
 0 362 l 1
 63 362 l 1
 63 612 l 1
187 300 m 1
 187 112 l 1
 250 112 l 1
 250 175 l 1
 313 175 l 1
 313 488 l 1
 250 488 l 1
 250 550 l 1
 187 550 l 1
 187 362 l 1
 250 362 l 1
 250 300 l 1
 187 300 l 1
EndSplineSet
EndChar

StartChar: Ntilde
Encoding: 209 209 146
Width: 500
Flags: HW
LayerCount: 2
Fore
SplineSet
63 612 m 25
 187 612 l 25
 187 487 l 25
 250 487 l 25
 250 425 l 25
 312 425 l 25
 312 362 l 25
 375 362 l 25
 375 612 l 25
 500 612 l 25
 500 50 l 25
 375 50 l 25
 375 238 l 25
 313 238 l 25
 313 300 l 25
 250 300 l 25
 250 363 l 25
 187 363 l 25
 187 50 l 25
 63 50 l 25
 63 612 l 25
125 800 m 25
 312 800 l 25
 312 737 l 25
 375 737 l 25
 375 800 l 25
 500 800 l 25
 500 738 l 25
 437 738 l 25
 437 675 l 25
 250 675 l 25
 250 738 l 25
 187 738 l 25
 187 675 l 25
 63 675 l 25
 63 737 l 25
 125 737 l 25
 125 800 l 25
EndSplineSet
EndChar

StartChar: Ograve
Encoding: 210 210 147
Width: 500
Flags: HW
LayerCount: 2
Fore
SplineSet
187 550 m 25
 187 112 l 25
 313 112 l 25
 313 550 l 25
 187 550 l 25
125 612 m 25
 375 612 l 25
 375 550 l 25
 437 550 l 25
 437 113 l 25
 375 113 l 25
 375 50 l 25
 125 50 l 25
 125 113 l 25
 63 113 l 25
 63 550 l 25
 125 550 l 25
 125 612 l 25
125 800 m 25
 250 800 l 25
 250 737 l 25
 312 737 l 25
 312 675 l 25
 188 675 l 25
 188 738 l 25
 125 738 l 25
 125 800 l 25
EndSplineSet
EndChar

StartChar: Oacute
Encoding: 211 211 148
Width: 500
Flags: HW
LayerCount: 2
Fore
SplineSet
187 550 m 25
 187 112 l 25
 313 112 l 25
 313 550 l 25
 187 550 l 25
125 612 m 25
 375 612 l 25
 375 550 l 25
 437 550 l 25
 437 113 l 25
 375 113 l 25
 375 50 l 25
 125 50 l 25
 125 113 l 25
 63 113 l 25
 63 550 l 25
 125 550 l 25
 125 612 l 25
375 800 m 25
 250 800 l 25
 250 737 l 25
 188 737 l 25
 188 675 l 25
 312 675 l 25
 312 738 l 25
 375 738 l 25
 375 800 l 25
EndSplineSet
EndChar

StartChar: Ocircumflex
Encoding: 212 212 149
Width: 500
Flags: HW
LayerCount: 2
Fore
SplineSet
125 800 m 25
 375 800 l 25
 375 737 l 25
 437 737 l 25
 437 675 l 25
 313 675 l 25
 313 738 l 25
 187 738 l 25
 187 675 l 25
 63 675 l 25
 63 737 l 25
 125 737 l 25
 125 800 l 25
187 550 m 25
 187 112 l 25
 313 112 l 25
 313 550 l 25
 187 550 l 25
125 612 m 25
 375 612 l 25
 375 550 l 25
 437 550 l 25
 437 113 l 25
 375 113 l 25
 375 50 l 25
 125 50 l 25
 125 113 l 25
 63 113 l 25
 63 550 l 25
 125 550 l 25
 125 612 l 25
EndSplineSet
EndChar

StartChar: Otilde
Encoding: 213 213 150
Width: 500
Flags: HW
LayerCount: 2
Fore
SplineSet
125 800 m 25
 312 800 l 25
 312 737 l 25
 375 737 l 25
 375 800 l 25
 500 800 l 25
 500 738 l 25
 437 738 l 25
 437 675 l 25
 250 675 l 25
 250 738 l 25
 187 738 l 25
 187 675 l 25
 63 675 l 25
 63 737 l 25
 125 737 l 25
 125 800 l 25
187 550 m 25
 187 112 l 25
 313 112 l 25
 313 550 l 25
 187 550 l 25
125 612 m 25
 375 612 l 25
 375 550 l 25
 437 550 l 25
 437 113 l 25
 375 113 l 25
 375 50 l 25
 125 50 l 25
 125 113 l 25
 63 113 l 25
 63 550 l 25
 125 550 l 25
 125 612 l 25
EndSplineSet
EndChar

StartChar: Odieresis
Encoding: 214 214 151
Width: 500
Flags: HW
LayerCount: 2
Fore
SplineSet
313 800 m 25
 437 800 l 25
 437 675 l 25
 313 675 l 25
 313 800 l 25
63 800 m 25
 187 800 l 25
 187 675 l 25
 63 675 l 25
 63 800 l 25
187 550 m 25
 187 112 l 25
 313 112 l 25
 313 550 l 25
 187 550 l 25
125 612 m 25
 375 612 l 25
 375 550 l 25
 437 550 l 25
 437 113 l 25
 375 113 l 25
 375 50 l 25
 125 50 l 25
 125 113 l 25
 63 113 l 25
 63 550 l 25
 125 550 l 25
 125 612 l 25
EndSplineSet
EndChar

StartChar: multiply
Encoding: 215 215 152
Width: 500
Flags: HW
LayerCount: 2
Fore
SplineSet
63 550 m 25
 125 550 l 25
 125 487 l 25
 187 487 l 25
 187 425 l 25
 313 425 l 25
 313 487 l 25
 375 487 l 25
 375 550 l 25
 437 550 l 25
 437 425 l 25
 375 425 l 25
 375 363 l 25
 312 363 l 25
 312 300 l 25
 375 300 l 25
 375 237 l 25
 437 237 l 25
 437 113 l 25
 375 113 l 25
 375 175 l 25
 313 175 l 25
 313 238 l 25
 187 238 l 25
 187 175 l 25
 125 175 l 25
 125 113 l 25
 63 113 l 25
 63 237 l 25
 125 237 l 25
 125 300 l 25
 188 300 l 25
 188 363 l 25
 125 363 l 25
 125 425 l 25
 63 425 l 25
 63 550 l 25
EndSplineSet
EndChar

StartChar: Oslash
Encoding: 216 216 153
Width: 500
Flags: HW
LayerCount: 2
Fore
SplineSet
250 300 m 25
 250 175 l 25
 187 175 l 25
 187 112 l 25
 313 112 l 25
 313 300 l 25
 250 300 l 25
187 550 m 25
 187 362 l 25
 250 362 l 25
 250 487 l 25
 313 487 l 25
 313 550 l 25
 187 550 l 25
125 612 m 25
 437 612 l 25
 437 113 l 25
 375 113 l 25
 375 50 l 25
 63 50 l 25
 63 550 l 25
 125 550 l 25
 125 612 l 25
EndSplineSet
EndChar

StartChar: Ugrave
Encoding: 217 217 154
Width: 500
Flags: HW
LayerCount: 2
Fore
SplineSet
63 612 m 25
 187 612 l 25
 187 112 l 25
 313 112 l 25
 313 612 l 25
 437 612 l 25
 437 113 l 25
 375 113 l 25
 375 50 l 25
 125 50 l 25
 125 113 l 25
 63 113 l 25
 63 612 l 25
125 800 m 25
 250 800 l 25
 250 737 l 25
 312 737 l 25
 312 675 l 25
 188 675 l 25
 188 738 l 25
 125 738 l 25
 125 800 l 25
EndSplineSet
EndChar

StartChar: Uacute
Encoding: 218 218 155
Width: 500
Flags: HW
LayerCount: 2
Fore
SplineSet
63 612 m 25
 187 612 l 25
 187 112 l 25
 313 112 l 25
 313 612 l 25
 437 612 l 25
 437 113 l 25
 375 113 l 25
 375 50 l 25
 125 50 l 25
 125 113 l 25
 63 113 l 25
 63 612 l 25
375 800 m 25
 250 800 l 25
 250 737 l 25
 188 737 l 25
 188 675 l 25
 312 675 l 25
 312 738 l 25
 375 738 l 25
 375 800 l 25
EndSplineSet
EndChar

StartChar: Ucircumflex
Encoding: 219 219 156
Width: 500
Flags: HW
LayerCount: 2
Fore
SplineSet
125 800 m 25
 375 800 l 25
 375 737 l 25
 437 737 l 25
 437 675 l 25
 313 675 l 25
 313 738 l 25
 187 738 l 25
 187 675 l 25
 63 675 l 25
 63 737 l 25
 125 737 l 25
 125 800 l 25
63 612 m 25
 187 612 l 25
 187 112 l 25
 313 112 l 25
 313 612 l 25
 437 612 l 25
 437 113 l 25
 375 113 l 25
 375 50 l 25
 125 50 l 25
 125 113 l 25
 63 113 l 25
 63 612 l 25
EndSplineSet
EndChar

StartChar: Udieresis
Encoding: 220 220 157
Width: 500
Flags: HW
LayerCount: 2
Fore
SplineSet
313 800 m 25
 437 800 l 25
 437 675 l 25
 313 675 l 25
 313 800 l 25
63 800 m 25
 187 800 l 25
 187 675 l 25
 63 675 l 25
 63 800 l 25
63 612 m 25
 187 612 l 25
 187 112 l 25
 313 112 l 25
 313 612 l 25
 437 612 l 25
 437 113 l 25
 375 113 l 25
 375 50 l 25
 125 50 l 25
 125 113 l 25
 63 113 l 25
 63 612 l 25
EndSplineSet
EndChar

StartChar: Yacute
Encoding: 221 221 158
Width: 500
Flags: HW
LayerCount: 2
Fore
SplineSet
63 612 m 25
 187 612 l 25
 187 362 l 25
 313 362 l 25
 313 612 l 25
 437 612 l 25
 437 363 l 25
 375 363 l 25
 375 300 l 25
 312 300 l 25
 312 50 l 25
 188 50 l 25
 188 300 l 25
 125 300 l 25
 125 363 l 25
 63 363 l 25
 63 612 l 25
375 800 m 25
 250 800 l 25
 250 737 l 25
 188 737 l 25
 188 675 l 25
 312 675 l 25
 312 738 l 25
 375 738 l 25
 375 800 l 25
EndSplineSet
EndChar

StartChar: Thorn
Encoding: 222 222 159
Width: 500
Flags: HW
LayerCount: 2
Fore
SplineSet
890 400 m 1049
187 425 m 25
 187 237 l 25
 313 237 l 25
 313 425 l 25
 187 425 l 25
63 612 m 25
 187 612 l 25
 187 487 l 25
 375 487 l 25
 375 425 l 25
 437 425 l 25
 437 238 l 25
 375 238 l 25
 375 175 l 25
 187 175 l 25
 187 50 l 25
 63 50 l 25
 63 612 l 25
EndSplineSet
EndChar

StartChar: germandbls
Encoding: 223 223 160
Width: 500
Flags: HW
LayerCount: 2
Fore
SplineSet
125 612 m 25
 312 612 l 25
 312 550 l 25
 375 550 l 25
 375 362 l 25
 437 362 l 25
 437 113 l 25
 375 113 l 25
 375 50 l 25
 250 50 l 25
 250 112 l 25
 313 112 l 25
 313 363 l 25
 250 363 l 25
 250 550 l 25
 187 550 l 25
 187 50 l 25
 63 50 l 25
 63 550 l 25
 125 550 l 25
 125 612 l 25
EndSplineSet
EndChar

StartChar: ccedilla
Encoding: 231 231 161
Width: 500
Flags: HW
LayerCount: 2
Fore
SplineSet
125 487 m 25
 375 487 l 25
 375 425 l 25
 437 425 l 25
 437 363 l 25
 313 363 l 25
 313 425 l 25
 187 425 l 25
 187 112 l 25
 313 112 l 25
 313 175 l 25
 437 175 l 25
 437 113 l 25
 375 113 l 25
 375 50 l 25
 312 50 l 25
 312 -13 l 25
 375 -13 l 25
 375 -75 l 25
 312 -75 l 25
 312 -200 l 25
 125 -200 l 25
 125 -75 l 25
 250 -75 l 25
 250 -12 l 25
 188 -12 l 25
 188 50 l 25
 125 50 l 25
 125 113 l 25
 63 113 l 25
 63 425 l 25
 125 425 l 25
 125 487 l 25
EndSplineSet
EndChar

StartChar: agrave
Encoding: 224 224 162
Width: 500
Flags: HW
LayerCount: 2
Fore
SplineSet
187 238 m 25
 187 112 l 25
 313 112 l 25
 313 238 l 25
 187 238 l 25
125 487 m 25
 375 487 l 25
 375 425 l 25
 437 425 l 25
 437 50 l 25
 125 50 l 25
 125 113 l 25
 63 113 l 25
 63 237 l 25
 125 237 l 25
 125 300 l 25
 313 300 l 25
 313 425 l 25
 125 425 l 25
 125 487 l 25
63 737 m 25
 250 737 l 25
 250 612 l 25
 312 612 l 25
 312 550 l 25
 188 550 l 25
 188 613 l 25
 125 613 l 25
 125 675 l 25
 63 675 l 25
 63 737 l 25
EndSplineSet
EndChar

StartChar: aacute
Encoding: 225 225 163
Width: 500
Flags: HW
LayerCount: 2
Fore
SplineSet
187 238 m 25
 187 112 l 25
 313 112 l 25
 313 238 l 25
 187 238 l 25
125 487 m 25
 375 487 l 25
 375 425 l 25
 437 425 l 25
 437 50 l 25
 125 50 l 25
 125 113 l 25
 63 113 l 25
 63 237 l 25
 125 237 l 25
 125 300 l 25
 313 300 l 25
 313 425 l 25
 125 425 l 25
 125 487 l 25
437 737 m 25
 250 737 l 25
 250 612 l 25
 188 612 l 25
 188 550 l 25
 312 550 l 25
 312 613 l 25
 375 613 l 25
 375 675 l 25
 437 675 l 25
 437 737 l 25
EndSplineSet
EndChar

StartChar: acircumflex
Encoding: 226 226 164
Width: 500
Flags: HW
LayerCount: 2
Fore
SplineSet
188 737 m 25
 312 737 l 25
 312 675 l 25
 375 675 l 25
 375 612 l 25
 437 612 l 25
 437 550 l 25
 313 550 l 25
 313 613 l 25
 187 613 l 25
 187 550 l 25
 63 550 l 25
 63 612 l 25
 125 612 l 25
 125 675 l 25
 188 675 l 25
 188 737 l 25
187 238 m 25
 187 112 l 25
 313 112 l 25
 313 238 l 25
 187 238 l 25
125 487 m 25
 375 487 l 25
 375 425 l 25
 437 425 l 25
 437 50 l 25
 125 50 l 25
 125 113 l 25
 63 113 l 25
 63 237 l 25
 125 237 l 25
 125 300 l 25
 313 300 l 25
 313 425 l 25
 125 425 l 25
 125 487 l 25
EndSplineSet
EndChar

StartChar: atilde
Encoding: 227 227 165
Width: 500
Flags: HW
LayerCount: 2
Fore
SplineSet
63 737 m 25
 250 737 l 25
 250 675 l 25
 312 675 l 25
 312 612 l 25
 375 612 l 25
 375 675 l 25
 438 675 l 25
 438 737 l 25
 500 737 l 25
 500 613 l 25
 437 613 l 25
 437 550 l 25
 250 550 l 25
 250 613 l 25
 188 613 l 25
 188 675 l 25
 125 675 l 25
 125 613 l 25
 62 613 l 25
 62 550 l 25
 0 550 l 25
 0 675 l 25
 63 675 l 25
 63 737 l 25
187 238 m 25
 187 112 l 25
 313 112 l 25
 313 238 l 25
 187 238 l 25
125 487 m 25
 375 487 l 25
 375 425 l 25
 437 425 l 25
 437 50 l 25
 125 50 l 25
 125 113 l 25
 63 113 l 25
 63 237 l 25
 125 237 l 25
 125 300 l 25
 313 300 l 25
 313 425 l 25
 125 425 l 25
 125 487 l 25
EndSplineSet
EndChar

StartChar: adieresis
Encoding: 228 228 166
Width: 500
Flags: HW
LayerCount: 2
Fore
SplineSet
313 675 m 25
 437 675 l 25
 437 550 l 25
 313 550 l 25
 313 675 l 25
63 675 m 25
 187 675 l 25
 187 550 l 25
 63 550 l 25
 63 675 l 25
187 238 m 25
 187 112 l 25
 313 112 l 25
 313 238 l 25
 187 238 l 25
125 487 m 25
 375 487 l 25
 375 425 l 25
 437 425 l 25
 437 50 l 25
 125 50 l 25
 125 113 l 25
 63 113 l 25
 63 237 l 25
 125 237 l 25
 125 300 l 25
 313 300 l 25
 313 425 l 25
 125 425 l 25
 125 487 l 25
EndSplineSet
EndChar

StartChar: aring
Encoding: 229 229 167
Width: 500
Flags: HW
LayerCount: 2
Fore
SplineSet
187 668 m 25
 187 609 l 25
 313 609 l 25
 313 668 l 25
 187 668 l 25
125 726 m 25
 375 726 l 25
 375 667 l 25
 437 667 l 25
 437 609 l 25
 375 609 l 25
 375 551 l 25
 125 551 l 25
 125 609 l 25
 63 609 l 25
 63 667 l 25
 125 667 l 25
 125 726 l 25
187 238 m 25
 187 112 l 25
 313 112 l 25
 313 238 l 25
 187 238 l 25
125 487 m 25
 375 487 l 25
 375 425 l 25
 437 425 l 25
 437 50 l 25
 125 50 l 25
 125 113 l 25
 63 113 l 25
 63 237 l 25
 125 237 l 25
 125 300 l 25
 313 300 l 25
 313 425 l 25
 125 425 l 25
 125 487 l 25
EndSplineSet
EndChar

StartChar: ae
Encoding: 230 230 168
Width: 500
Flags: HW
LayerCount: 2
Fore
SplineSet
124 238 m 25
 125 112 l 25
 188 112 l 25
 188 238 l 25
 124 238 l 25
312 425 m 25
 312 300 l 25
 375 300 l 25
 375 425 l 25
 312 425 l 25
73 487 m 25
 187 487 l 1
 187 427 l 1
 189 425 l 1
 250 425 l 1
 250 487 l 25
 437 487 l 25
 437 425 l 25
 474 425 l 25
 474 238 l 25
 312 238 l 1
 312 114 l 1
 314 112 l 1
 474 112 l 1
 474 50 l 25
 313 50 l 25
 313 111 l 25
 311 113 l 25
 250 113 l 25
 250 50 l 25
 73 50 l 25
 73 113 l 25
 22 113 l 25
 22 237 l 25
 73 237 l 25
 73 300 l 25
 188 300 l 25
 188 424 l 25
 186 426 l 25
 73 425 l 25
 73 487 l 25
EndSplineSet
EndChar

StartChar: egrave
Encoding: 232 232 169
Width: 500
Flags: HW
LayerCount: 2
Fore
SplineSet
187 425 m 25
 187 300 l 25
 313 300 l 25
 313 425 l 25
 187 425 l 25
125 487 m 25
 375 487 l 25
 375 425 l 25
 437 425 l 25
 437 238 l 25
 187 238 l 25
 187 112 l 25
 375 112 l 25
 375 50 l 25
 125 50 l 25
 125 113 l 25
 63 113 l 25
 63 425 l 25
 125 425 l 25
 125 487 l 25
63 737 m 25
 250 737 l 25
 250 612 l 25
 312 612 l 25
 312 550 l 25
 188 550 l 25
 188 613 l 25
 125 613 l 25
 125 675 l 25
 63 675 l 25
 63 737 l 25
EndSplineSet
EndChar

StartChar: eacute
Encoding: 233 233 170
Width: 500
Flags: HW
LayerCount: 2
Fore
SplineSet
187 425 m 25
 187 300 l 25
 313 300 l 25
 313 425 l 25
 187 425 l 25
125 487 m 25
 375 487 l 25
 375 425 l 25
 437 425 l 25
 437 238 l 25
 187 238 l 25
 187 112 l 25
 375 112 l 25
 375 50 l 25
 125 50 l 25
 125 113 l 25
 63 113 l 25
 63 425 l 25
 125 425 l 25
 125 487 l 25
437 737 m 25
 250 737 l 25
 250 612 l 25
 188 612 l 25
 188 550 l 25
 312 550 l 25
 312 613 l 25
 375 613 l 25
 375 675 l 25
 437 675 l 25
 437 737 l 25
EndSplineSet
EndChar

StartChar: ecircumflex
Encoding: 234 234 171
Width: 500
Flags: HW
LayerCount: 2
Fore
SplineSet
188 737 m 25
 312 737 l 25
 312 675 l 25
 375 675 l 25
 375 612 l 25
 437 612 l 25
 437 550 l 25
 313 550 l 25
 313 613 l 25
 187 613 l 25
 187 550 l 25
 63 550 l 25
 63 612 l 25
 125 612 l 25
 125 675 l 25
 188 675 l 25
 188 737 l 25
187 425 m 25
 187 300 l 25
 313 300 l 25
 313 425 l 25
 187 425 l 25
125 487 m 25
 375 487 l 25
 375 425 l 25
 437 425 l 25
 437 238 l 25
 187 238 l 25
 187 112 l 25
 375 112 l 25
 375 50 l 25
 125 50 l 25
 125 113 l 25
 63 113 l 25
 63 425 l 25
 125 425 l 25
 125 487 l 25
EndSplineSet
EndChar

StartChar: edieresis
Encoding: 235 235 172
Width: 500
Flags: HW
LayerCount: 2
Fore
SplineSet
313 675 m 25
 437 675 l 25
 437 550 l 25
 313 550 l 25
 313 675 l 25
63 675 m 25
 187 675 l 25
 187 550 l 25
 63 550 l 25
 63 675 l 25
187 425 m 25
 187 300 l 25
 313 300 l 25
 313 425 l 25
 187 425 l 25
125 487 m 25
 375 487 l 25
 375 425 l 25
 437 425 l 25
 437 238 l 25
 187 238 l 25
 187 112 l 25
 375 112 l 25
 375 50 l 25
 125 50 l 25
 125 113 l 25
 63 113 l 25
 63 425 l 25
 125 425 l 25
 125 487 l 25
EndSplineSet
EndChar

StartChar: igrave
Encoding: 236 236 173
Width: 500
Flags: HW
LayerCount: 2
Fore
SplineSet
63 487 m 25
 312 487 l 25
 312 112 l 25
 437 112 l 25
 437 50 l 25
 63 50 l 25
 63 112 l 25
 188 112 l 25
 188 425 l 25
 63 425 l 25
 63 487 l 25
63 737 m 25
 250 737 l 25
 250 612 l 25
 312 612 l 25
 312 550 l 25
 188 550 l 25
 188 613 l 25
 125 613 l 25
 125 675 l 25
 63 675 l 25
 63 737 l 25
EndSplineSet
EndChar

StartChar: iacute
Encoding: 237 237 174
Width: 500
Flags: HW
LayerCount: 2
Fore
SplineSet
63 487 m 25
 312 487 l 25
 312 112 l 25
 437 112 l 25
 437 50 l 25
 63 50 l 25
 63 112 l 25
 188 112 l 25
 188 425 l 25
 63 425 l 25
 63 487 l 25
437 737 m 25
 250 737 l 25
 250 612 l 25
 188 612 l 25
 188 550 l 25
 312 550 l 25
 312 613 l 25
 375 613 l 25
 375 675 l 25
 437 675 l 25
 437 737 l 25
EndSplineSet
EndChar

StartChar: icircumflex
Encoding: 238 238 175
Width: 500
Flags: HW
LayerCount: 2
Fore
SplineSet
188 737 m 25
 312 737 l 25
 312 675 l 25
 375 675 l 25
 375 612 l 25
 437 612 l 25
 437 550 l 25
 313 550 l 25
 313 613 l 25
 187 613 l 25
 187 550 l 25
 63 550 l 25
 63 612 l 25
 125 612 l 25
 125 675 l 25
 188 675 l 25
 188 737 l 25
63 487 m 25
 312 487 l 25
 312 112 l 25
 437 112 l 25
 437 50 l 25
 63 50 l 25
 63 112 l 25
 188 112 l 25
 188 425 l 25
 63 425 l 25
 63 487 l 25
EndSplineSet
EndChar

StartChar: idieresis
Encoding: 239 239 176
Width: 500
Flags: HW
LayerCount: 2
Fore
SplineSet
313 675 m 25
 437 675 l 25
 437 550 l 25
 313 550 l 25
 313 675 l 25
63 675 m 25
 187 675 l 25
 187 550 l 25
 63 550 l 25
 63 675 l 25
63 487 m 25
 312 487 l 25
 312 112 l 25
 437 112 l 25
 437 50 l 25
 63 50 l 25
 63 112 l 25
 188 112 l 25
 188 425 l 25
 63 425 l 25
 63 487 l 25
EndSplineSet
EndChar

StartChar: eth
Encoding: 240 240 177
Width: 500
Flags: HW
LayerCount: 2
Fore
SplineSet
187 359 m 25
 187 112 l 1
 313 112 l 25
 313 363 l 25
 191 363 l 1
 187 359 l 25
125 612 m 25
 250 612 l 25
 250 550 l 1
 307 550 l 1
 313 556 l 1
 313 612 l 1
 437 612 l 25
 437 550 l 1
 318 550 l 1
 312 544 l 1
 312 487 l 1
 375 487 l 25
 375 425 l 25
 437 425 l 25
 437 113 l 25
 375 113 l 25
 375 50 l 25
 125 50 l 25
 125 113 l 25
 63 113 l 25
 63 362 l 1
 185 362 l 1
 188 365 l 1
 188 414 l 0
 199 425 l 1
 250 425 l 1
 250 488 l 1
 194 488 l 1
 187 481 l 1
 187 437 l 1
 174 425 l 0
 63 425 l 1
 63 487 l 1
 181 487 l 1
 188 494 l 1
 188 550 l 1
 125 550 l 25
 125 612 l 25
EndSplineSet
EndChar

StartChar: ntilde
Encoding: 241 241 178
Width: 500
Flags: HW
LayerCount: 2
Fore
SplineSet
63 487 m 25
 375 487 l 25
 375 425 l 25
 437 425 l 25
 437 50 l 25
 313 50 l 25
 313 425 l 25
 187 425 l 25
 187 50 l 25
 63 50 l 25
 63 487 l 25
63 737 m 25
 250 737 l 25
 250 675 l 25
 312 675 l 25
 312 612 l 25
 375 612 l 25
 375 675 l 25
 438 675 l 25
 438 737 l 25
 500 737 l 25
 500 613 l 25
 437 613 l 25
 437 550 l 25
 250 550 l 25
 250 613 l 25
 188 613 l 25
 188 675 l 25
 125 675 l 25
 125 613 l 25
 62 613 l 25
 62 550 l 25
 0 550 l 25
 0 675 l 25
 63 675 l 25
 63 737 l 25
EndSplineSet
EndChar

StartChar: ograve
Encoding: 242 242 179
Width: 500
Flags: HW
LayerCount: 2
Fore
SplineSet
187 425 m 25
 187 112 l 25
 313 112 l 25
 313 425 l 25
 187 425 l 25
125 487 m 25
 375 487 l 25
 375 425 l 25
 437 425 l 25
 437 113 l 25
 375 113 l 25
 375 50 l 25
 125 50 l 25
 125 113 l 25
 63 113 l 25
 63 425 l 25
 125 425 l 25
 125 487 l 25
63 737 m 25
 250 737 l 25
 250 612 l 25
 312 612 l 25
 312 550 l 25
 188 550 l 25
 188 613 l 25
 125 613 l 25
 125 675 l 25
 63 675 l 25
 63 737 l 25
EndSplineSet
EndChar

StartChar: oacute
Encoding: 243 243 180
Width: 500
Flags: HW
LayerCount: 2
Fore
SplineSet
187 425 m 25
 187 112 l 25
 313 112 l 25
 313 425 l 25
 187 425 l 25
125 487 m 25
 375 487 l 25
 375 425 l 25
 437 425 l 25
 437 113 l 25
 375 113 l 25
 375 50 l 25
 125 50 l 25
 125 113 l 25
 63 113 l 25
 63 425 l 25
 125 425 l 25
 125 487 l 25
437 737 m 25
 250 737 l 25
 250 612 l 25
 188 612 l 25
 188 550 l 25
 312 550 l 25
 312 613 l 25
 375 613 l 25
 375 675 l 25
 437 675 l 25
 437 737 l 25
EndSplineSet
EndChar

StartChar: ocircumflex
Encoding: 244 244 181
Width: 500
Flags: HW
LayerCount: 2
Fore
SplineSet
188 737 m 25
 312 737 l 25
 312 675 l 25
 375 675 l 25
 375 612 l 25
 437 612 l 25
 437 550 l 25
 313 550 l 25
 313 613 l 25
 187 613 l 25
 187 550 l 25
 63 550 l 25
 63 612 l 25
 125 612 l 25
 125 675 l 25
 188 675 l 25
 188 737 l 25
187 425 m 25
 187 112 l 25
 313 112 l 25
 313 425 l 25
 187 425 l 25
125 487 m 25
 375 487 l 25
 375 425 l 25
 437 425 l 25
 437 113 l 25
 375 113 l 25
 375 50 l 25
 125 50 l 25
 125 113 l 25
 63 113 l 25
 63 425 l 25
 125 425 l 25
 125 487 l 25
EndSplineSet
EndChar

StartChar: otilde
Encoding: 245 245 182
Width: 500
Flags: HW
LayerCount: 2
Fore
SplineSet
63 737 m 25
 250 737 l 25
 250 675 l 25
 312 675 l 25
 312 612 l 25
 375 612 l 25
 375 675 l 25
 438 675 l 25
 438 737 l 25
 500 737 l 25
 500 613 l 25
 437 613 l 25
 437 550 l 25
 250 550 l 25
 250 613 l 25
 188 613 l 25
 188 675 l 25
 125 675 l 25
 125 613 l 25
 62 613 l 25
 62 550 l 25
 0 550 l 25
 0 675 l 25
 63 675 l 25
 63 737 l 25
187 425 m 25
 187 112 l 25
 313 112 l 25
 313 425 l 25
 187 425 l 25
125 487 m 25
 375 487 l 25
 375 425 l 25
 437 425 l 25
 437 113 l 25
 375 113 l 25
 375 50 l 25
 125 50 l 25
 125 113 l 25
 63 113 l 25
 63 425 l 25
 125 425 l 25
 125 487 l 25
EndSplineSet
EndChar

StartChar: odieresis
Encoding: 246 246 183
Width: 500
Flags: HW
LayerCount: 2
Fore
SplineSet
313 675 m 25
 437 675 l 25
 437 550 l 25
 313 550 l 25
 313 675 l 25
63 675 m 25
 187 675 l 25
 187 550 l 25
 63 550 l 25
 63 675 l 25
187 425 m 25
 187 112 l 25
 313 112 l 25
 313 425 l 25
 187 425 l 25
125 487 m 25
 375 487 l 25
 375 425 l 25
 437 425 l 25
 437 113 l 25
 375 113 l 25
 375 50 l 25
 125 50 l 25
 125 113 l 25
 63 113 l 25
 63 425 l 25
 125 425 l 25
 125 487 l 25
EndSplineSet
EndChar

StartChar: divide
Encoding: 247 247 184
Width: 500
Flags: HW
LayerCount: 2
Fore
SplineSet
188 237 m 25
 312 237 l 25
 312 113 l 25
 188 113 l 25
 188 237 l 25
63 362 m 25
 437 362 l 25
 437 300 l 25
 63 300 l 25
 63 362 l 25
188 550 m 25
 312 550 l 25
 312 425 l 25
 188 425 l 25
 188 550 l 25
EndSplineSet
EndChar

StartChar: oslash
Encoding: 248 248 185
Width: 500
Flags: HW
LayerCount: 2
Fore
SplineSet
250 238 m 25
 250 175 l 25
 187 175 l 25
 187 112 l 25
 313 112 l 25
 313 238 l 25
 250 238 l 25
187 425 m 25
 187 300 l 25
 250 300 l 25
 250 362 l 25
 313 362 l 25
 313 425 l 25
 187 425 l 25
125 487 m 25
 437 487 l 25
 437 113 l 25
 375 113 l 25
 375 50 l 25
 63 50 l 25
 63 425 l 25
 125 425 l 25
 125 487 l 25
EndSplineSet
EndChar

StartChar: ugrave
Encoding: 249 249 186
Width: 500
Flags: HW
LayerCount: 2
Fore
SplineSet
63 487 m 25
 187 487 l 25
 187 112 l 25
 313 112 l 25
 313 487 l 25
 437 487 l 25
 437 50 l 25
 125 50 l 25
 125 113 l 25
 63 113 l 25
 63 487 l 25
63 737 m 25
 250 737 l 25
 250 612 l 25
 312 612 l 25
 312 550 l 25
 188 550 l 25
 188 613 l 25
 125 613 l 25
 125 675 l 25
 63 675 l 25
 63 737 l 25
EndSplineSet
EndChar

StartChar: uacute
Encoding: 250 250 187
Width: 500
Flags: HW
LayerCount: 2
Fore
SplineSet
63 487 m 25
 187 487 l 25
 187 112 l 25
 313 112 l 25
 313 487 l 25
 437 487 l 25
 437 50 l 25
 125 50 l 25
 125 113 l 25
 63 113 l 25
 63 487 l 25
437 737 m 25
 250 737 l 25
 250 612 l 25
 188 612 l 25
 188 550 l 25
 312 550 l 25
 312 613 l 25
 375 613 l 25
 375 675 l 25
 437 675 l 25
 437 737 l 25
EndSplineSet
EndChar

StartChar: ucircumflex
Encoding: 251 251 188
Width: 500
Flags: HW
LayerCount: 2
Fore
SplineSet
188 737 m 25
 312 737 l 25
 312 675 l 25
 375 675 l 25
 375 612 l 25
 437 612 l 25
 437 550 l 25
 313 550 l 25
 313 613 l 25
 187 613 l 25
 187 550 l 25
 63 550 l 25
 63 612 l 25
 125 612 l 25
 125 675 l 25
 188 675 l 25
 188 737 l 25
63 487 m 25
 187 487 l 25
 187 112 l 25
 313 112 l 25
 313 487 l 25
 437 487 l 25
 437 50 l 25
 125 50 l 25
 125 113 l 25
 63 113 l 25
 63 487 l 25
EndSplineSet
EndChar

StartChar: udieresis
Encoding: 252 252 189
Width: 500
Flags: HW
LayerCount: 2
Fore
SplineSet
313 675 m 25
 437 675 l 25
 437 550 l 25
 313 550 l 25
 313 675 l 25
63 675 m 25
 187 675 l 25
 187 550 l 25
 63 550 l 25
 63 675 l 25
63 487 m 25
 187 487 l 25
 187 112 l 25
 313 112 l 25
 313 487 l 25
 437 487 l 25
 437 50 l 25
 125 50 l 25
 125 113 l 25
 63 113 l 25
 63 487 l 25
EndSplineSet
EndChar

StartChar: yacute
Encoding: 253 253 190
Width: 500
Flags: HW
LayerCount: 2
Fore
SplineSet
375 50 m 17
 375 113 l 1
 437 113 l 0
 437 487 l 9
 313 487 l 25
 313 112 l 25
 187 112 l 25
 187 487 l 25
 63 487 l 25
 63 113 l 25
 125 113 l 25
 125 50 l 1
 250 50 l 0
 250 50 250 12 250 -13 c 1
 188 -13 l 25
 188 -75 l 25
 0 -75 l 25
 0 -200 l 25
 250 -200 l 25
 250 -75 l 25
 312 -75 l 25
 312 -12 l 25
 375 -12 l 1
 375 50 l 17
437 737 m 25
 250 737 l 25
 250 612 l 25
 188 612 l 25
 188 550 l 25
 312 550 l 25
 312 613 l 25
 375 613 l 25
 375 675 l 25
 437 675 l 25
 437 737 l 25
EndSplineSet
EndChar

StartChar: thorn
Encoding: 254 254 191
Width: 500
Flags: HW
LayerCount: 2
Fore
SplineSet
890 400 m 1049
187 363 m 25
 187 112 l 25
 313 112 l 25
 313 363 l 25
 187 363 l 25
63 612 m 25
 187 612 l 25
 187 425 l 25
 375 425 l 25
 375 362 l 25
 437 362 l 25
 437 113 l 25
 375 113 l 25
 375 50 l 25
 187 50 l 25
 187 -200 l 25
 63 -200 l 25
 63 612 l 25
EndSplineSet
EndChar

StartChar: ydieresis
Encoding: 255 255 192
Width: 500
Flags: HW
LayerCount: 2
Fore
SplineSet
313 675 m 25
 437 675 l 25
 437 550 l 25
 313 550 l 25
 313 675 l 25
63 675 m 25
 187 675 l 25
 187 550 l 25
 63 550 l 25
 63 675 l 25
375 50 m 17
 375 113 l 1
 437 113 l 0
 437 487 l 9
 313 487 l 25
 313 112 l 25
 187 112 l 25
 187 487 l 25
 63 487 l 25
 63 113 l 25
 125 113 l 25
 125 50 l 1
 250 50 l 0
 250 50 250 12 250 -13 c 1
 188 -13 l 25
 188 -75 l 25
 0 -75 l 25
 0 -200 l 25
 250 -200 l 25
 250 -75 l 25
 312 -75 l 25
 312 -12 l 25
 375 -12 l 1
 375 50 l 17
EndSplineSet
EndChar

StartChar: uni0080
Encoding: 128 128 194
Width: 500
Flags: HW
LayerCount: 2
Fore
SplineSet
337 324 m 1
 288 324 l 1
 288 312 l 1
 288 300 l 1
 275 300 l 1
 263 300 l 1
 263 212 l 1
 263 124 l 1
 275 124 l 1
 288 124 l 1
 288 112 l 1
 288 100 l 1
 337 100 l 1
 388 100 l 1
 388 112 l 1
 388 124 l 1
 400 124 l 1
 413 124 l 1
 413 212 l 1
 413 300 l 1
 400 300 l 1
 388 300 l 1
 388 312 l 1
 388 324 l 1
 337 324 l 1
337 300 m 1
 363 300 l 1
 363 287 l 1
 363 277 l 1
 361 275 l 0
 350 275 l 1
 339 275 l 1
 337 272 l 0
 337 250 l 1
 337 227 l 1
 340 224 l 0
 350 224 l 1
 360 224 l 0
 363 222 l 1
 363 175 l 1
 363 128 l 1
 359 124 l 0
 337 124 l 1
 313 124 l 1
 313 137 l 1
 313 146 l 0
 316 150 l 1
 325 150 l 1
 335 150 l 1
 337 152 l 0
 337 175 l 1
 337 194 l 0
 337 196 l 1
 334 200 l 0
 325 200 l 1
 313 200 l 1
 313 250 l 1
 313 300 l 1
 337 300 l 1
287 569 m 1
 262 569 l 1
 262 545 l 1
 262 520 l 1
 275 520 l 1
 287 520 l 1
 287 507 l 1
 287 495 l 1
 299 495 l 1
 312 495 l 1
 312 469 l 1
 312 445 l 1
 299 445 l 1
 287 445 l 1
 287 432 l 1
 287 420 l 1
 275 420 l 1
 262 420 l 1
 262 382 l 1
 262 345 l 1
 287 345 l 1
 312 345 l 1
 312 395 l 1
 312 445 l 1
 325 445 l 1
 337 445 l 1
 337 432 l 1
 337 420 l 1
 349 420 l 1
 362 420 l 1
 362 382 l 1
 362 345 l 1
 387 345 l 1
 412 345 l 1
 412 382 l 1
 412 420 l 1
 399 420 l 1
 387 420 l 1
 387 432 l 1
 387 445 l 1
 375 445 l 1
 362 445 l 1
 362 469 l 1
 362 495 l 1
 375 495 l 1
 387 495 l 1
 387 507 l 1
 387 520 l 1
 399 520 l 1
 412 520 l 1
 412 545 l 1
 412 569 l 1
 387 569 l 1
 362 569 l 1
 362 532 l 1
 362 495 l 1
 349 495 l 1
 337 495 l 1
 337 507 l 1
 337 520 l 1
 325 520 l 1
 312 520 l 1
 312 545 l 1
 312 569 l 1
 287 569 l 1
165 572 m 1
 116 572 l 1
 116 560 l 1
 116 548 l 1
 103 548 l 1
 91 548 l 1
 91 460 l 1
 91 372 l 1
 103 372 l 1
 116 372 l 1
 116 360 l 1
 116 348 l 1
 165 348 l 1
 216 348 l 1
 216 360 l 1
 216 372 l 1
 228 372 l 1
 241 372 l 1
 241 460 l 1
 241 548 l 1
 228 548 l 1
 216 548 l 1
 216 560 l 1
 216 572 l 1
 165 572 l 1
165 548 m 1
 191 548 l 1
 191 535 l 1
 191 525 l 1
 189 523 l 0
 178 523 l 1
 167 523 l 1
 165 520 l 0
 165 498 l 1
 165 475 l 1
 168 472 l 0
 178 472 l 1
 188 472 l 0
 191 470 l 1
 191 423 l 1
 191 376 l 1
 187 372 l 0
 165 372 l 1
 141 372 l 1
 141 385 l 1
 141 394 l 0
 144 398 l 1
 153 398 l 1
 163 398 l 1
 165 400 l 0
 165 423 l 1
 165 442 l 0
 165 444 l 1
 162 448 l 0
 153 448 l 1
 141 448 l 1
 141 498 l 1
 141 548 l 1
 165 548 l 1
165 324 m 1
 115 324 l 1
 115 312 l 1
 115 300 l 1
 103 300 l 1
 90 300 l 1
 90 262 l 1
 90 224 l 1
 103 224 l 1
 115 224 l 1
 115 212 l 1
 115 200 l 1
 103 200 l 1
 90 200 l 1
 90 162 l 1
 90 124 l 1
 103 124 l 1
 115 124 l 1
 115 112 l 1
 115 100 l 1
 165 100 l 1
 215 100 l 1
 215 112 l 1
 215 124 l 1
 227 124 l 1
 240 124 l 1
 240 162 l 1
 240 200 l 1
 227 200 l 1
 215 200 l 1
 215 212 l 1
 215 224 l 1
 227 224 l 1
 240 224 l 1
 240 262 l 1
 240 300 l 1
 227 300 l 1
 215 300 l 1
 215 312 l 1
 215 324 l 1
 165 324 l 1
165 300 m 1
 190 300 l 1
 190 262 l 1
 190 224 l 1
 177 224 l 1
 165 224 l 1
 165 237 l 1
 165 250 l 1
 153 250 l 1
 140 250 l 1
 140 275 l 1
 140 300 l 1
 165 300 l 1
153 200 m 1
 165 200 l 1
 165 187 l 1
 165 175 l 1
 177 175 l 1
 190 175 l 1
 190 150 l 1
 190 124 l 1
 165 124 l 1
 140 124 l 1
 140 162 l 1
 140 200 l 1
 153 200 l 1
250 612 m 1
 433 612 l 0
 438 607 l 1
 438 331 l 1
 438 55 l 1
 433 50 l 0
 250 50 l 1
 67 50 l 1
 62 55 l 0
 62 331 l 1
 62 607 l 1
 67 612 l 0
 250 612 l 1
EndSplineSet
EndChar

StartChar: uni0081
Encoding: 129 129 195
Width: 500
Flags: HW
LayerCount: 2
Fore
SplineSet
375 320 m 1
 350 320 l 1
 350 308 l 1
 350 296 l 1
 338 296 l 1
 325 296 l 1
 325 283 l 1
 325 271 l 1
 300 271 l 1
 275 271 l 1
 275 258 l 1
 275 246 l 1
 313 246 l 1
 350 246 l 1
 350 171 l 1
 350 96 l 1
 375 96 l 1
 400 96 l 1
 400 208 l 1
 400 320 l 1
 375 320 l 1
287 569 m 1
 262 569 l 1
 262 545 l 1
 262 520 l 1
 275 520 l 1
 287 520 l 1
 287 507 l 1
 287 495 l 1
 299 495 l 1
 312 495 l 1
 312 469 l 1
 312 445 l 1
 299 445 l 1
 287 445 l 1
 287 432 l 1
 287 420 l 1
 275 420 l 1
 262 420 l 1
 262 382 l 1
 262 345 l 1
 287 345 l 1
 312 345 l 1
 312 395 l 1
 312 445 l 1
 325 445 l 1
 337 445 l 1
 337 432 l 1
 337 420 l 1
 349 420 l 1
 362 420 l 1
 362 382 l 1
 362 345 l 1
 387 345 l 1
 412 345 l 1
 412 382 l 1
 412 420 l 1
 399 420 l 1
 387 420 l 1
 387 432 l 1
 387 445 l 1
 375 445 l 1
 362 445 l 1
 362 469 l 1
 362 495 l 1
 375 495 l 1
 387 495 l 1
 387 507 l 1
 387 520 l 1
 399 520 l 1
 412 520 l 1
 412 545 l 1
 412 569 l 1
 387 569 l 1
 362 569 l 1
 362 532 l 1
 362 495 l 1
 349 495 l 1
 337 495 l 1
 337 507 l 1
 337 520 l 1
 325 520 l 1
 312 520 l 1
 312 545 l 1
 312 569 l 1
 287 569 l 1
165 572 m 1
 116 572 l 1
 116 560 l 1
 116 548 l 1
 103 548 l 1
 91 548 l 1
 91 460 l 1
 91 372 l 1
 103 372 l 1
 116 372 l 1
 116 360 l 1
 116 348 l 1
 165 348 l 1
 216 348 l 1
 216 360 l 1
 216 372 l 1
 228 372 l 1
 241 372 l 1
 241 460 l 1
 241 548 l 1
 228 548 l 1
 216 548 l 1
 216 560 l 1
 216 572 l 1
 165 572 l 1
165 548 m 1
 191 548 l 1
 191 535 l 1
 191 525 l 1
 189 523 l 0
 178 523 l 1
 167 523 l 1
 165 520 l 0
 165 498 l 1
 165 475 l 1
 168 472 l 0
 178 472 l 1
 188 472 l 0
 191 470 l 1
 191 423 l 1
 191 376 l 1
 187 372 l 0
 165 372 l 1
 141 372 l 1
 141 385 l 1
 141 394 l 0
 144 398 l 1
 153 398 l 1
 163 398 l 1
 165 400 l 0
 165 423 l 1
 165 442 l 0
 165 444 l 1
 162 448 l 0
 153 448 l 1
 141 448 l 1
 141 498 l 1
 141 548 l 1
 165 548 l 1
165 324 m 1
 115 324 l 1
 115 312 l 1
 115 300 l 1
 103 300 l 1
 90 300 l 1
 90 262 l 1
 90 224 l 1
 103 224 l 1
 115 224 l 1
 115 212 l 1
 115 200 l 1
 103 200 l 1
 90 200 l 1
 90 162 l 1
 90 124 l 1
 103 124 l 1
 115 124 l 1
 115 112 l 1
 115 100 l 1
 165 100 l 1
 215 100 l 1
 215 112 l 1
 215 124 l 1
 227 124 l 1
 240 124 l 1
 240 162 l 1
 240 200 l 1
 227 200 l 1
 215 200 l 1
 215 212 l 1
 215 224 l 1
 227 224 l 1
 240 224 l 1
 240 262 l 1
 240 300 l 1
 227 300 l 1
 215 300 l 1
 215 312 l 1
 215 324 l 1
 165 324 l 1
165 300 m 1
 190 300 l 1
 190 262 l 1
 190 224 l 1
 177 224 l 1
 165 224 l 1
 165 237 l 1
 165 250 l 1
 153 250 l 1
 140 250 l 1
 140 275 l 1
 140 300 l 1
 165 300 l 1
153 200 m 1
 165 200 l 1
 165 187 l 1
 165 175 l 1
 177 175 l 1
 190 175 l 1
 190 150 l 1
 190 124 l 1
 165 124 l 1
 140 124 l 1
 140 162 l 1
 140 200 l 1
 153 200 l 1
250 612 m 1
 433 612 l 0
 438 607 l 1
 438 331 l 1
 438 55 l 1
 433 50 l 0
 250 50 l 1
 67 50 l 1
 62 55 l 0
 62 331 l 1
 62 607 l 1
 67 612 l 0
 250 612 l 1
EndSplineSet
EndChar

StartChar: uni0001
Encoding: 1 1 196
Width: 500
Flags: HW
LayerCount: 2
Fore
SplineSet
375 320 m 1
 350 320 l 1
 350 308 l 1
 350 296 l 1
 338 296 l 1
 325 296 l 1
 325 283 l 1
 325 271 l 1
 300 271 l 1
 275 271 l 1
 275 258 l 1
 275 246 l 1
 313 246 l 1
 350 246 l 1
 350 171 l 1
 350 96 l 1
 375 96 l 1
 400 96 l 1
 400 208 l 1
 400 320 l 1
 375 320 l 1
165 315 m 1
 116 315 l 1
 116 303 l 1
 116 291 l 1
 103 291 l 1
 91 291 l 1
 91 203 l 1
 91 115 l 1
 103 115 l 1
 116 115 l 1
 116 103 l 1
 116 91 l 1
 165 91 l 1
 216 91 l 1
 216 103 l 1
 216 115 l 1
 228 115 l 1
 241 115 l 1
 241 203 l 1
 241 291 l 1
 228 291 l 1
 216 291 l 1
 216 303 l 1
 216 315 l 1
 165 315 l 1
165 291 m 1
 191 291 l 1
 191 278 l 1
 191 268 l 1
 189 266 l 0
 178 266 l 1
 167 266 l 1
 165 263 l 0
 165 241 l 1
 165 218 l 1
 168 215 l 0
 178 215 l 1
 188 215 l 0
 191 213 l 1
 191 166 l 1
 191 119 l 1
 187 115 l 0
 165 115 l 1
 141 115 l 1
 141 128 l 1
 141 137 l 0
 144 141 l 1
 153 141 l 1
 163 141 l 1
 165 143 l 0
 165 166 l 1
 165 185 l 0
 165 187 l 1
 162 191 l 0
 153 191 l 1
 141 191 l 1
 141 241 l 1
 141 291 l 1
 165 291 l 1
287 569 m 1
 262 569 l 1
 262 545 l 1
 262 520 l 1
 275 520 l 1
 287 520 l 1
 287 507 l 1
 287 495 l 1
 299 495 l 1
 312 495 l 1
 312 469 l 1
 312 445 l 1
 299 445 l 1
 287 445 l 1
 287 432 l 1
 287 420 l 1
 275 420 l 1
 262 420 l 1
 262 382 l 1
 262 345 l 1
 287 345 l 1
 312 345 l 1
 312 395 l 1
 312 445 l 1
 325 445 l 1
 337 445 l 1
 337 432 l 1
 337 420 l 1
 349 420 l 1
 362 420 l 1
 362 382 l 1
 362 345 l 1
 387 345 l 1
 412 345 l 1
 412 382 l 1
 412 420 l 1
 399 420 l 1
 387 420 l 1
 387 432 l 1
 387 445 l 1
 375 445 l 1
 362 445 l 1
 362 469 l 1
 362 495 l 1
 375 495 l 1
 387 495 l 1
 387 507 l 1
 387 520 l 1
 399 520 l 1
 412 520 l 1
 412 545 l 1
 412 569 l 1
 387 569 l 1
 362 569 l 1
 362 532 l 1
 362 495 l 1
 349 495 l 1
 337 495 l 1
 337 507 l 1
 337 520 l 1
 325 520 l 1
 312 520 l 1
 312 545 l 1
 312 569 l 1
 287 569 l 1
165 572 m 1
 116 572 l 1
 116 560 l 1
 116 548 l 1
 103 548 l 1
 91 548 l 1
 91 460 l 1
 91 372 l 1
 103 372 l 1
 116 372 l 1
 116 360 l 1
 116 348 l 1
 165 348 l 1
 216 348 l 1
 216 360 l 1
 216 372 l 1
 228 372 l 1
 241 372 l 1
 241 460 l 1
 241 548 l 1
 228 548 l 1
 216 548 l 1
 216 560 l 1
 216 572 l 1
 165 572 l 1
165 548 m 1
 191 548 l 1
 191 535 l 1
 191 525 l 1
 189 523 l 0
 178 523 l 1
 167 523 l 1
 165 520 l 0
 165 498 l 1
 165 475 l 1
 168 472 l 0
 178 472 l 1
 188 472 l 0
 191 470 l 1
 191 423 l 1
 191 376 l 1
 187 372 l 0
 165 372 l 1
 141 372 l 1
 141 385 l 1
 141 394 l 0
 144 398 l 1
 153 398 l 1
 163 398 l 1
 165 400 l 0
 165 423 l 1
 165 442 l 0
 165 444 l 1
 162 448 l 0
 153 448 l 1
 141 448 l 1
 141 498 l 1
 141 548 l 1
 165 548 l 1
250 612 m 1
 433 612 l 0
 438 607 l 1
 438 331 l 1
 438 55 l 1
 433 50 l 0
 250 50 l 1
 67 50 l 1
 62 55 l 0
 62 331 l 1
 62 607 l 1
 67 612 l 0
 250 612 l 1
EndSplineSet
EndChar

StartChar: uni0002
Encoding: 2 2 197
Width: 500
Flags: HW
LayerCount: 2
Fore
SplineSet
338 321 m 1
 288 321 l 1
 288 309 l 1
 288 297 l 1
 276 297 l 1
 263 297 l 1
 263 272 l 1
 263 247 l 1
 288 247 l 1
 313 247 l 1
 313 272 l 1
 313 297 l 1
 338 297 l 1
 363 297 l 1
 363 259 l 1
 363 221 l 1
 350 221 l 1
 338 221 l 1
 338 209 l 1
 338 197 l 1
 326 197 l 1
 313 197 l 1
 313 184 l 1
 313 172 l 1
 300 172 l 1
 288 172 l 1
 288 159 l 1
 288 147 l 1
 276 147 l 1
 263 147 l 1
 263 121 l 1
 263 97 l 1
 338 97 l 1
 413 97 l 1
 413 109 l 1
 413 121 l 1
 363 121 l 1
 313 121 l 1
 313 134 l 1
 313 147 l 1
 326 147 l 1
 338 147 l 1
 338 159 l 1
 338 172 l 1
 350 172 l 1
 363 172 l 1
 363 184 l 1
 363 197 l 1
 376 197 l 1
 388 197 l 1
 388 209 l 1
 388 221 l 1
 400 221 l 1
 413 221 l 1
 413 259 l 1
 413 297 l 1
 400 297 l 1
 388 297 l 1
 388 309 l 1
 388 321 l 1
 338 321 l 1
165 315 m 1
 116 315 l 1
 116 303 l 1
 116 291 l 1
 103 291 l 1
 91 291 l 1
 91 203 l 1
 91 115 l 1
 103 115 l 1
 116 115 l 1
 116 103 l 1
 116 91 l 1
 165 91 l 1
 216 91 l 1
 216 103 l 1
 216 115 l 1
 228 115 l 1
 241 115 l 1
 241 203 l 1
 241 291 l 1
 228 291 l 1
 216 291 l 1
 216 303 l 1
 216 315 l 1
 165 315 l 1
165 291 m 1
 191 291 l 1
 191 278 l 1
 191 268 l 1
 189 266 l 0
 178 266 l 1
 167 266 l 1
 165 263 l 0
 165 241 l 1
 165 218 l 1
 168 215 l 0
 178 215 l 1
 188 215 l 0
 191 213 l 1
 191 166 l 1
 191 119 l 1
 187 115 l 0
 165 115 l 1
 141 115 l 1
 141 128 l 1
 141 137 l 0
 144 141 l 1
 153 141 l 1
 163 141 l 1
 165 143 l 0
 165 166 l 1
 165 185 l 0
 165 187 l 1
 162 191 l 0
 153 191 l 1
 141 191 l 1
 141 241 l 1
 141 291 l 1
 165 291 l 1
287 569 m 1
 262 569 l 1
 262 545 l 1
 262 520 l 1
 275 520 l 1
 287 520 l 1
 287 507 l 1
 287 495 l 1
 299 495 l 1
 312 495 l 1
 312 469 l 1
 312 445 l 1
 299 445 l 1
 287 445 l 1
 287 432 l 1
 287 420 l 1
 275 420 l 1
 262 420 l 1
 262 382 l 1
 262 345 l 1
 287 345 l 1
 312 345 l 1
 312 395 l 1
 312 445 l 1
 325 445 l 1
 337 445 l 1
 337 432 l 1
 337 420 l 1
 349 420 l 1
 362 420 l 1
 362 382 l 1
 362 345 l 1
 387 345 l 1
 412 345 l 1
 412 382 l 1
 412 420 l 1
 399 420 l 1
 387 420 l 1
 387 432 l 1
 387 445 l 1
 375 445 l 1
 362 445 l 1
 362 469 l 1
 362 495 l 1
 375 495 l 1
 387 495 l 1
 387 507 l 1
 387 520 l 1
 399 520 l 1
 412 520 l 1
 412 545 l 1
 412 569 l 1
 387 569 l 1
 362 569 l 1
 362 532 l 1
 362 495 l 1
 349 495 l 1
 337 495 l 1
 337 507 l 1
 337 520 l 1
 325 520 l 1
 312 520 l 1
 312 545 l 1
 312 569 l 1
 287 569 l 1
165 572 m 1
 116 572 l 1
 116 560 l 1
 116 548 l 1
 103 548 l 1
 91 548 l 1
 91 460 l 1
 91 372 l 1
 103 372 l 1
 116 372 l 1
 116 360 l 1
 116 348 l 1
 165 348 l 1
 216 348 l 1
 216 360 l 1
 216 372 l 1
 228 372 l 1
 241 372 l 1
 241 460 l 1
 241 548 l 1
 228 548 l 1
 216 548 l 1
 216 560 l 1
 216 572 l 1
 165 572 l 1
165 548 m 1
 191 548 l 1
 191 535 l 1
 191 525 l 1
 189 523 l 0
 178 523 l 1
 167 523 l 1
 165 520 l 0
 165 498 l 1
 165 475 l 1
 168 472 l 0
 178 472 l 1
 188 472 l 0
 191 470 l 1
 191 423 l 1
 191 376 l 1
 187 372 l 0
 165 372 l 1
 141 372 l 1
 141 385 l 1
 141 394 l 0
 144 398 l 1
 153 398 l 1
 163 398 l 1
 165 400 l 0
 165 423 l 1
 165 442 l 0
 165 444 l 1
 162 448 l 0
 153 448 l 1
 141 448 l 1
 141 498 l 1
 141 548 l 1
 165 548 l 1
250 612 m 1
 433 612 l 0
 438 607 l 1
 438 331 l 1
 438 55 l 1
 433 50 l 0
 250 50 l 1
 67 50 l 1
 62 55 l 0
 62 331 l 1
 62 607 l 1
 67 612 l 0
 250 612 l 1
EndSplineSet
EndChar

StartChar: uni0003
Encoding: 3 3 198
Width: 500
Flags: HW
LayerCount: 2
Fore
SplineSet
337 320 m 1
 287 320 l 1
 287 308 l 1
 287 296 l 1
 275 296 l 1
 262 296 l 1
 262 271 l 1
 262 246 l 1
 287 246 l 1
 312 246 l 1
 312 271 l 1
 312 296 l 1
 337 296 l 1
 362 296 l 1
 362 258 l 1
 362 220 l 1
 337 220 l 1
 312 220 l 1
 312 208 l 1
 312 196 l 1
 337 196 l 1
 362 196 l 1
 362 158 l 1
 362 120 l 1
 337 120 l 1
 312 120 l 1
 312 146 l 1
 312 171 l 1
 287 171 l 1
 262 171 l 1
 262 146 l 1
 262 120 l 1
 275 120 l 1
 287 120 l 1
 287 108 l 1
 287 96 l 1
 337 96 l 1
 387 96 l 1
 387 108 l 1
 387 120 l 1
 399 120 l 1
 412 120 l 1
 412 158 l 1
 412 196 l 1
 399 196 l 1
 387 196 l 1
 387 208 l 1
 387 220 l 1
 399 220 l 1
 412 220 l 1
 412 258 l 1
 412 296 l 1
 399 296 l 1
 387 296 l 1
 387 308 l 1
 387 320 l 1
 337 320 l 1
165 315 m 1
 116 315 l 1
 116 303 l 1
 116 291 l 1
 103 291 l 1
 91 291 l 1
 91 203 l 1
 91 115 l 1
 103 115 l 1
 116 115 l 1
 116 103 l 1
 116 91 l 1
 165 91 l 1
 216 91 l 1
 216 103 l 1
 216 115 l 1
 228 115 l 1
 241 115 l 1
 241 203 l 1
 241 291 l 1
 228 291 l 1
 216 291 l 1
 216 303 l 1
 216 315 l 1
 165 315 l 1
165 291 m 1
 191 291 l 1
 191 278 l 1
 191 268 l 1
 189 266 l 0
 178 266 l 1
 167 266 l 1
 165 263 l 0
 165 241 l 1
 165 218 l 1
 168 215 l 0
 178 215 l 1
 188 215 l 0
 191 213 l 1
 191 166 l 1
 191 119 l 1
 187 115 l 0
 165 115 l 1
 141 115 l 1
 141 128 l 1
 141 137 l 0
 144 141 l 1
 153 141 l 1
 163 141 l 1
 165 143 l 0
 165 166 l 1
 165 185 l 0
 165 187 l 1
 162 191 l 0
 153 191 l 1
 141 191 l 1
 141 241 l 1
 141 291 l 1
 165 291 l 1
287 569 m 1
 262 569 l 1
 262 545 l 1
 262 520 l 1
 275 520 l 1
 287 520 l 1
 287 507 l 1
 287 495 l 1
 299 495 l 1
 312 495 l 1
 312 469 l 1
 312 445 l 1
 299 445 l 1
 287 445 l 1
 287 432 l 1
 287 420 l 1
 275 420 l 1
 262 420 l 1
 262 382 l 1
 262 345 l 1
 287 345 l 1
 312 345 l 1
 312 395 l 1
 312 445 l 1
 325 445 l 1
 337 445 l 1
 337 432 l 1
 337 420 l 1
 349 420 l 1
 362 420 l 1
 362 382 l 1
 362 345 l 1
 387 345 l 1
 412 345 l 1
 412 382 l 1
 412 420 l 1
 399 420 l 1
 387 420 l 1
 387 432 l 1
 387 445 l 1
 375 445 l 1
 362 445 l 1
 362 469 l 1
 362 495 l 1
 375 495 l 1
 387 495 l 1
 387 507 l 1
 387 520 l 1
 399 520 l 1
 412 520 l 1
 412 545 l 1
 412 569 l 1
 387 569 l 1
 362 569 l 1
 362 532 l 1
 362 495 l 1
 349 495 l 1
 337 495 l 1
 337 507 l 1
 337 520 l 1
 325 520 l 1
 312 520 l 1
 312 545 l 1
 312 569 l 1
 287 569 l 1
165 572 m 1
 116 572 l 1
 116 560 l 1
 116 548 l 1
 103 548 l 1
 91 548 l 1
 91 460 l 1
 91 372 l 1
 103 372 l 1
 116 372 l 1
 116 360 l 1
 116 348 l 1
 165 348 l 1
 216 348 l 1
 216 360 l 1
 216 372 l 1
 228 372 l 1
 241 372 l 1
 241 460 l 1
 241 548 l 1
 228 548 l 1
 216 548 l 1
 216 560 l 1
 216 572 l 1
 165 572 l 1
165 548 m 1
 191 548 l 1
 191 535 l 1
 191 525 l 1
 189 523 l 0
 178 523 l 1
 167 523 l 1
 165 520 l 0
 165 498 l 1
 165 475 l 1
 168 472 l 0
 178 472 l 1
 188 472 l 0
 191 470 l 1
 191 423 l 1
 191 376 l 1
 187 372 l 0
 165 372 l 1
 141 372 l 1
 141 385 l 1
 141 394 l 0
 144 398 l 1
 153 398 l 1
 163 398 l 1
 165 400 l 0
 165 423 l 1
 165 442 l 0
 165 444 l 1
 162 448 l 0
 153 448 l 1
 141 448 l 1
 141 498 l 1
 141 548 l 1
 165 548 l 1
250 612 m 1
 433 612 l 0
 438 607 l 1
 438 331 l 1
 438 55 l 1
 433 50 l 0
 250 50 l 1
 67 50 l 1
 62 55 l 0
 62 331 l 1
 62 607 l 1
 67 612 l 0
 250 612 l 1
EndSplineSet
EndChar

StartChar: uni0004
Encoding: 4 4 199
Width: 500
Flags: HW
LayerCount: 2
Fore
SplineSet
303 322 m 1
 278 322 l 1
 278 260 l 1
 278 198 l 1
 265 198 l 1
 252 198 l 1
 252 173 l 1
 252 148 l 1
 303 148 l 1
 352 148 l 1
 352 122 l 1
 352 98 l 1
 378 98 l 1
 403 98 l 1
 403 122 l 1
 403 148 l 1
 415 148 l 1
 428 148 l 1
 428 160 l 1
 428 173 l 1
 415 173 l 1
 403 173 l 1
 403 222 l 1
 403 273 l 1
 378 273 l 1
 352 273 l 1
 352 222 l 1
 352 173 l 1
 328 173 l 1
 303 173 l 1
 303 185 l 1
 303 198 l 1
 315 198 l 1
 328 198 l 1
 328 260 l 1
 328 322 l 1
 303 322 l 1
165 315 m 1
 116 315 l 1
 116 303 l 1
 116 291 l 1
 103 291 l 1
 91 291 l 1
 91 203 l 1
 91 115 l 1
 103 115 l 1
 116 115 l 1
 116 103 l 1
 116 91 l 1
 165 91 l 1
 216 91 l 1
 216 103 l 1
 216 115 l 1
 228 115 l 1
 241 115 l 1
 241 203 l 1
 241 291 l 1
 228 291 l 1
 216 291 l 1
 216 303 l 1
 216 315 l 1
 165 315 l 1
165 291 m 1
 191 291 l 1
 191 278 l 1
 191 268 l 1
 189 266 l 0
 178 266 l 1
 167 266 l 1
 165 263 l 0
 165 241 l 1
 165 218 l 1
 168 215 l 0
 178 215 l 1
 188 215 l 0
 191 213 l 1
 191 166 l 1
 191 119 l 1
 187 115 l 0
 165 115 l 1
 141 115 l 1
 141 128 l 1
 141 137 l 0
 144 141 l 1
 153 141 l 1
 163 141 l 1
 165 143 l 0
 165 166 l 1
 165 185 l 0
 165 187 l 1
 162 191 l 0
 153 191 l 1
 141 191 l 1
 141 241 l 1
 141 291 l 1
 165 291 l 1
287 569 m 1
 262 569 l 1
 262 545 l 1
 262 520 l 1
 275 520 l 1
 287 520 l 1
 287 507 l 1
 287 495 l 1
 299 495 l 1
 312 495 l 1
 312 469 l 1
 312 445 l 1
 299 445 l 1
 287 445 l 1
 287 432 l 1
 287 420 l 1
 275 420 l 1
 262 420 l 1
 262 382 l 1
 262 345 l 1
 287 345 l 1
 312 345 l 1
 312 395 l 1
 312 445 l 1
 325 445 l 1
 337 445 l 1
 337 432 l 1
 337 420 l 1
 349 420 l 1
 362 420 l 1
 362 382 l 1
 362 345 l 1
 387 345 l 1
 412 345 l 1
 412 382 l 1
 412 420 l 1
 399 420 l 1
 387 420 l 1
 387 432 l 1
 387 445 l 1
 375 445 l 1
 362 445 l 1
 362 469 l 1
 362 495 l 1
 375 495 l 1
 387 495 l 1
 387 507 l 1
 387 520 l 1
 399 520 l 1
 412 520 l 1
 412 545 l 1
 412 569 l 1
 387 569 l 1
 362 569 l 1
 362 532 l 1
 362 495 l 1
 349 495 l 1
 337 495 l 1
 337 507 l 1
 337 520 l 1
 325 520 l 1
 312 520 l 1
 312 545 l 1
 312 569 l 1
 287 569 l 1
165 572 m 1
 116 572 l 1
 116 560 l 1
 116 548 l 1
 103 548 l 1
 91 548 l 1
 91 460 l 1
 91 372 l 1
 103 372 l 1
 116 372 l 1
 116 360 l 1
 116 348 l 1
 165 348 l 1
 216 348 l 1
 216 360 l 1
 216 372 l 1
 228 372 l 1
 241 372 l 1
 241 460 l 1
 241 548 l 1
 228 548 l 1
 216 548 l 1
 216 560 l 1
 216 572 l 1
 165 572 l 1
165 548 m 1
 191 548 l 1
 191 535 l 1
 191 525 l 1
 189 523 l 0
 178 523 l 1
 167 523 l 1
 165 520 l 0
 165 498 l 1
 165 475 l 1
 168 472 l 0
 178 472 l 1
 188 472 l 0
 191 470 l 1
 191 423 l 1
 191 376 l 1
 187 372 l 0
 165 372 l 1
 141 372 l 1
 141 385 l 1
 141 394 l 0
 144 398 l 1
 153 398 l 1
 163 398 l 1
 165 400 l 0
 165 423 l 1
 165 442 l 0
 165 444 l 1
 162 448 l 0
 153 448 l 1
 141 448 l 1
 141 498 l 1
 141 548 l 1
 165 548 l 1
250 612 m 1
 433 612 l 0
 438 607 l 1
 438 331 l 1
 438 55 l 1
 433 50 l 0
 250 50 l 1
 67 50 l 1
 62 55 l 0
 62 331 l 1
 62 607 l 1
 67 612 l 0
 250 612 l 1
EndSplineSet
EndChar

StartChar: uni0005
Encoding: 5 5 200
Width: 500
Flags: HW
LayerCount: 2
Fore
SplineSet
342 321 m 1
 267 321 l 1
 267 259 l 1
 267 197 l 1
 317 197 l 1
 367 197 l 1
 367 172 l 1
 367 147 l 1
 354 147 l 1
 342 147 l 1
 342 134 l 1
 342 121 l 1
 304 121 l 1
 267 121 l 1
 267 109 l 1
 267 97 l 1
 317 97 l 1
 367 97 l 1
 367 109 l 1
 367 121 l 1
 380 121 l 1
 392 121 l 1
 392 134 l 1
 392 147 l 1
 404 147 l 1
 417 147 l 1
 417 172 l 1
 417 197 l 1
 404 197 l 1
 392 197 l 1
 392 209 l 1
 392 221 l 1
 354 221 l 1
 317 221 l 1
 317 259 l 1
 317 297 l 1
 367 297 l 1
 417 297 l 1
 417 309 l 1
 417 321 l 1
 342 321 l 1
165 315 m 1
 116 315 l 1
 116 303 l 1
 116 291 l 1
 103 291 l 1
 91 291 l 1
 91 203 l 1
 91 115 l 1
 103 115 l 1
 116 115 l 1
 116 103 l 1
 116 91 l 1
 165 91 l 1
 216 91 l 1
 216 103 l 1
 216 115 l 1
 228 115 l 1
 241 115 l 1
 241 203 l 1
 241 291 l 1
 228 291 l 1
 216 291 l 1
 216 303 l 1
 216 315 l 1
 165 315 l 1
165 291 m 1
 191 291 l 1
 191 278 l 1
 191 268 l 1
 189 266 l 0
 178 266 l 1
 167 266 l 1
 165 263 l 0
 165 241 l 1
 165 218 l 1
 168 215 l 0
 178 215 l 1
 188 215 l 0
 191 213 l 1
 191 166 l 1
 191 119 l 1
 187 115 l 0
 165 115 l 1
 141 115 l 1
 141 128 l 1
 141 137 l 0
 144 141 l 1
 153 141 l 1
 163 141 l 1
 165 143 l 0
 165 166 l 1
 165 185 l 0
 165 187 l 1
 162 191 l 0
 153 191 l 1
 141 191 l 1
 141 241 l 1
 141 291 l 1
 165 291 l 1
287 569 m 1
 262 569 l 1
 262 545 l 1
 262 520 l 1
 275 520 l 1
 287 520 l 1
 287 507 l 1
 287 495 l 1
 299 495 l 1
 312 495 l 1
 312 469 l 1
 312 445 l 1
 299 445 l 1
 287 445 l 1
 287 432 l 1
 287 420 l 1
 275 420 l 1
 262 420 l 1
 262 382 l 1
 262 345 l 1
 287 345 l 1
 312 345 l 1
 312 395 l 1
 312 445 l 1
 325 445 l 1
 337 445 l 1
 337 432 l 1
 337 420 l 1
 349 420 l 1
 362 420 l 1
 362 382 l 1
 362 345 l 1
 387 345 l 1
 412 345 l 1
 412 382 l 1
 412 420 l 1
 399 420 l 1
 387 420 l 1
 387 432 l 1
 387 445 l 1
 375 445 l 1
 362 445 l 1
 362 469 l 1
 362 495 l 1
 375 495 l 1
 387 495 l 1
 387 507 l 1
 387 520 l 1
 399 520 l 1
 412 520 l 1
 412 545 l 1
 412 569 l 1
 387 569 l 1
 362 569 l 1
 362 532 l 1
 362 495 l 1
 349 495 l 1
 337 495 l 1
 337 507 l 1
 337 520 l 1
 325 520 l 1
 312 520 l 1
 312 545 l 1
 312 569 l 1
 287 569 l 1
165 572 m 1
 116 572 l 1
 116 560 l 1
 116 548 l 1
 103 548 l 1
 91 548 l 1
 91 460 l 1
 91 372 l 1
 103 372 l 1
 116 372 l 1
 116 360 l 1
 116 348 l 1
 165 348 l 1
 216 348 l 1
 216 360 l 1
 216 372 l 1
 228 372 l 1
 241 372 l 1
 241 460 l 1
 241 548 l 1
 228 548 l 1
 216 548 l 1
 216 560 l 1
 216 572 l 1
 165 572 l 1
165 548 m 1
 191 548 l 1
 191 535 l 1
 191 525 l 1
 189 523 l 0
 178 523 l 1
 167 523 l 1
 165 520 l 0
 165 498 l 1
 165 475 l 1
 168 472 l 0
 178 472 l 1
 188 472 l 0
 191 470 l 1
 191 423 l 1
 191 376 l 1
 187 372 l 0
 165 372 l 1
 141 372 l 1
 141 385 l 1
 141 394 l 0
 144 398 l 1
 153 398 l 1
 163 398 l 1
 165 400 l 0
 165 423 l 1
 165 442 l 0
 165 444 l 1
 162 448 l 0
 153 448 l 1
 141 448 l 1
 141 498 l 1
 141 548 l 1
 165 548 l 1
250 612 m 1
 433 612 l 0
 438 607 l 1
 438 331 l 1
 438 55 l 1
 433 50 l 0
 250 50 l 1
 67 50 l 1
 62 55 l 0
 62 331 l 1
 62 607 l 1
 67 612 l 0
 250 612 l 1
EndSplineSet
EndChar

StartChar: uni0006
Encoding: 6 6 201
Width: 500
Flags: HW
LayerCount: 2
Fore
SplineSet
352 320 m 1
 315 320 l 1
 315 296 l 1
 315 271 l 1
 302 271 l 1
 290 271 l 1
 290 258 l 1
 290 246 l 1
 278 246 l 1
 265 246 l 1
 265 183 l 1
 265 120 l 1
 278 120 l 1
 290 120 l 1
 290 108 l 1
 290 96 l 1
 340 96 l 1
 390 96 l 1
 390 108 l 1
 390 120 l 1
 402 120 l 1
 415 120 l 1
 415 171 l 1
 415 220 l 1
 402 220 l 1
 390 220 l 1
 390 233 l 1
 390 246 l 1
 365 246 l 1
 340 246 l 1
 340 258 l 1
 340 271 l 1
 352 271 l 1
 365 271 l 1
 365 283 l 1
 365 296 l 1
 378 296 l 1
 390 296 l 1
 390 308 l 1
 390 320 l 1
 352 320 l 1
340 220 m 1
 365 220 l 1
 365 171 l 1
 365 120 l 1
 340 120 l 1
 315 120 l 1
 315 171 l 1
 315 220 l 1
 340 220 l 1
165 315 m 1
 116 315 l 1
 116 303 l 1
 116 291 l 1
 103 291 l 1
 91 291 l 1
 91 203 l 1
 91 115 l 1
 103 115 l 1
 116 115 l 1
 116 103 l 1
 116 91 l 1
 165 91 l 1
 216 91 l 1
 216 103 l 1
 216 115 l 1
 228 115 l 1
 241 115 l 1
 241 203 l 1
 241 291 l 1
 228 291 l 1
 216 291 l 1
 216 303 l 1
 216 315 l 1
 165 315 l 1
165 291 m 1
 191 291 l 1
 191 278 l 1
 191 268 l 1
 189 266 l 0
 178 266 l 1
 167 266 l 1
 165 263 l 0
 165 241 l 1
 165 218 l 1
 168 215 l 0
 178 215 l 1
 188 215 l 0
 191 213 l 1
 191 166 l 1
 191 119 l 1
 187 115 l 0
 165 115 l 1
 141 115 l 1
 141 128 l 1
 141 137 l 0
 144 141 l 1
 153 141 l 1
 163 141 l 1
 165 143 l 0
 165 166 l 1
 165 185 l 0
 165 187 l 1
 162 191 l 0
 153 191 l 1
 141 191 l 1
 141 241 l 1
 141 291 l 1
 165 291 l 1
287 569 m 1
 262 569 l 1
 262 545 l 1
 262 520 l 1
 275 520 l 1
 287 520 l 1
 287 507 l 1
 287 495 l 1
 299 495 l 1
 312 495 l 1
 312 469 l 1
 312 445 l 1
 299 445 l 1
 287 445 l 1
 287 432 l 1
 287 420 l 1
 275 420 l 1
 262 420 l 1
 262 382 l 1
 262 345 l 1
 287 345 l 1
 312 345 l 1
 312 395 l 1
 312 445 l 1
 325 445 l 1
 337 445 l 1
 337 432 l 1
 337 420 l 1
 349 420 l 1
 362 420 l 1
 362 382 l 1
 362 345 l 1
 387 345 l 1
 412 345 l 1
 412 382 l 1
 412 420 l 1
 399 420 l 1
 387 420 l 1
 387 432 l 1
 387 445 l 1
 375 445 l 1
 362 445 l 1
 362 469 l 1
 362 495 l 1
 375 495 l 1
 387 495 l 1
 387 507 l 1
 387 520 l 1
 399 520 l 1
 412 520 l 1
 412 545 l 1
 412 569 l 1
 387 569 l 1
 362 569 l 1
 362 532 l 1
 362 495 l 1
 349 495 l 1
 337 495 l 1
 337 507 l 1
 337 520 l 1
 325 520 l 1
 312 520 l 1
 312 545 l 1
 312 569 l 1
 287 569 l 1
165 572 m 1
 116 572 l 1
 116 560 l 1
 116 548 l 1
 103 548 l 1
 91 548 l 1
 91 460 l 1
 91 372 l 1
 103 372 l 1
 116 372 l 1
 116 360 l 1
 116 348 l 1
 165 348 l 1
 216 348 l 1
 216 360 l 1
 216 372 l 1
 228 372 l 1
 241 372 l 1
 241 460 l 1
 241 548 l 1
 228 548 l 1
 216 548 l 1
 216 560 l 1
 216 572 l 1
 165 572 l 1
165 548 m 1
 191 548 l 1
 191 535 l 1
 191 525 l 1
 189 523 l 0
 178 523 l 1
 167 523 l 1
 165 520 l 0
 165 498 l 1
 165 475 l 1
 168 472 l 0
 178 472 l 1
 188 472 l 0
 191 470 l 1
 191 423 l 1
 191 376 l 1
 187 372 l 0
 165 372 l 1
 141 372 l 1
 141 385 l 1
 141 394 l 0
 144 398 l 1
 153 398 l 1
 163 398 l 1
 165 400 l 0
 165 423 l 1
 165 442 l 0
 165 444 l 1
 162 448 l 0
 153 448 l 1
 141 448 l 1
 141 498 l 1
 141 548 l 1
 165 548 l 1
250 612 m 1
 433 612 l 0
 438 607 l 1
 438 331 l 1
 438 55 l 1
 433 50 l 0
 250 50 l 1
 67 50 l 1
 62 55 l 0
 62 331 l 1
 62 607 l 1
 67 612 l 0
 250 612 l 1
EndSplineSet
EndChar

StartChar: uni0007
Encoding: 7 7 202
Width: 500
Flags: HW
LayerCount: 2
Fore
SplineSet
341 322 m 1
 266 322 l 1
 266 310 l 1
 266 298 l 1
 316 298 l 1
 366 298 l 1
 366 285 l 1
 366 273 l 1
 353 273 l 1
 341 273 l 1
 341 248 l 1
 341 222 l 1
 329 222 l 1
 316 222 l 1
 316 198 l 1
 316 173 l 1
 303 173 l 1
 291 173 l 1
 291 135 l 1
 291 98 l 1
 316 98 l 1
 341 98 l 1
 341 135 l 1
 341 173 l 1
 353 173 l 1
 366 173 l 1
 366 198 l 1
 366 222 l 1
 379 222 l 1
 391 222 l 1
 391 248 l 1
 391 273 l 1
 403 273 l 1
 416 273 l 1
 416 298 l 1
 416 322 l 1
 341 322 l 1
165 315 m 1
 116 315 l 1
 116 303 l 1
 116 291 l 1
 103 291 l 1
 91 291 l 1
 91 203 l 1
 91 115 l 1
 103 115 l 1
 116 115 l 1
 116 103 l 1
 116 91 l 1
 165 91 l 1
 216 91 l 1
 216 103 l 1
 216 115 l 1
 228 115 l 1
 241 115 l 1
 241 203 l 1
 241 291 l 1
 228 291 l 1
 216 291 l 1
 216 303 l 1
 216 315 l 1
 165 315 l 1
165 291 m 1
 191 291 l 1
 191 278 l 1
 191 268 l 1
 189 266 l 0
 178 266 l 1
 167 266 l 1
 165 263 l 0
 165 241 l 1
 165 218 l 1
 168 215 l 0
 178 215 l 1
 188 215 l 0
 191 213 l 1
 191 166 l 1
 191 119 l 1
 187 115 l 0
 165 115 l 1
 141 115 l 1
 141 128 l 1
 141 137 l 0
 144 141 l 1
 153 141 l 1
 163 141 l 1
 165 143 l 0
 165 166 l 1
 165 185 l 0
 165 187 l 1
 162 191 l 0
 153 191 l 1
 141 191 l 1
 141 241 l 1
 141 291 l 1
 165 291 l 1
287 569 m 1
 262 569 l 1
 262 545 l 1
 262 520 l 1
 275 520 l 1
 287 520 l 1
 287 507 l 1
 287 495 l 1
 299 495 l 1
 312 495 l 1
 312 469 l 1
 312 445 l 1
 299 445 l 1
 287 445 l 1
 287 432 l 1
 287 420 l 1
 275 420 l 1
 262 420 l 1
 262 382 l 1
 262 345 l 1
 287 345 l 1
 312 345 l 1
 312 395 l 1
 312 445 l 1
 325 445 l 1
 337 445 l 1
 337 432 l 1
 337 420 l 1
 349 420 l 1
 362 420 l 1
 362 382 l 1
 362 345 l 1
 387 345 l 1
 412 345 l 1
 412 382 l 1
 412 420 l 1
 399 420 l 1
 387 420 l 1
 387 432 l 1
 387 445 l 1
 375 445 l 1
 362 445 l 1
 362 469 l 1
 362 495 l 1
 375 495 l 1
 387 495 l 1
 387 507 l 1
 387 520 l 1
 399 520 l 1
 412 520 l 1
 412 545 l 1
 412 569 l 1
 387 569 l 1
 362 569 l 1
 362 532 l 1
 362 495 l 1
 349 495 l 1
 337 495 l 1
 337 507 l 1
 337 520 l 1
 325 520 l 1
 312 520 l 1
 312 545 l 1
 312 569 l 1
 287 569 l 1
165 572 m 1
 116 572 l 1
 116 560 l 1
 116 548 l 1
 103 548 l 1
 91 548 l 1
 91 460 l 1
 91 372 l 1
 103 372 l 1
 116 372 l 1
 116 360 l 1
 116 348 l 1
 165 348 l 1
 216 348 l 1
 216 360 l 1
 216 372 l 1
 228 372 l 1
 241 372 l 1
 241 460 l 1
 241 548 l 1
 228 548 l 1
 216 548 l 1
 216 560 l 1
 216 572 l 1
 165 572 l 1
165 548 m 1
 191 548 l 1
 191 535 l 1
 191 525 l 1
 189 523 l 0
 178 523 l 1
 167 523 l 1
 165 520 l 0
 165 498 l 1
 165 475 l 1
 168 472 l 0
 178 472 l 1
 188 472 l 0
 191 470 l 1
 191 423 l 1
 191 376 l 1
 187 372 l 0
 165 372 l 1
 141 372 l 1
 141 385 l 1
 141 394 l 0
 144 398 l 1
 153 398 l 1
 163 398 l 1
 165 400 l 0
 165 423 l 1
 165 442 l 0
 165 444 l 1
 162 448 l 0
 153 448 l 1
 141 448 l 1
 141 498 l 1
 141 548 l 1
 165 548 l 1
250 612 m 1
 433 612 l 0
 438 607 l 1
 438 331 l 1
 438 55 l 1
 433 50 l 0
 250 50 l 1
 67 50 l 1
 62 55 l 0
 62 331 l 1
 62 607 l 1
 67 612 l 0
 250 612 l 1
EndSplineSet
EndChar

StartChar: uni0008
Encoding: 8 8 203
Width: 500
Flags: HW
LayerCount: 2
Fore
SplineSet
338 324 m 1
 288 324 l 1
 288 312 l 1
 288 300 l 1
 276 300 l 1
 263 300 l 1
 263 262 l 1
 263 224 l 1
 276 224 l 1
 288 224 l 1
 288 212 l 1
 288 200 l 1
 276 200 l 1
 263 200 l 1
 263 162 l 1
 263 124 l 1
 276 124 l 1
 288 124 l 1
 288 112 l 1
 288 100 l 1
 338 100 l 1
 388 100 l 1
 388 112 l 1
 388 124 l 1
 400 124 l 1
 413 124 l 1
 413 162 l 1
 413 200 l 1
 400 200 l 1
 388 200 l 1
 388 212 l 1
 388 224 l 1
 400 224 l 1
 413 224 l 1
 413 262 l 1
 413 300 l 1
 400 300 l 1
 388 300 l 1
 388 312 l 1
 388 324 l 1
 338 324 l 1
338 300 m 1
 363 300 l 1
 363 262 l 1
 363 224 l 1
 350 224 l 1
 338 224 l 1
 338 237 l 1
 338 250 l 1
 326 250 l 1
 313 250 l 1
 313 275 l 1
 313 300 l 1
 338 300 l 1
326 200 m 1
 338 200 l 1
 338 187 l 1
 338 175 l 1
 350 175 l 1
 363 175 l 1
 363 150 l 1
 363 124 l 1
 338 124 l 1
 313 124 l 1
 313 162 l 1
 313 200 l 1
 326 200 l 1
165 315 m 1
 116 315 l 1
 116 303 l 1
 116 291 l 1
 103 291 l 1
 91 291 l 1
 91 203 l 1
 91 115 l 1
 103 115 l 1
 116 115 l 1
 116 103 l 1
 116 91 l 1
 165 91 l 1
 216 91 l 1
 216 103 l 1
 216 115 l 1
 228 115 l 1
 241 115 l 1
 241 203 l 1
 241 291 l 1
 228 291 l 1
 216 291 l 1
 216 303 l 1
 216 315 l 1
 165 315 l 1
165 291 m 1
 191 291 l 1
 191 278 l 1
 191 268 l 1
 189 266 l 0
 178 266 l 1
 167 266 l 1
 165 263 l 0
 165 241 l 1
 165 218 l 1
 168 215 l 0
 178 215 l 1
 188 215 l 0
 191 213 l 1
 191 166 l 1
 191 119 l 1
 187 115 l 0
 165 115 l 1
 141 115 l 1
 141 128 l 1
 141 137 l 0
 144 141 l 1
 153 141 l 1
 163 141 l 1
 165 143 l 0
 165 166 l 1
 165 185 l 0
 165 187 l 1
 162 191 l 0
 153 191 l 1
 141 191 l 1
 141 241 l 1
 141 291 l 1
 165 291 l 1
287 569 m 1
 262 569 l 1
 262 545 l 1
 262 520 l 1
 275 520 l 1
 287 520 l 1
 287 507 l 1
 287 495 l 1
 299 495 l 1
 312 495 l 1
 312 469 l 1
 312 445 l 1
 299 445 l 1
 287 445 l 1
 287 432 l 1
 287 420 l 1
 275 420 l 1
 262 420 l 1
 262 382 l 1
 262 345 l 1
 287 345 l 1
 312 345 l 1
 312 395 l 1
 312 445 l 1
 325 445 l 1
 337 445 l 1
 337 432 l 1
 337 420 l 1
 349 420 l 1
 362 420 l 1
 362 382 l 1
 362 345 l 1
 387 345 l 1
 412 345 l 1
 412 382 l 1
 412 420 l 1
 399 420 l 1
 387 420 l 1
 387 432 l 1
 387 445 l 1
 375 445 l 1
 362 445 l 1
 362 469 l 1
 362 495 l 1
 375 495 l 1
 387 495 l 1
 387 507 l 1
 387 520 l 1
 399 520 l 1
 412 520 l 1
 412 545 l 1
 412 569 l 1
 387 569 l 1
 362 569 l 1
 362 532 l 1
 362 495 l 1
 349 495 l 1
 337 495 l 1
 337 507 l 1
 337 520 l 1
 325 520 l 1
 312 520 l 1
 312 545 l 1
 312 569 l 1
 287 569 l 1
165 572 m 1
 116 572 l 1
 116 560 l 1
 116 548 l 1
 103 548 l 1
 91 548 l 1
 91 460 l 1
 91 372 l 1
 103 372 l 1
 116 372 l 1
 116 360 l 1
 116 348 l 1
 165 348 l 1
 216 348 l 1
 216 360 l 1
 216 372 l 1
 228 372 l 1
 241 372 l 1
 241 460 l 1
 241 548 l 1
 228 548 l 1
 216 548 l 1
 216 560 l 1
 216 572 l 1
 165 572 l 1
165 548 m 1
 191 548 l 1
 191 535 l 1
 191 525 l 1
 189 523 l 0
 178 523 l 1
 167 523 l 1
 165 520 l 0
 165 498 l 1
 165 475 l 1
 168 472 l 0
 178 472 l 1
 188 472 l 0
 191 470 l 1
 191 423 l 1
 191 376 l 1
 187 372 l 0
 165 372 l 1
 141 372 l 1
 141 385 l 1
 141 394 l 0
 144 398 l 1
 153 398 l 1
 163 398 l 1
 165 400 l 0
 165 423 l 1
 165 442 l 0
 165 444 l 1
 162 448 l 0
 153 448 l 1
 141 448 l 1
 141 498 l 1
 141 548 l 1
 165 548 l 1
250 612 m 1
 433 612 l 0
 438 607 l 1
 438 331 l 1
 438 55 l 1
 433 50 l 0
 250 50 l 1
 67 50 l 1
 62 55 l 0
 62 331 l 1
 62 607 l 1
 67 612 l 0
 250 612 l 1
EndSplineSet
EndChar

StartChar: uni000B
Encoding: 11 11 204
Width: 500
Flags: HW
LayerCount: 2
Fore
SplineSet
324 321 m 1
 261 321 l 1
 261 209 l 1
 261 97 l 1
 324 97 l 1
 386 97 l 1
 386 109 l 1
 386 121 l 1
 398 121 l 1
 411 121 l 1
 411 159 l 1
 411 197 l 1
 398 197 l 1
 386 197 l 1
 386 209 l 1
 386 221 l 1
 398 221 l 1
 411 221 l 1
 411 259 l 1
 411 297 l 1
 398 297 l 1
 386 297 l 1
 386 309 l 1
 386 321 l 1
 324 321 l 1
336 297 m 1
 361 297 l 1
 361 259 l 1
 361 221 l 1
 336 221 l 1
 311 221 l 1
 311 259 l 1
 311 297 l 1
 336 297 l 1
336 197 m 1
 361 197 l 1
 361 159 l 1
 361 121 l 1
 336 121 l 1
 311 121 l 1
 311 159 l 1
 311 197 l 1
 336 197 l 1
165 315 m 1
 116 315 l 1
 116 303 l 1
 116 291 l 1
 103 291 l 1
 91 291 l 1
 91 203 l 1
 91 115 l 1
 103 115 l 1
 116 115 l 1
 116 103 l 1
 116 91 l 1
 165 91 l 1
 216 91 l 1
 216 103 l 1
 216 115 l 1
 228 115 l 1
 241 115 l 1
 241 203 l 1
 241 291 l 1
 228 291 l 1
 216 291 l 1
 216 303 l 1
 216 315 l 1
 165 315 l 1
165 291 m 1
 191 291 l 1
 191 278 l 1
 191 268 l 1
 189 266 l 0
 178 266 l 1
 167 266 l 1
 165 263 l 0
 165 241 l 1
 165 218 l 1
 168 215 l 0
 178 215 l 1
 188 215 l 0
 191 213 l 1
 191 166 l 1
 191 119 l 1
 187 115 l 0
 165 115 l 1
 141 115 l 1
 141 128 l 1
 141 137 l 0
 144 141 l 1
 153 141 l 1
 163 141 l 1
 165 143 l 0
 165 166 l 1
 165 185 l 0
 165 187 l 1
 162 191 l 0
 153 191 l 1
 141 191 l 1
 141 241 l 1
 141 291 l 1
 165 291 l 1
287 569 m 1
 262 569 l 1
 262 545 l 1
 262 520 l 1
 275 520 l 1
 287 520 l 1
 287 507 l 1
 287 495 l 1
 299 495 l 1
 312 495 l 1
 312 469 l 1
 312 445 l 1
 299 445 l 1
 287 445 l 1
 287 432 l 1
 287 420 l 1
 275 420 l 1
 262 420 l 1
 262 382 l 1
 262 345 l 1
 287 345 l 1
 312 345 l 1
 312 395 l 1
 312 445 l 1
 325 445 l 1
 337 445 l 1
 337 432 l 1
 337 420 l 1
 349 420 l 1
 362 420 l 1
 362 382 l 1
 362 345 l 1
 387 345 l 1
 412 345 l 1
 412 382 l 1
 412 420 l 1
 399 420 l 1
 387 420 l 1
 387 432 l 1
 387 445 l 1
 375 445 l 1
 362 445 l 1
 362 469 l 1
 362 495 l 1
 375 495 l 1
 387 495 l 1
 387 507 l 1
 387 520 l 1
 399 520 l 1
 412 520 l 1
 412 545 l 1
 412 569 l 1
 387 569 l 1
 362 569 l 1
 362 532 l 1
 362 495 l 1
 349 495 l 1
 337 495 l 1
 337 507 l 1
 337 520 l 1
 325 520 l 1
 312 520 l 1
 312 545 l 1
 312 569 l 1
 287 569 l 1
165 572 m 1
 116 572 l 1
 116 560 l 1
 116 548 l 1
 103 548 l 1
 91 548 l 1
 91 460 l 1
 91 372 l 1
 103 372 l 1
 116 372 l 1
 116 360 l 1
 116 348 l 1
 165 348 l 1
 216 348 l 1
 216 360 l 1
 216 372 l 1
 228 372 l 1
 241 372 l 1
 241 460 l 1
 241 548 l 1
 228 548 l 1
 216 548 l 1
 216 560 l 1
 216 572 l 1
 165 572 l 1
165 548 m 1
 191 548 l 1
 191 535 l 1
 191 525 l 1
 189 523 l 0
 178 523 l 1
 167 523 l 1
 165 520 l 0
 165 498 l 1
 165 475 l 1
 168 472 l 0
 178 472 l 1
 188 472 l 0
 191 470 l 1
 191 423 l 1
 191 376 l 1
 187 372 l 0
 165 372 l 1
 141 372 l 1
 141 385 l 1
 141 394 l 0
 144 398 l 1
 153 398 l 1
 163 398 l 1
 165 400 l 0
 165 423 l 1
 165 442 l 0
 165 444 l 1
 162 448 l 0
 153 448 l 1
 141 448 l 1
 141 498 l 1
 141 548 l 1
 165 548 l 1
250 612 m 1
 433 612 l 0
 438 607 l 1
 438 331 l 1
 438 55 l 1
 433 50 l 0
 250 50 l 1
 67 50 l 1
 62 55 l 0
 62 331 l 1
 62 607 l 1
 67 612 l 0
 250 612 l 1
EndSplineSet
EndChar

StartChar: uni000C
Encoding: 12 12 205
Width: 500
Flags: HW
LayerCount: 2
Fore
SplineSet
341 320 m 1
 291 320 l 1
 291 308 l 1
 291 296 l 1
 279 296 l 1
 266 296 l 1
 266 208 l 1
 266 120 l 1
 279 120 l 1
 291 120 l 1
 291 108 l 1
 291 96 l 1
 341 96 l 1
 391 96 l 1
 391 108 l 1
 391 120 l 1
 403 120 l 1
 416 120 l 1
 416 146 l 1
 416 171 l 1
 391 171 l 1
 366 171 l 1
 366 146 l 1
 366 120 l 1
 341 120 l 1
 316 120 l 1
 316 208 l 1
 316 296 l 1
 341 296 l 1
 366 296 l 1
 366 271 l 1
 366 246 l 1
 391 246 l 1
 416 246 l 1
 416 271 l 1
 416 296 l 1
 403 296 l 1
 391 296 l 1
 391 308 l 1
 391 320 l 1
 341 320 l 1
165 315 m 1
 116 315 l 1
 116 303 l 1
 116 291 l 1
 103 291 l 1
 91 291 l 1
 91 203 l 1
 91 115 l 1
 103 115 l 1
 116 115 l 1
 116 103 l 1
 116 91 l 1
 165 91 l 1
 216 91 l 1
 216 103 l 1
 216 115 l 1
 228 115 l 1
 241 115 l 1
 241 203 l 1
 241 291 l 1
 228 291 l 1
 216 291 l 1
 216 303 l 1
 216 315 l 1
 165 315 l 1
165 291 m 1
 191 291 l 1
 191 278 l 1
 191 268 l 1
 189 266 l 0
 178 266 l 1
 167 266 l 1
 165 263 l 0
 165 241 l 1
 165 218 l 1
 168 215 l 0
 178 215 l 1
 188 215 l 0
 191 213 l 1
 191 166 l 1
 191 119 l 1
 187 115 l 0
 165 115 l 1
 141 115 l 1
 141 128 l 1
 141 137 l 0
 144 141 l 1
 153 141 l 1
 163 141 l 1
 165 143 l 0
 165 166 l 1
 165 185 l 0
 165 187 l 1
 162 191 l 0
 153 191 l 1
 141 191 l 1
 141 241 l 1
 141 291 l 1
 165 291 l 1
287 569 m 1
 262 569 l 1
 262 545 l 1
 262 520 l 1
 275 520 l 1
 287 520 l 1
 287 507 l 1
 287 495 l 1
 299 495 l 1
 312 495 l 1
 312 469 l 1
 312 445 l 1
 299 445 l 1
 287 445 l 1
 287 432 l 1
 287 420 l 1
 275 420 l 1
 262 420 l 1
 262 382 l 1
 262 345 l 1
 287 345 l 1
 312 345 l 1
 312 395 l 1
 312 445 l 1
 325 445 l 1
 337 445 l 1
 337 432 l 1
 337 420 l 1
 349 420 l 1
 362 420 l 1
 362 382 l 1
 362 345 l 1
 387 345 l 1
 412 345 l 1
 412 382 l 1
 412 420 l 1
 399 420 l 1
 387 420 l 1
 387 432 l 1
 387 445 l 1
 375 445 l 1
 362 445 l 1
 362 469 l 1
 362 495 l 1
 375 495 l 1
 387 495 l 1
 387 507 l 1
 387 520 l 1
 399 520 l 1
 412 520 l 1
 412 545 l 1
 412 569 l 1
 387 569 l 1
 362 569 l 1
 362 532 l 1
 362 495 l 1
 349 495 l 1
 337 495 l 1
 337 507 l 1
 337 520 l 1
 325 520 l 1
 312 520 l 1
 312 545 l 1
 312 569 l 1
 287 569 l 1
165 572 m 1
 116 572 l 1
 116 560 l 1
 116 548 l 1
 103 548 l 1
 91 548 l 1
 91 460 l 1
 91 372 l 1
 103 372 l 1
 116 372 l 1
 116 360 l 1
 116 348 l 1
 165 348 l 1
 216 348 l 1
 216 360 l 1
 216 372 l 1
 228 372 l 1
 241 372 l 1
 241 460 l 1
 241 548 l 1
 228 548 l 1
 216 548 l 1
 216 560 l 1
 216 572 l 1
 165 572 l 1
165 548 m 1
 191 548 l 1
 191 535 l 1
 191 525 l 1
 189 523 l 0
 178 523 l 1
 167 523 l 1
 165 520 l 0
 165 498 l 1
 165 475 l 1
 168 472 l 0
 178 472 l 1
 188 472 l 0
 191 470 l 1
 191 423 l 1
 191 376 l 1
 187 372 l 0
 165 372 l 1
 141 372 l 1
 141 385 l 1
 141 394 l 0
 144 398 l 1
 153 398 l 1
 163 398 l 1
 165 400 l 0
 165 423 l 1
 165 442 l 0
 165 444 l 1
 162 448 l 0
 153 448 l 1
 141 448 l 1
 141 498 l 1
 141 548 l 1
 165 548 l 1
250 612 m 1
 433 612 l 0
 438 607 l 1
 438 331 l 1
 438 55 l 1
 433 50 l 0
 250 50 l 1
 67 50 l 1
 62 55 l 0
 62 331 l 1
 62 607 l 1
 67 612 l 0
 250 612 l 1
EndSplineSet
EndChar

StartChar: uni000E
Encoding: 14 14 206
Width: 500
Flags: HW
LayerCount: 2
Fore
SplineSet
339 321 m 1
 264 321 l 1
 264 209 l 1
 264 97 l 1
 339 97 l 1
 414 97 l 1
 414 109 l 1
 414 121 l 1
 364 121 l 1
 314 121 l 1
 314 159 l 1
 314 197 l 1
 351 197 l 1
 389 197 l 1
 389 209 l 1
 389 221 l 1
 351 221 l 1
 314 221 l 1
 314 259 l 1
 314 297 l 1
 364 297 l 1
 414 297 l 1
 414 309 l 1
 414 321 l 1
 339 321 l 1
165 315 m 1
 116 315 l 1
 116 303 l 1
 116 291 l 1
 103 291 l 1
 91 291 l 1
 91 203 l 1
 91 115 l 1
 103 115 l 1
 116 115 l 1
 116 103 l 1
 116 91 l 1
 165 91 l 1
 216 91 l 1
 216 103 l 1
 216 115 l 1
 228 115 l 1
 241 115 l 1
 241 203 l 1
 241 291 l 1
 228 291 l 1
 216 291 l 1
 216 303 l 1
 216 315 l 1
 165 315 l 1
165 291 m 1
 191 291 l 1
 191 278 l 1
 191 268 l 1
 189 266 l 0
 178 266 l 1
 167 266 l 1
 165 263 l 0
 165 241 l 1
 165 218 l 1
 168 215 l 0
 178 215 l 1
 188 215 l 0
 191 213 l 1
 191 166 l 1
 191 119 l 1
 187 115 l 0
 165 115 l 1
 141 115 l 1
 141 128 l 1
 141 137 l 0
 144 141 l 1
 153 141 l 1
 163 141 l 1
 165 143 l 0
 165 166 l 1
 165 185 l 0
 165 187 l 1
 162 191 l 0
 153 191 l 1
 141 191 l 1
 141 241 l 1
 141 291 l 1
 165 291 l 1
287 569 m 1
 262 569 l 1
 262 545 l 1
 262 520 l 1
 275 520 l 1
 287 520 l 1
 287 507 l 1
 287 495 l 1
 299 495 l 1
 312 495 l 1
 312 469 l 1
 312 445 l 1
 299 445 l 1
 287 445 l 1
 287 432 l 1
 287 420 l 1
 275 420 l 1
 262 420 l 1
 262 382 l 1
 262 345 l 1
 287 345 l 1
 312 345 l 1
 312 395 l 1
 312 445 l 1
 325 445 l 1
 337 445 l 1
 337 432 l 1
 337 420 l 1
 349 420 l 1
 362 420 l 1
 362 382 l 1
 362 345 l 1
 387 345 l 1
 412 345 l 1
 412 382 l 1
 412 420 l 1
 399 420 l 1
 387 420 l 1
 387 432 l 1
 387 445 l 1
 375 445 l 1
 362 445 l 1
 362 469 l 1
 362 495 l 1
 375 495 l 1
 387 495 l 1
 387 507 l 1
 387 520 l 1
 399 520 l 1
 412 520 l 1
 412 545 l 1
 412 569 l 1
 387 569 l 1
 362 569 l 1
 362 532 l 1
 362 495 l 1
 349 495 l 1
 337 495 l 1
 337 507 l 1
 337 520 l 1
 325 520 l 1
 312 520 l 1
 312 545 l 1
 312 569 l 1
 287 569 l 1
165 572 m 1
 116 572 l 1
 116 560 l 1
 116 548 l 1
 103 548 l 1
 91 548 l 1
 91 460 l 1
 91 372 l 1
 103 372 l 1
 116 372 l 1
 116 360 l 1
 116 348 l 1
 165 348 l 1
 216 348 l 1
 216 360 l 1
 216 372 l 1
 228 372 l 1
 241 372 l 1
 241 460 l 1
 241 548 l 1
 228 548 l 1
 216 548 l 1
 216 560 l 1
 216 572 l 1
 165 572 l 1
165 548 m 1
 191 548 l 1
 191 535 l 1
 191 525 l 1
 189 523 l 0
 178 523 l 1
 167 523 l 1
 165 520 l 0
 165 498 l 1
 165 475 l 1
 168 472 l 0
 178 472 l 1
 188 472 l 0
 191 470 l 1
 191 423 l 1
 191 376 l 1
 187 372 l 0
 165 372 l 1
 141 372 l 1
 141 385 l 1
 141 394 l 0
 144 398 l 1
 153 398 l 1
 163 398 l 1
 165 400 l 0
 165 423 l 1
 165 442 l 0
 165 444 l 1
 162 448 l 0
 153 448 l 1
 141 448 l 1
 141 498 l 1
 141 548 l 1
 165 548 l 1
250 612 m 1
 433 612 l 0
 438 607 l 1
 438 331 l 1
 438 55 l 1
 433 50 l 0
 250 50 l 1
 67 50 l 1
 62 55 l 0
 62 331 l 1
 62 607 l 1
 67 612 l 0
 250 612 l 1
EndSplineSet
EndChar

StartChar: uni000F
Encoding: 15 15 207
Width: 500
Flags: HW
LayerCount: 2
Fore
SplineSet
347 323 m 1
 272 323 l 1
 272 211 l 1
 272 99 l 1
 297 99 l 1
 322 99 l 1
 322 149 l 1
 322 199 l 1
 359 199 l 1
 397 199 l 1
 397 211 l 1
 397 223 l 1
 359 223 l 1
 322 223 l 1
 322 261 l 1
 322 299 l 1
 372 299 l 1
 422 299 l 1
 422 311 l 1
 422 323 l 1
 347 323 l 1
165 315 m 1
 116 315 l 1
 116 303 l 1
 116 291 l 1
 103 291 l 1
 91 291 l 1
 91 203 l 1
 91 115 l 1
 103 115 l 1
 116 115 l 1
 116 103 l 1
 116 91 l 1
 165 91 l 1
 216 91 l 1
 216 103 l 1
 216 115 l 1
 228 115 l 1
 241 115 l 1
 241 203 l 1
 241 291 l 1
 228 291 l 1
 216 291 l 1
 216 303 l 1
 216 315 l 1
 165 315 l 1
165 291 m 1
 191 291 l 1
 191 278 l 1
 191 268 l 1
 189 266 l 0
 178 266 l 1
 167 266 l 1
 165 263 l 0
 165 241 l 1
 165 218 l 1
 168 215 l 0
 178 215 l 1
 188 215 l 0
 191 213 l 1
 191 166 l 1
 191 119 l 1
 187 115 l 0
 165 115 l 1
 141 115 l 1
 141 128 l 1
 141 137 l 0
 144 141 l 1
 153 141 l 1
 163 141 l 1
 165 143 l 0
 165 166 l 1
 165 185 l 0
 165 187 l 1
 162 191 l 0
 153 191 l 1
 141 191 l 1
 141 241 l 1
 141 291 l 1
 165 291 l 1
287 569 m 1
 262 569 l 1
 262 545 l 1
 262 520 l 1
 275 520 l 1
 287 520 l 1
 287 507 l 1
 287 495 l 1
 299 495 l 1
 312 495 l 1
 312 469 l 1
 312 445 l 1
 299 445 l 1
 287 445 l 1
 287 432 l 1
 287 420 l 1
 275 420 l 1
 262 420 l 1
 262 382 l 1
 262 345 l 1
 287 345 l 1
 312 345 l 1
 312 395 l 1
 312 445 l 1
 325 445 l 1
 337 445 l 1
 337 432 l 1
 337 420 l 1
 349 420 l 1
 362 420 l 1
 362 382 l 1
 362 345 l 1
 387 345 l 1
 412 345 l 1
 412 382 l 1
 412 420 l 1
 399 420 l 1
 387 420 l 1
 387 432 l 1
 387 445 l 1
 375 445 l 1
 362 445 l 1
 362 469 l 1
 362 495 l 1
 375 495 l 1
 387 495 l 1
 387 507 l 1
 387 520 l 1
 399 520 l 1
 412 520 l 1
 412 545 l 1
 412 569 l 1
 387 569 l 1
 362 569 l 1
 362 532 l 1
 362 495 l 1
 349 495 l 1
 337 495 l 1
 337 507 l 1
 337 520 l 1
 325 520 l 1
 312 520 l 1
 312 545 l 1
 312 569 l 1
 287 569 l 1
165 572 m 1
 116 572 l 1
 116 560 l 1
 116 548 l 1
 103 548 l 1
 91 548 l 1
 91 460 l 1
 91 372 l 1
 103 372 l 1
 116 372 l 1
 116 360 l 1
 116 348 l 1
 165 348 l 1
 216 348 l 1
 216 360 l 1
 216 372 l 1
 228 372 l 1
 241 372 l 1
 241 460 l 1
 241 548 l 1
 228 548 l 1
 216 548 l 1
 216 560 l 1
 216 572 l 1
 165 572 l 1
165 548 m 1
 191 548 l 1
 191 535 l 1
 191 525 l 1
 189 523 l 0
 178 523 l 1
 167 523 l 1
 165 520 l 0
 165 498 l 1
 165 475 l 1
 168 472 l 0
 178 472 l 1
 188 472 l 0
 191 470 l 1
 191 423 l 1
 191 376 l 1
 187 372 l 0
 165 372 l 1
 141 372 l 1
 141 385 l 1
 141 394 l 0
 144 398 l 1
 153 398 l 1
 163 398 l 1
 165 400 l 0
 165 423 l 1
 165 442 l 0
 165 444 l 1
 162 448 l 0
 153 448 l 1
 141 448 l 1
 141 498 l 1
 141 548 l 1
 165 548 l 1
250 612 m 1
 433 612 l 0
 438 607 l 1
 438 331 l 1
 438 55 l 1
 433 50 l 0
 250 50 l 1
 67 50 l 1
 62 55 l 0
 62 331 l 1
 62 607 l 1
 67 612 l 0
 250 612 l 1
EndSplineSet
EndChar

StartChar: uni0010
Encoding: 16 16 208
Width: 500
Flags: HW
LayerCount: 2
Fore
SplineSet
337 324 m 1
 288 324 l 1
 288 312 l 1
 288 300 l 1
 275 300 l 1
 263 300 l 1
 263 212 l 1
 263 124 l 1
 275 124 l 1
 288 124 l 1
 288 112 l 1
 288 100 l 1
 337 100 l 1
 388 100 l 1
 388 112 l 1
 388 124 l 1
 400 124 l 1
 413 124 l 1
 413 212 l 1
 413 300 l 1
 400 300 l 1
 388 300 l 1
 388 312 l 1
 388 324 l 1
 337 324 l 1
337 300 m 1
 363 300 l 1
 363 287 l 1
 363 277 l 1
 361 275 l 0
 350 275 l 1
 339 275 l 1
 337 272 l 0
 337 250 l 1
 337 227 l 1
 340 224 l 0
 350 224 l 1
 360 224 l 0
 363 222 l 1
 363 175 l 1
 363 128 l 1
 359 124 l 0
 337 124 l 1
 313 124 l 1
 313 137 l 1
 313 146 l 0
 316 150 l 1
 325 150 l 1
 335 150 l 1
 337 152 l 0
 337 175 l 1
 337 194 l 0
 337 196 l 1
 334 200 l 0
 325 200 l 1
 313 200 l 1
 313 250 l 1
 313 300 l 1
 337 300 l 1
200 320 m 1
 175 320 l 1
 175 308 l 1
 175 296 l 1
 163 296 l 1
 150 296 l 1
 150 283 l 1
 150 271 l 1
 125 271 l 1
 100 271 l 1
 100 258 l 1
 100 246 l 1
 138 246 l 1
 175 246 l 1
 175 171 l 1
 175 96 l 1
 200 96 l 1
 225 96 l 1
 225 208 l 1
 225 320 l 1
 200 320 l 1
287 569 m 1
 262 569 l 1
 262 545 l 1
 262 520 l 1
 275 520 l 1
 287 520 l 1
 287 507 l 1
 287 495 l 1
 299 495 l 1
 312 495 l 1
 312 469 l 1
 312 445 l 1
 299 445 l 1
 287 445 l 1
 287 432 l 1
 287 420 l 1
 275 420 l 1
 262 420 l 1
 262 382 l 1
 262 345 l 1
 287 345 l 1
 312 345 l 1
 312 395 l 1
 312 445 l 1
 325 445 l 1
 337 445 l 1
 337 432 l 1
 337 420 l 1
 349 420 l 1
 362 420 l 1
 362 382 l 1
 362 345 l 1
 387 345 l 1
 412 345 l 1
 412 382 l 1
 412 420 l 1
 399 420 l 1
 387 420 l 1
 387 432 l 1
 387 445 l 1
 375 445 l 1
 362 445 l 1
 362 469 l 1
 362 495 l 1
 375 495 l 1
 387 495 l 1
 387 507 l 1
 387 520 l 1
 399 520 l 1
 412 520 l 1
 412 545 l 1
 412 569 l 1
 387 569 l 1
 362 569 l 1
 362 532 l 1
 362 495 l 1
 349 495 l 1
 337 495 l 1
 337 507 l 1
 337 520 l 1
 325 520 l 1
 312 520 l 1
 312 545 l 1
 312 569 l 1
 287 569 l 1
165 572 m 1
 116 572 l 1
 116 560 l 1
 116 548 l 1
 103 548 l 1
 91 548 l 1
 91 460 l 1
 91 372 l 1
 103 372 l 1
 116 372 l 1
 116 360 l 1
 116 348 l 1
 165 348 l 1
 216 348 l 1
 216 360 l 1
 216 372 l 1
 228 372 l 1
 241 372 l 1
 241 460 l 1
 241 548 l 1
 228 548 l 1
 216 548 l 1
 216 560 l 1
 216 572 l 1
 165 572 l 1
165 548 m 1
 191 548 l 1
 191 535 l 1
 191 525 l 1
 189 523 l 0
 178 523 l 1
 167 523 l 1
 165 520 l 0
 165 498 l 1
 165 475 l 1
 168 472 l 0
 178 472 l 1
 188 472 l 0
 191 470 l 1
 191 423 l 1
 191 376 l 1
 187 372 l 0
 165 372 l 1
 141 372 l 1
 141 385 l 1
 141 394 l 0
 144 398 l 1
 153 398 l 1
 163 398 l 1
 165 400 l 0
 165 423 l 1
 165 442 l 0
 165 444 l 1
 162 448 l 0
 153 448 l 1
 141 448 l 1
 141 498 l 1
 141 548 l 1
 165 548 l 1
250 612 m 1
 433 612 l 0
 438 607 l 1
 438 331 l 1
 438 55 l 1
 433 50 l 0
 250 50 l 1
 67 50 l 1
 62 55 l 0
 62 331 l 1
 62 607 l 1
 67 612 l 0
 250 612 l 1
EndSplineSet
EndChar

StartChar: uni0011
Encoding: 17 17 209
Width: 500
Flags: HW
LayerCount: 2
Fore
SplineSet
375 320 m 1
 350 320 l 1
 350 308 l 1
 350 296 l 1
 338 296 l 1
 325 296 l 1
 325 283 l 1
 325 271 l 1
 300 271 l 1
 275 271 l 1
 275 258 l 1
 275 246 l 1
 313 246 l 1
 350 246 l 1
 350 171 l 1
 350 96 l 1
 375 96 l 1
 400 96 l 1
 400 208 l 1
 400 320 l 1
 375 320 l 1
200 320 m 1
 175 320 l 1
 175 308 l 1
 175 296 l 1
 163 296 l 1
 150 296 l 1
 150 283 l 1
 150 271 l 1
 125 271 l 1
 100 271 l 1
 100 258 l 1
 100 246 l 1
 138 246 l 1
 175 246 l 1
 175 171 l 1
 175 96 l 1
 200 96 l 1
 225 96 l 1
 225 208 l 1
 225 320 l 1
 200 320 l 1
287 569 m 1
 262 569 l 1
 262 545 l 1
 262 520 l 1
 275 520 l 1
 287 520 l 1
 287 507 l 1
 287 495 l 1
 299 495 l 1
 312 495 l 1
 312 469 l 1
 312 445 l 1
 299 445 l 1
 287 445 l 1
 287 432 l 1
 287 420 l 1
 275 420 l 1
 262 420 l 1
 262 382 l 1
 262 345 l 1
 287 345 l 1
 312 345 l 1
 312 395 l 1
 312 445 l 1
 325 445 l 1
 337 445 l 1
 337 432 l 1
 337 420 l 1
 349 420 l 1
 362 420 l 1
 362 382 l 1
 362 345 l 1
 387 345 l 1
 412 345 l 1
 412 382 l 1
 412 420 l 1
 399 420 l 1
 387 420 l 1
 387 432 l 1
 387 445 l 1
 375 445 l 1
 362 445 l 1
 362 469 l 1
 362 495 l 1
 375 495 l 1
 387 495 l 1
 387 507 l 1
 387 520 l 1
 399 520 l 1
 412 520 l 1
 412 545 l 1
 412 569 l 1
 387 569 l 1
 362 569 l 1
 362 532 l 1
 362 495 l 1
 349 495 l 1
 337 495 l 1
 337 507 l 1
 337 520 l 1
 325 520 l 1
 312 520 l 1
 312 545 l 1
 312 569 l 1
 287 569 l 1
165 572 m 1
 116 572 l 1
 116 560 l 1
 116 548 l 1
 103 548 l 1
 91 548 l 1
 91 460 l 1
 91 372 l 1
 103 372 l 1
 116 372 l 1
 116 360 l 1
 116 348 l 1
 165 348 l 1
 216 348 l 1
 216 360 l 1
 216 372 l 1
 228 372 l 1
 241 372 l 1
 241 460 l 1
 241 548 l 1
 228 548 l 1
 216 548 l 1
 216 560 l 1
 216 572 l 1
 165 572 l 1
165 548 m 1
 191 548 l 1
 191 535 l 1
 191 525 l 1
 189 523 l 0
 178 523 l 1
 167 523 l 1
 165 520 l 0
 165 498 l 1
 165 475 l 1
 168 472 l 0
 178 472 l 1
 188 472 l 0
 191 470 l 1
 191 423 l 1
 191 376 l 1
 187 372 l 0
 165 372 l 1
 141 372 l 1
 141 385 l 1
 141 394 l 0
 144 398 l 1
 153 398 l 1
 163 398 l 1
 165 400 l 0
 165 423 l 1
 165 442 l 0
 165 444 l 1
 162 448 l 0
 153 448 l 1
 141 448 l 1
 141 498 l 1
 141 548 l 1
 165 548 l 1
250 612 m 1
 433 612 l 0
 438 607 l 1
 438 331 l 1
 438 55 l 1
 433 50 l 0
 250 50 l 1
 67 50 l 1
 62 55 l 0
 62 331 l 1
 62 607 l 1
 67 612 l 0
 250 612 l 1
EndSplineSet
EndChar

StartChar: uni0012
Encoding: 18 18 210
Width: 500
Flags: HW
LayerCount: 2
Fore
SplineSet
338 321 m 1
 288 321 l 1
 288 309 l 1
 288 297 l 1
 276 297 l 1
 263 297 l 1
 263 272 l 1
 263 247 l 1
 288 247 l 1
 313 247 l 1
 313 272 l 1
 313 297 l 1
 338 297 l 1
 363 297 l 1
 363 259 l 1
 363 221 l 1
 350 221 l 1
 338 221 l 1
 338 209 l 1
 338 197 l 1
 326 197 l 1
 313 197 l 1
 313 184 l 1
 313 172 l 1
 300 172 l 1
 288 172 l 1
 288 159 l 1
 288 147 l 1
 276 147 l 1
 263 147 l 1
 263 121 l 1
 263 97 l 1
 338 97 l 1
 413 97 l 1
 413 109 l 1
 413 121 l 1
 363 121 l 1
 313 121 l 1
 313 134 l 1
 313 147 l 1
 326 147 l 1
 338 147 l 1
 338 159 l 1
 338 172 l 1
 350 172 l 1
 363 172 l 1
 363 184 l 1
 363 197 l 1
 376 197 l 1
 388 197 l 1
 388 209 l 1
 388 221 l 1
 400 221 l 1
 413 221 l 1
 413 259 l 1
 413 297 l 1
 400 297 l 1
 388 297 l 1
 388 309 l 1
 388 321 l 1
 338 321 l 1
200 320 m 1
 175 320 l 1
 175 308 l 1
 175 296 l 1
 163 296 l 1
 150 296 l 1
 150 283 l 1
 150 271 l 1
 125 271 l 1
 100 271 l 1
 100 258 l 1
 100 246 l 1
 138 246 l 1
 175 246 l 1
 175 171 l 1
 175 96 l 1
 200 96 l 1
 225 96 l 1
 225 208 l 1
 225 320 l 1
 200 320 l 1
287 569 m 1
 262 569 l 1
 262 545 l 1
 262 520 l 1
 275 520 l 1
 287 520 l 1
 287 507 l 1
 287 495 l 1
 299 495 l 1
 312 495 l 1
 312 469 l 1
 312 445 l 1
 299 445 l 1
 287 445 l 1
 287 432 l 1
 287 420 l 1
 275 420 l 1
 262 420 l 1
 262 382 l 1
 262 345 l 1
 287 345 l 1
 312 345 l 1
 312 395 l 1
 312 445 l 1
 325 445 l 1
 337 445 l 1
 337 432 l 1
 337 420 l 1
 349 420 l 1
 362 420 l 1
 362 382 l 1
 362 345 l 1
 387 345 l 1
 412 345 l 1
 412 382 l 1
 412 420 l 1
 399 420 l 1
 387 420 l 1
 387 432 l 1
 387 445 l 1
 375 445 l 1
 362 445 l 1
 362 469 l 1
 362 495 l 1
 375 495 l 1
 387 495 l 1
 387 507 l 1
 387 520 l 1
 399 520 l 1
 412 520 l 1
 412 545 l 1
 412 569 l 1
 387 569 l 1
 362 569 l 1
 362 532 l 1
 362 495 l 1
 349 495 l 1
 337 495 l 1
 337 507 l 1
 337 520 l 1
 325 520 l 1
 312 520 l 1
 312 545 l 1
 312 569 l 1
 287 569 l 1
165 572 m 1
 116 572 l 1
 116 560 l 1
 116 548 l 1
 103 548 l 1
 91 548 l 1
 91 460 l 1
 91 372 l 1
 103 372 l 1
 116 372 l 1
 116 360 l 1
 116 348 l 1
 165 348 l 1
 216 348 l 1
 216 360 l 1
 216 372 l 1
 228 372 l 1
 241 372 l 1
 241 460 l 1
 241 548 l 1
 228 548 l 1
 216 548 l 1
 216 560 l 1
 216 572 l 1
 165 572 l 1
165 548 m 1
 191 548 l 1
 191 535 l 1
 191 525 l 1
 189 523 l 0
 178 523 l 1
 167 523 l 1
 165 520 l 0
 165 498 l 1
 165 475 l 1
 168 472 l 0
 178 472 l 1
 188 472 l 0
 191 470 l 1
 191 423 l 1
 191 376 l 1
 187 372 l 0
 165 372 l 1
 141 372 l 1
 141 385 l 1
 141 394 l 0
 144 398 l 1
 153 398 l 1
 163 398 l 1
 165 400 l 0
 165 423 l 1
 165 442 l 0
 165 444 l 1
 162 448 l 0
 153 448 l 1
 141 448 l 1
 141 498 l 1
 141 548 l 1
 165 548 l 1
250 612 m 1
 433 612 l 0
 438 607 l 1
 438 331 l 1
 438 55 l 1
 433 50 l 0
 250 50 l 1
 67 50 l 1
 62 55 l 0
 62 331 l 1
 62 607 l 1
 67 612 l 0
 250 612 l 1
EndSplineSet
EndChar

StartChar: uni0013
Encoding: 19 19 211
Width: 500
Flags: HW
LayerCount: 2
Fore
SplineSet
337 320 m 1
 287 320 l 1
 287 308 l 1
 287 296 l 1
 275 296 l 1
 262 296 l 1
 262 271 l 1
 262 246 l 1
 287 246 l 1
 312 246 l 1
 312 271 l 1
 312 296 l 1
 337 296 l 1
 362 296 l 1
 362 258 l 1
 362 220 l 1
 337 220 l 1
 312 220 l 1
 312 208 l 1
 312 196 l 1
 337 196 l 1
 362 196 l 1
 362 158 l 1
 362 120 l 1
 337 120 l 1
 312 120 l 1
 312 146 l 1
 312 171 l 1
 287 171 l 1
 262 171 l 1
 262 146 l 1
 262 120 l 1
 275 120 l 1
 287 120 l 1
 287 108 l 1
 287 96 l 1
 337 96 l 1
 387 96 l 1
 387 108 l 1
 387 120 l 1
 399 120 l 1
 412 120 l 1
 412 158 l 1
 412 196 l 1
 399 196 l 1
 387 196 l 1
 387 208 l 1
 387 220 l 1
 399 220 l 1
 412 220 l 1
 412 258 l 1
 412 296 l 1
 399 296 l 1
 387 296 l 1
 387 308 l 1
 387 320 l 1
 337 320 l 1
200 320 m 1
 175 320 l 1
 175 308 l 1
 175 296 l 1
 163 296 l 1
 150 296 l 1
 150 283 l 1
 150 271 l 1
 125 271 l 1
 100 271 l 1
 100 258 l 1
 100 246 l 1
 138 246 l 1
 175 246 l 1
 175 171 l 1
 175 96 l 1
 200 96 l 1
 225 96 l 1
 225 208 l 1
 225 320 l 1
 200 320 l 1
287 569 m 1
 262 569 l 1
 262 545 l 1
 262 520 l 1
 275 520 l 1
 287 520 l 1
 287 507 l 1
 287 495 l 1
 299 495 l 1
 312 495 l 1
 312 469 l 1
 312 445 l 1
 299 445 l 1
 287 445 l 1
 287 432 l 1
 287 420 l 1
 275 420 l 1
 262 420 l 1
 262 382 l 1
 262 345 l 1
 287 345 l 1
 312 345 l 1
 312 395 l 1
 312 445 l 1
 325 445 l 1
 337 445 l 1
 337 432 l 1
 337 420 l 1
 349 420 l 1
 362 420 l 1
 362 382 l 1
 362 345 l 1
 387 345 l 1
 412 345 l 1
 412 382 l 1
 412 420 l 1
 399 420 l 1
 387 420 l 1
 387 432 l 1
 387 445 l 1
 375 445 l 1
 362 445 l 1
 362 469 l 1
 362 495 l 1
 375 495 l 1
 387 495 l 1
 387 507 l 1
 387 520 l 1
 399 520 l 1
 412 520 l 1
 412 545 l 1
 412 569 l 1
 387 569 l 1
 362 569 l 1
 362 532 l 1
 362 495 l 1
 349 495 l 1
 337 495 l 1
 337 507 l 1
 337 520 l 1
 325 520 l 1
 312 520 l 1
 312 545 l 1
 312 569 l 1
 287 569 l 1
165 572 m 1
 116 572 l 1
 116 560 l 1
 116 548 l 1
 103 548 l 1
 91 548 l 1
 91 460 l 1
 91 372 l 1
 103 372 l 1
 116 372 l 1
 116 360 l 1
 116 348 l 1
 165 348 l 1
 216 348 l 1
 216 360 l 1
 216 372 l 1
 228 372 l 1
 241 372 l 1
 241 460 l 1
 241 548 l 1
 228 548 l 1
 216 548 l 1
 216 560 l 1
 216 572 l 1
 165 572 l 1
165 548 m 1
 191 548 l 1
 191 535 l 1
 191 525 l 1
 189 523 l 0
 178 523 l 1
 167 523 l 1
 165 520 l 0
 165 498 l 1
 165 475 l 1
 168 472 l 0
 178 472 l 1
 188 472 l 0
 191 470 l 1
 191 423 l 1
 191 376 l 1
 187 372 l 0
 165 372 l 1
 141 372 l 1
 141 385 l 1
 141 394 l 0
 144 398 l 1
 153 398 l 1
 163 398 l 1
 165 400 l 0
 165 423 l 1
 165 442 l 0
 165 444 l 1
 162 448 l 0
 153 448 l 1
 141 448 l 1
 141 498 l 1
 141 548 l 1
 165 548 l 1
250 612 m 1
 433 612 l 0
 438 607 l 1
 438 331 l 1
 438 55 l 1
 433 50 l 0
 250 50 l 1
 67 50 l 1
 62 55 l 0
 62 331 l 1
 62 607 l 1
 67 612 l 0
 250 612 l 1
EndSplineSet
EndChar

StartChar: uni0014
Encoding: 20 20 212
Width: 500
Flags: HW
LayerCount: 2
Fore
SplineSet
303 322 m 1
 278 322 l 1
 278 260 l 1
 278 198 l 1
 265 198 l 1
 252 198 l 1
 252 173 l 1
 252 148 l 1
 303 148 l 1
 352 148 l 1
 352 122 l 1
 352 98 l 1
 378 98 l 1
 403 98 l 1
 403 122 l 1
 403 148 l 1
 415 148 l 1
 428 148 l 1
 428 160 l 1
 428 173 l 1
 415 173 l 1
 403 173 l 1
 403 222 l 1
 403 273 l 1
 378 273 l 1
 352 273 l 1
 352 222 l 1
 352 173 l 1
 328 173 l 1
 303 173 l 1
 303 185 l 1
 303 198 l 1
 315 198 l 1
 328 198 l 1
 328 260 l 1
 328 322 l 1
 303 322 l 1
200 320 m 1
 175 320 l 1
 175 308 l 1
 175 296 l 1
 163 296 l 1
 150 296 l 1
 150 283 l 1
 150 271 l 1
 125 271 l 1
 100 271 l 1
 100 258 l 1
 100 246 l 1
 138 246 l 1
 175 246 l 1
 175 171 l 1
 175 96 l 1
 200 96 l 1
 225 96 l 1
 225 208 l 1
 225 320 l 1
 200 320 l 1
287 569 m 1
 262 569 l 1
 262 545 l 1
 262 520 l 1
 275 520 l 1
 287 520 l 1
 287 507 l 1
 287 495 l 1
 299 495 l 1
 312 495 l 1
 312 469 l 1
 312 445 l 1
 299 445 l 1
 287 445 l 1
 287 432 l 1
 287 420 l 1
 275 420 l 1
 262 420 l 1
 262 382 l 1
 262 345 l 1
 287 345 l 1
 312 345 l 1
 312 395 l 1
 312 445 l 1
 325 445 l 1
 337 445 l 1
 337 432 l 1
 337 420 l 1
 349 420 l 1
 362 420 l 1
 362 382 l 1
 362 345 l 1
 387 345 l 1
 412 345 l 1
 412 382 l 1
 412 420 l 1
 399 420 l 1
 387 420 l 1
 387 432 l 1
 387 445 l 1
 375 445 l 1
 362 445 l 1
 362 469 l 1
 362 495 l 1
 375 495 l 1
 387 495 l 1
 387 507 l 1
 387 520 l 1
 399 520 l 1
 412 520 l 1
 412 545 l 1
 412 569 l 1
 387 569 l 1
 362 569 l 1
 362 532 l 1
 362 495 l 1
 349 495 l 1
 337 495 l 1
 337 507 l 1
 337 520 l 1
 325 520 l 1
 312 520 l 1
 312 545 l 1
 312 569 l 1
 287 569 l 1
165 572 m 1
 116 572 l 1
 116 560 l 1
 116 548 l 1
 103 548 l 1
 91 548 l 1
 91 460 l 1
 91 372 l 1
 103 372 l 1
 116 372 l 1
 116 360 l 1
 116 348 l 1
 165 348 l 1
 216 348 l 1
 216 360 l 1
 216 372 l 1
 228 372 l 1
 241 372 l 1
 241 460 l 1
 241 548 l 1
 228 548 l 1
 216 548 l 1
 216 560 l 1
 216 572 l 1
 165 572 l 1
165 548 m 1
 191 548 l 1
 191 535 l 1
 191 525 l 1
 189 523 l 0
 178 523 l 1
 167 523 l 1
 165 520 l 0
 165 498 l 1
 165 475 l 1
 168 472 l 0
 178 472 l 1
 188 472 l 0
 191 470 l 1
 191 423 l 1
 191 376 l 1
 187 372 l 0
 165 372 l 1
 141 372 l 1
 141 385 l 1
 141 394 l 0
 144 398 l 1
 153 398 l 1
 163 398 l 1
 165 400 l 0
 165 423 l 1
 165 442 l 0
 165 444 l 1
 162 448 l 0
 153 448 l 1
 141 448 l 1
 141 498 l 1
 141 548 l 1
 165 548 l 1
250 612 m 1
 433 612 l 0
 438 607 l 1
 438 331 l 1
 438 55 l 1
 433 50 l 0
 250 50 l 1
 67 50 l 1
 62 55 l 0
 62 331 l 1
 62 607 l 1
 67 612 l 0
 250 612 l 1
EndSplineSet
EndChar

StartChar: uni0015
Encoding: 21 21 213
Width: 500
Flags: HW
LayerCount: 2
Fore
SplineSet
342 321 m 1
 267 321 l 1
 267 259 l 1
 267 197 l 1
 317 197 l 1
 367 197 l 1
 367 172 l 1
 367 147 l 1
 354 147 l 1
 342 147 l 1
 342 134 l 1
 342 121 l 1
 304 121 l 1
 267 121 l 1
 267 109 l 1
 267 97 l 1
 317 97 l 1
 367 97 l 1
 367 109 l 1
 367 121 l 1
 380 121 l 1
 392 121 l 1
 392 134 l 1
 392 147 l 1
 404 147 l 1
 417 147 l 1
 417 172 l 1
 417 197 l 1
 404 197 l 1
 392 197 l 1
 392 209 l 1
 392 221 l 1
 354 221 l 1
 317 221 l 1
 317 259 l 1
 317 297 l 1
 367 297 l 1
 417 297 l 1
 417 309 l 1
 417 321 l 1
 342 321 l 1
200 320 m 1
 175 320 l 1
 175 308 l 1
 175 296 l 1
 163 296 l 1
 150 296 l 1
 150 283 l 1
 150 271 l 1
 125 271 l 1
 100 271 l 1
 100 258 l 1
 100 246 l 1
 138 246 l 1
 175 246 l 1
 175 171 l 1
 175 96 l 1
 200 96 l 1
 225 96 l 1
 225 208 l 1
 225 320 l 1
 200 320 l 1
287 569 m 1
 262 569 l 1
 262 545 l 1
 262 520 l 1
 275 520 l 1
 287 520 l 1
 287 507 l 1
 287 495 l 1
 299 495 l 1
 312 495 l 1
 312 469 l 1
 312 445 l 1
 299 445 l 1
 287 445 l 1
 287 432 l 1
 287 420 l 1
 275 420 l 1
 262 420 l 1
 262 382 l 1
 262 345 l 1
 287 345 l 1
 312 345 l 1
 312 395 l 1
 312 445 l 1
 325 445 l 1
 337 445 l 1
 337 432 l 1
 337 420 l 1
 349 420 l 1
 362 420 l 1
 362 382 l 1
 362 345 l 1
 387 345 l 1
 412 345 l 1
 412 382 l 1
 412 420 l 1
 399 420 l 1
 387 420 l 1
 387 432 l 1
 387 445 l 1
 375 445 l 1
 362 445 l 1
 362 469 l 1
 362 495 l 1
 375 495 l 1
 387 495 l 1
 387 507 l 1
 387 520 l 1
 399 520 l 1
 412 520 l 1
 412 545 l 1
 412 569 l 1
 387 569 l 1
 362 569 l 1
 362 532 l 1
 362 495 l 1
 349 495 l 1
 337 495 l 1
 337 507 l 1
 337 520 l 1
 325 520 l 1
 312 520 l 1
 312 545 l 1
 312 569 l 1
 287 569 l 1
165 572 m 1
 116 572 l 1
 116 560 l 1
 116 548 l 1
 103 548 l 1
 91 548 l 1
 91 460 l 1
 91 372 l 1
 103 372 l 1
 116 372 l 1
 116 360 l 1
 116 348 l 1
 165 348 l 1
 216 348 l 1
 216 360 l 1
 216 372 l 1
 228 372 l 1
 241 372 l 1
 241 460 l 1
 241 548 l 1
 228 548 l 1
 216 548 l 1
 216 560 l 1
 216 572 l 1
 165 572 l 1
165 548 m 1
 191 548 l 1
 191 535 l 1
 191 525 l 1
 189 523 l 0
 178 523 l 1
 167 523 l 1
 165 520 l 0
 165 498 l 1
 165 475 l 1
 168 472 l 0
 178 472 l 1
 188 472 l 0
 191 470 l 1
 191 423 l 1
 191 376 l 1
 187 372 l 0
 165 372 l 1
 141 372 l 1
 141 385 l 1
 141 394 l 0
 144 398 l 1
 153 398 l 1
 163 398 l 1
 165 400 l 0
 165 423 l 1
 165 442 l 0
 165 444 l 1
 162 448 l 0
 153 448 l 1
 141 448 l 1
 141 498 l 1
 141 548 l 1
 165 548 l 1
250 612 m 1
 433 612 l 0
 438 607 l 1
 438 331 l 1
 438 55 l 1
 433 50 l 0
 250 50 l 1
 67 50 l 1
 62 55 l 0
 62 331 l 1
 62 607 l 1
 67 612 l 0
 250 612 l 1
EndSplineSet
EndChar

StartChar: uni0016
Encoding: 22 22 214
Width: 500
Flags: HW
LayerCount: 2
Fore
SplineSet
352 320 m 1
 315 320 l 1
 315 296 l 1
 315 271 l 1
 302 271 l 1
 290 271 l 1
 290 258 l 1
 290 246 l 1
 278 246 l 1
 265 246 l 1
 265 183 l 1
 265 120 l 1
 278 120 l 1
 290 120 l 1
 290 108 l 1
 290 96 l 1
 340 96 l 1
 390 96 l 1
 390 108 l 1
 390 120 l 1
 402 120 l 1
 415 120 l 1
 415 171 l 1
 415 220 l 1
 402 220 l 1
 390 220 l 1
 390 233 l 1
 390 246 l 1
 365 246 l 1
 340 246 l 1
 340 258 l 1
 340 271 l 1
 352 271 l 1
 365 271 l 1
 365 283 l 1
 365 296 l 1
 378 296 l 1
 390 296 l 1
 390 308 l 1
 390 320 l 1
 352 320 l 1
340 220 m 1
 365 220 l 1
 365 171 l 1
 365 120 l 1
 340 120 l 1
 315 120 l 1
 315 171 l 1
 315 220 l 1
 340 220 l 1
200 320 m 1
 175 320 l 1
 175 308 l 1
 175 296 l 1
 163 296 l 1
 150 296 l 1
 150 283 l 1
 150 271 l 1
 125 271 l 1
 100 271 l 1
 100 258 l 1
 100 246 l 1
 138 246 l 1
 175 246 l 1
 175 171 l 1
 175 96 l 1
 200 96 l 1
 225 96 l 1
 225 208 l 1
 225 320 l 1
 200 320 l 1
287 569 m 1
 262 569 l 1
 262 545 l 1
 262 520 l 1
 275 520 l 1
 287 520 l 1
 287 507 l 1
 287 495 l 1
 299 495 l 1
 312 495 l 1
 312 469 l 1
 312 445 l 1
 299 445 l 1
 287 445 l 1
 287 432 l 1
 287 420 l 1
 275 420 l 1
 262 420 l 1
 262 382 l 1
 262 345 l 1
 287 345 l 1
 312 345 l 1
 312 395 l 1
 312 445 l 1
 325 445 l 1
 337 445 l 1
 337 432 l 1
 337 420 l 1
 349 420 l 1
 362 420 l 1
 362 382 l 1
 362 345 l 1
 387 345 l 1
 412 345 l 1
 412 382 l 1
 412 420 l 1
 399 420 l 1
 387 420 l 1
 387 432 l 1
 387 445 l 1
 375 445 l 1
 362 445 l 1
 362 469 l 1
 362 495 l 1
 375 495 l 1
 387 495 l 1
 387 507 l 1
 387 520 l 1
 399 520 l 1
 412 520 l 1
 412 545 l 1
 412 569 l 1
 387 569 l 1
 362 569 l 1
 362 532 l 1
 362 495 l 1
 349 495 l 1
 337 495 l 1
 337 507 l 1
 337 520 l 1
 325 520 l 1
 312 520 l 1
 312 545 l 1
 312 569 l 1
 287 569 l 1
165 572 m 1
 116 572 l 1
 116 560 l 1
 116 548 l 1
 103 548 l 1
 91 548 l 1
 91 460 l 1
 91 372 l 1
 103 372 l 1
 116 372 l 1
 116 360 l 1
 116 348 l 1
 165 348 l 1
 216 348 l 1
 216 360 l 1
 216 372 l 1
 228 372 l 1
 241 372 l 1
 241 460 l 1
 241 548 l 1
 228 548 l 1
 216 548 l 1
 216 560 l 1
 216 572 l 1
 165 572 l 1
165 548 m 1
 191 548 l 1
 191 535 l 1
 191 525 l 1
 189 523 l 0
 178 523 l 1
 167 523 l 1
 165 520 l 0
 165 498 l 1
 165 475 l 1
 168 472 l 0
 178 472 l 1
 188 472 l 0
 191 470 l 1
 191 423 l 1
 191 376 l 1
 187 372 l 0
 165 372 l 1
 141 372 l 1
 141 385 l 1
 141 394 l 0
 144 398 l 1
 153 398 l 1
 163 398 l 1
 165 400 l 0
 165 423 l 1
 165 442 l 0
 165 444 l 1
 162 448 l 0
 153 448 l 1
 141 448 l 1
 141 498 l 1
 141 548 l 1
 165 548 l 1
250 612 m 1
 433 612 l 0
 438 607 l 1
 438 331 l 1
 438 55 l 1
 433 50 l 0
 250 50 l 1
 67 50 l 1
 62 55 l 0
 62 331 l 1
 62 607 l 1
 67 612 l 0
 250 612 l 1
EndSplineSet
EndChar

StartChar: uni0017
Encoding: 23 23 215
Width: 500
Flags: HW
LayerCount: 2
Fore
SplineSet
341 322 m 1
 266 322 l 1
 266 310 l 1
 266 298 l 1
 316 298 l 1
 366 298 l 1
 366 285 l 1
 366 273 l 1
 353 273 l 1
 341 273 l 1
 341 248 l 1
 341 222 l 1
 329 222 l 1
 316 222 l 1
 316 198 l 1
 316 173 l 1
 303 173 l 1
 291 173 l 1
 291 135 l 1
 291 98 l 1
 316 98 l 1
 341 98 l 1
 341 135 l 1
 341 173 l 1
 353 173 l 1
 366 173 l 1
 366 198 l 1
 366 222 l 1
 379 222 l 1
 391 222 l 1
 391 248 l 1
 391 273 l 1
 403 273 l 1
 416 273 l 1
 416 298 l 1
 416 322 l 1
 341 322 l 1
200 320 m 1
 175 320 l 1
 175 308 l 1
 175 296 l 1
 163 296 l 1
 150 296 l 1
 150 283 l 1
 150 271 l 1
 125 271 l 1
 100 271 l 1
 100 258 l 1
 100 246 l 1
 138 246 l 1
 175 246 l 1
 175 171 l 1
 175 96 l 1
 200 96 l 1
 225 96 l 1
 225 208 l 1
 225 320 l 1
 200 320 l 1
287 569 m 1
 262 569 l 1
 262 545 l 1
 262 520 l 1
 275 520 l 1
 287 520 l 1
 287 507 l 1
 287 495 l 1
 299 495 l 1
 312 495 l 1
 312 469 l 1
 312 445 l 1
 299 445 l 1
 287 445 l 1
 287 432 l 1
 287 420 l 1
 275 420 l 1
 262 420 l 1
 262 382 l 1
 262 345 l 1
 287 345 l 1
 312 345 l 1
 312 395 l 1
 312 445 l 1
 325 445 l 1
 337 445 l 1
 337 432 l 1
 337 420 l 1
 349 420 l 1
 362 420 l 1
 362 382 l 1
 362 345 l 1
 387 345 l 1
 412 345 l 1
 412 382 l 1
 412 420 l 1
 399 420 l 1
 387 420 l 1
 387 432 l 1
 387 445 l 1
 375 445 l 1
 362 445 l 1
 362 469 l 1
 362 495 l 1
 375 495 l 1
 387 495 l 1
 387 507 l 1
 387 520 l 1
 399 520 l 1
 412 520 l 1
 412 545 l 1
 412 569 l 1
 387 569 l 1
 362 569 l 1
 362 532 l 1
 362 495 l 1
 349 495 l 1
 337 495 l 1
 337 507 l 1
 337 520 l 1
 325 520 l 1
 312 520 l 1
 312 545 l 1
 312 569 l 1
 287 569 l 1
165 572 m 1
 116 572 l 1
 116 560 l 1
 116 548 l 1
 103 548 l 1
 91 548 l 1
 91 460 l 1
 91 372 l 1
 103 372 l 1
 116 372 l 1
 116 360 l 1
 116 348 l 1
 165 348 l 1
 216 348 l 1
 216 360 l 1
 216 372 l 1
 228 372 l 1
 241 372 l 1
 241 460 l 1
 241 548 l 1
 228 548 l 1
 216 548 l 1
 216 560 l 1
 216 572 l 1
 165 572 l 1
165 548 m 1
 191 548 l 1
 191 535 l 1
 191 525 l 1
 189 523 l 0
 178 523 l 1
 167 523 l 1
 165 520 l 0
 165 498 l 1
 165 475 l 1
 168 472 l 0
 178 472 l 1
 188 472 l 0
 191 470 l 1
 191 423 l 1
 191 376 l 1
 187 372 l 0
 165 372 l 1
 141 372 l 1
 141 385 l 1
 141 394 l 0
 144 398 l 1
 153 398 l 1
 163 398 l 1
 165 400 l 0
 165 423 l 1
 165 442 l 0
 165 444 l 1
 162 448 l 0
 153 448 l 1
 141 448 l 1
 141 498 l 1
 141 548 l 1
 165 548 l 1
250 612 m 1
 433 612 l 0
 438 607 l 1
 438 331 l 1
 438 55 l 1
 433 50 l 0
 250 50 l 1
 67 50 l 1
 62 55 l 0
 62 331 l 1
 62 607 l 1
 67 612 l 0
 250 612 l 1
EndSplineSet
EndChar

StartChar: uni0018
Encoding: 24 24 216
Width: 500
Flags: HW
LayerCount: 2
Fore
SplineSet
338 324 m 1
 288 324 l 1
 288 312 l 1
 288 300 l 1
 276 300 l 1
 263 300 l 1
 263 262 l 1
 263 224 l 1
 276 224 l 1
 288 224 l 1
 288 212 l 1
 288 200 l 1
 276 200 l 1
 263 200 l 1
 263 162 l 1
 263 124 l 1
 276 124 l 1
 288 124 l 1
 288 112 l 1
 288 100 l 1
 338 100 l 1
 388 100 l 1
 388 112 l 1
 388 124 l 1
 400 124 l 1
 413 124 l 1
 413 162 l 1
 413 200 l 1
 400 200 l 1
 388 200 l 1
 388 212 l 1
 388 224 l 1
 400 224 l 1
 413 224 l 1
 413 262 l 1
 413 300 l 1
 400 300 l 1
 388 300 l 1
 388 312 l 1
 388 324 l 1
 338 324 l 1
338 300 m 1
 363 300 l 1
 363 262 l 1
 363 224 l 1
 350 224 l 1
 338 224 l 1
 338 237 l 1
 338 250 l 1
 326 250 l 1
 313 250 l 1
 313 275 l 1
 313 300 l 1
 338 300 l 1
326 200 m 1
 338 200 l 1
 338 187 l 1
 338 175 l 1
 350 175 l 1
 363 175 l 1
 363 150 l 1
 363 124 l 1
 338 124 l 1
 313 124 l 1
 313 162 l 1
 313 200 l 1
 326 200 l 1
200 320 m 1
 175 320 l 1
 175 308 l 1
 175 296 l 1
 163 296 l 1
 150 296 l 1
 150 283 l 1
 150 271 l 1
 125 271 l 1
 100 271 l 1
 100 258 l 1
 100 246 l 1
 138 246 l 1
 175 246 l 1
 175 171 l 1
 175 96 l 1
 200 96 l 1
 225 96 l 1
 225 208 l 1
 225 320 l 1
 200 320 l 1
287 569 m 1
 262 569 l 1
 262 545 l 1
 262 520 l 1
 275 520 l 1
 287 520 l 1
 287 507 l 1
 287 495 l 1
 299 495 l 1
 312 495 l 1
 312 469 l 1
 312 445 l 1
 299 445 l 1
 287 445 l 1
 287 432 l 1
 287 420 l 1
 275 420 l 1
 262 420 l 1
 262 382 l 1
 262 345 l 1
 287 345 l 1
 312 345 l 1
 312 395 l 1
 312 445 l 1
 325 445 l 1
 337 445 l 1
 337 432 l 1
 337 420 l 1
 349 420 l 1
 362 420 l 1
 362 382 l 1
 362 345 l 1
 387 345 l 1
 412 345 l 1
 412 382 l 1
 412 420 l 1
 399 420 l 1
 387 420 l 1
 387 432 l 1
 387 445 l 1
 375 445 l 1
 362 445 l 1
 362 469 l 1
 362 495 l 1
 375 495 l 1
 387 495 l 1
 387 507 l 1
 387 520 l 1
 399 520 l 1
 412 520 l 1
 412 545 l 1
 412 569 l 1
 387 569 l 1
 362 569 l 1
 362 532 l 1
 362 495 l 1
 349 495 l 1
 337 495 l 1
 337 507 l 1
 337 520 l 1
 325 520 l 1
 312 520 l 1
 312 545 l 1
 312 569 l 1
 287 569 l 1
165 572 m 1
 116 572 l 1
 116 560 l 1
 116 548 l 1
 103 548 l 1
 91 548 l 1
 91 460 l 1
 91 372 l 1
 103 372 l 1
 116 372 l 1
 116 360 l 1
 116 348 l 1
 165 348 l 1
 216 348 l 1
 216 360 l 1
 216 372 l 1
 228 372 l 1
 241 372 l 1
 241 460 l 1
 241 548 l 1
 228 548 l 1
 216 548 l 1
 216 560 l 1
 216 572 l 1
 165 572 l 1
165 548 m 1
 191 548 l 1
 191 535 l 1
 191 525 l 1
 189 523 l 0
 178 523 l 1
 167 523 l 1
 165 520 l 0
 165 498 l 1
 165 475 l 1
 168 472 l 0
 178 472 l 1
 188 472 l 0
 191 470 l 1
 191 423 l 1
 191 376 l 1
 187 372 l 0
 165 372 l 1
 141 372 l 1
 141 385 l 1
 141 394 l 0
 144 398 l 1
 153 398 l 1
 163 398 l 1
 165 400 l 0
 165 423 l 1
 165 442 l 0
 165 444 l 1
 162 448 l 0
 153 448 l 1
 141 448 l 1
 141 498 l 1
 141 548 l 1
 165 548 l 1
250 612 m 1
 433 612 l 0
 438 607 l 1
 438 331 l 1
 438 55 l 1
 433 50 l 0
 250 50 l 1
 67 50 l 1
 62 55 l 0
 62 331 l 1
 62 607 l 1
 67 612 l 0
 250 612 l 1
EndSplineSet
EndChar

StartChar: uni0019
Encoding: 25 25 217
Width: 500
Flags: HW
LayerCount: 2
Fore
SplineSet
337 322 m 1
 287 322 l 1
 287 310 l 1
 287 298 l 1
 275 298 l 1
 262 298 l 1
 262 248 l 1
 262 198 l 1
 275 198 l 1
 287 198 l 1
 287 185 l 1
 287 173 l 1
 312 173 l 1
 337 173 l 1
 337 160 l 1
 337 148 l 1
 325 148 l 1
 312 148 l 1
 312 135 l 1
 312 122 l 1
 299 122 l 1
 287 122 l 1
 287 110 l 1
 287 98 l 1
 325 98 l 1
 362 98 l 1
 362 122 l 1
 362 148 l 1
 375 148 l 1
 387 148 l 1
 387 160 l 1
 387 173 l 1
 399 173 l 1
 412 173 l 1
 412 235 l 1
 412 298 l 1
 399 298 l 1
 387 298 l 1
 387 310 l 1
 387 322 l 1
 337 322 l 1
337 298 m 1
 362 298 l 1
 362 248 l 1
 362 198 l 1
 337 198 l 1
 312 198 l 1
 312 248 l 1
 312 298 l 1
 337 298 l 1
200 320 m 1
 175 320 l 1
 175 308 l 1
 175 296 l 1
 163 296 l 1
 150 296 l 1
 150 283 l 1
 150 271 l 1
 125 271 l 1
 100 271 l 1
 100 258 l 1
 100 246 l 1
 138 246 l 1
 175 246 l 1
 175 171 l 1
 175 96 l 1
 200 96 l 1
 225 96 l 1
 225 208 l 1
 225 320 l 1
 200 320 l 1
287 569 m 1
 262 569 l 1
 262 545 l 1
 262 520 l 1
 275 520 l 1
 287 520 l 1
 287 507 l 1
 287 495 l 1
 299 495 l 1
 312 495 l 1
 312 469 l 1
 312 445 l 1
 299 445 l 1
 287 445 l 1
 287 432 l 1
 287 420 l 1
 275 420 l 1
 262 420 l 1
 262 382 l 1
 262 345 l 1
 287 345 l 1
 312 345 l 1
 312 395 l 1
 312 445 l 1
 325 445 l 1
 337 445 l 1
 337 432 l 1
 337 420 l 1
 349 420 l 1
 362 420 l 1
 362 382 l 1
 362 345 l 1
 387 345 l 1
 412 345 l 1
 412 382 l 1
 412 420 l 1
 399 420 l 1
 387 420 l 1
 387 432 l 1
 387 445 l 1
 375 445 l 1
 362 445 l 1
 362 469 l 1
 362 495 l 1
 375 495 l 1
 387 495 l 1
 387 507 l 1
 387 520 l 1
 399 520 l 1
 412 520 l 1
 412 545 l 1
 412 569 l 1
 387 569 l 1
 362 569 l 1
 362 532 l 1
 362 495 l 1
 349 495 l 1
 337 495 l 1
 337 507 l 1
 337 520 l 1
 325 520 l 1
 312 520 l 1
 312 545 l 1
 312 569 l 1
 287 569 l 1
165 572 m 1
 116 572 l 1
 116 560 l 1
 116 548 l 1
 103 548 l 1
 91 548 l 1
 91 460 l 1
 91 372 l 1
 103 372 l 1
 116 372 l 1
 116 360 l 1
 116 348 l 1
 165 348 l 1
 216 348 l 1
 216 360 l 1
 216 372 l 1
 228 372 l 1
 241 372 l 1
 241 460 l 1
 241 548 l 1
 228 548 l 1
 216 548 l 1
 216 560 l 1
 216 572 l 1
 165 572 l 1
165 548 m 1
 191 548 l 1
 191 535 l 1
 191 525 l 1
 189 523 l 0
 178 523 l 1
 167 523 l 1
 165 520 l 0
 165 498 l 1
 165 475 l 1
 168 472 l 0
 178 472 l 1
 188 472 l 0
 191 470 l 1
 191 423 l 1
 191 376 l 1
 187 372 l 0
 165 372 l 1
 141 372 l 1
 141 385 l 1
 141 394 l 0
 144 398 l 1
 153 398 l 1
 163 398 l 1
 165 400 l 0
 165 423 l 1
 165 442 l 0
 165 444 l 1
 162 448 l 0
 153 448 l 1
 141 448 l 1
 141 498 l 1
 141 548 l 1
 165 548 l 1
250 612 m 1
 433 612 l 0
 438 607 l 1
 438 331 l 1
 438 55 l 1
 433 50 l 0
 250 50 l 1
 67 50 l 1
 62 55 l 0
 62 331 l 1
 62 607 l 1
 67 612 l 0
 250 612 l 1
EndSplineSet
EndChar

